<svg width="117" height="53" viewBox="0 0 117 53" fill="none" xmlns="http://www.w3.org/2000/svg">
<g clip-path="url(#clip0)">
<path d="M9.03319 43.0571C8.98 42.9826 8.92682 42.8655 8.86299 42.7058C8.79917 42.5461 8.75662 42.461 8.75662 42.4503L6.54406 36.0848C6.4696 35.8612 6.42705 35.7016 6.42705 35.5845C6.42705 35.3397 6.55469 35.1906 6.79935 35.1161V34.999H3.92728V35.1161C4.19321 35.1587 4.3315 35.2971 4.3315 35.5313C4.3315 35.6803 4.26767 35.9358 4.14002 36.2764L2.06575 41.7691C1.86364 42.3013 1.67217 42.7058 1.4807 42.9719C1.38496 43.0997 1.29986 43.1955 1.20413 43.2487C1.10839 43.3019 0.980744 43.3445 0.810547 43.3871V43.5042H3.4486V43.3871C3.25713 43.3764 3.08693 43.3019 2.94865 43.1742C2.81036 43.0464 2.7359 42.8868 2.7359 42.6845C2.7359 42.461 2.79972 42.1523 2.93801 41.7691L3.69326 39.7146C4.19321 39.7253 4.66125 39.8104 5.09738 39.9808C5.53351 40.1511 5.91646 40.3746 6.23558 40.6514C6.55469 40.9281 6.79935 41.2262 6.98019 41.5455C7.16102 41.8649 7.24612 42.1736 7.24612 42.4716C7.24612 42.9826 7.03337 43.2806 6.60788 43.3764V43.4935H9.54378V43.3764C9.41613 43.3445 9.3204 43.3019 9.2353 43.238C9.1502 43.2061 9.08637 43.1316 9.03319 43.0571ZM5.73562 39.5337C5.45905 39.3846 5.15057 39.2676 4.83145 39.1824C4.51233 39.1079 4.19321 39.0653 3.87409 39.0653L5.05483 35.9677L6.49087 40.1085C6.26749 39.8849 6.01219 39.6933 5.73562 39.5337Z" fill="#FFF"/>
<path d="M16.2986 35.1161C16.4581 35.148 16.5432 35.2439 16.5432 35.3929C16.5432 35.5632 16.4262 35.8187 16.2028 36.1806L14.7349 38.565L13.2457 35.8506C13.1287 35.6377 13.0755 35.478 13.0755 35.3609C13.0755 35.2332 13.1499 35.148 13.2989 35.1161V34.999H10.0332V35.1161C10.4055 35.1693 10.6289 35.3184 10.7246 35.5845C10.8204 35.8506 10.8629 36.2125 10.8629 36.6915V41.9074C10.8629 42.2161 10.8523 42.461 10.8204 42.6526C10.7885 42.8335 10.714 42.9932 10.597 43.1316C10.4693 43.27 10.2885 43.3551 10.0332 43.3977V43.5148H12.5542V43.3977C12.2989 43.3764 12.1075 43.2912 11.9798 43.1422C11.8628 42.9932 11.7884 42.8229 11.7564 42.6206C11.7245 42.4184 11.7139 42.1523 11.7139 41.8223V35.9038L14.32 40.5023L17.1496 35.9038V41.9181C17.1496 42.2374 17.1389 42.4823 17.107 42.6739C17.0751 42.8655 17.0006 43.0251 16.8836 43.1635C16.7666 43.3019 16.5751 43.3871 16.3092 43.4083V43.5254H19.4153V43.4083C19.1494 43.3658 18.9685 43.27 18.8409 43.1209C18.7239 42.9719 18.6494 42.8016 18.6175 42.5993C18.5856 42.4077 18.575 42.1416 18.575 41.8329V36.6277C18.575 36.319 18.5856 36.0741 18.6175 35.8932C18.6494 35.7122 18.7239 35.5526 18.8409 35.4142C18.9579 35.2758 19.1494 35.18 19.4153 35.1374V35.0203H16.2986V35.1161Z" fill="#FFF"/>
<path d="M26.1058 35.1161C26.4037 35.1587 26.5526 35.3503 26.5526 35.6696C26.5526 35.9251 26.4675 36.2445 26.2973 36.649L24.9038 40.002L22.9785 36.6596C22.6381 36.0741 22.4573 35.6696 22.4573 35.4461C22.4573 35.2545 22.5423 35.148 22.7338 35.1161V34.999H19.9043V35.1161C20.1383 35.148 20.3511 35.2651 20.5319 35.4887C20.7127 35.7122 20.9361 36.0529 21.2127 36.5106L24.2337 41.4604C23.8507 42.3652 23.3827 42.8548 22.8296 42.94C22.0956 42.94 21.7339 42.4823 21.7339 41.5668C21.7339 41.3007 21.7658 41.0133 21.819 40.6939L21.6914 40.6833L20.734 43.0145C21.2552 43.4829 21.8403 43.717 22.4785 43.717C22.6062 43.717 22.7338 43.7064 22.8827 43.6745C23.7337 43.5467 24.4571 42.791 25.0634 41.4071L27.2759 36.4573C27.4674 36.0316 27.6376 35.7122 27.7865 35.4993C27.9355 35.2758 28.1482 35.148 28.4141 35.1161V34.999H26.1165V35.1161H26.1058Z" fill="#FFF"/>
<path d="M34.9991 35.2971C34.6268 35.0948 34.1375 34.999 33.5099 34.999H28.7656V35.1161C29.0209 35.148 29.2124 35.2439 29.3294 35.3929C29.4464 35.5419 29.5209 35.7122 29.5528 35.9145C29.5847 36.1167 29.5953 36.3722 29.5953 36.6915V41.9074C29.5953 42.2161 29.5847 42.461 29.5528 42.6526C29.5209 42.8335 29.4464 42.9932 29.3294 43.1316C29.2124 43.27 29.0209 43.3551 28.7656 43.3977V43.5148H31.8717V43.3977C31.6164 43.3764 31.425 43.2912 31.2973 43.1422C31.1697 42.9932 31.0952 42.8229 31.0739 42.6206C31.042 42.4184 31.0314 42.1523 31.0314 41.8223V39.5975C31.4994 39.4698 31.9675 39.3208 32.4355 39.1611C32.9142 38.9908 33.3929 38.7779 33.8822 38.5224C34.3715 38.2563 34.7757 37.9583 35.0842 37.607C35.3927 37.2663 35.5522 36.8831 35.5522 36.4573C35.5522 35.8825 35.3714 35.4993 34.9991 35.2971ZM31.0314 38.9695V36.8299C31.0314 36.468 31.0527 36.2125 31.0846 36.0635C31.1271 35.9038 31.2228 35.7867 31.393 35.7122C31.5632 35.6377 31.8398 35.5951 32.2334 35.5951C32.8397 35.5951 33.2971 35.6696 33.6162 35.8293C33.9354 35.9783 34.0949 36.2551 34.0949 36.6596C34.1056 37.5431 33.0844 38.3202 31.0314 38.9695Z" fill="#FFF"/>
<path d="M41.5724 43.004C40.998 43.004 40.4661 42.887 39.9874 42.6634C39.5087 42.4399 39.0939 42.1205 38.7429 41.716C38.3918 41.3115 38.1259 40.8538 37.9451 40.3429C37.7642 39.8319 37.6685 39.289 37.6685 38.7355C37.6685 38.2991 37.743 37.8733 37.8812 37.4582C38.0195 37.043 38.2323 36.6811 38.4982 36.3617C38.7748 36.0424 39.0833 35.8189 39.4236 35.6911C39.764 35.5634 40.1683 35.4995 40.6257 35.4995C41.0192 35.4995 41.4022 35.5634 41.7851 35.6911C42.1574 35.8189 42.4978 36.0105 42.785 36.2659C43.0829 36.5214 43.3063 36.8301 43.4552 37.192L43.5616 37.1495L42.9659 34.7012C42.8808 34.8821 42.7106 34.9673 42.4659 34.9673L42.0511 34.9247L40.6363 34.8076C39.9981 34.8076 39.413 34.8821 38.8811 35.0312C38.3493 35.1802 37.86 35.4357 37.4132 35.7976C36.9877 36.1489 36.6686 36.5959 36.4558 37.1282C36.2431 37.6604 36.1367 38.2139 36.1367 38.7994C36.1367 39.2784 36.2005 39.7468 36.3176 40.1938C36.4452 40.6409 36.626 41.0561 36.8813 41.4499C37.1366 41.8438 37.4451 42.1951 37.8068 42.4931C38.7429 43.2702 39.9981 43.6534 41.583 43.6534L43.1467 43.5789C43.3488 43.5789 43.4871 43.5895 43.5722 43.6214L44.5721 41.0241L44.4444 40.9709C43.8168 42.3334 42.8595 43.004 41.5724 43.004Z" fill="#FFF"/>
<path d="M53.0828 43.0677C52.9658 42.8868 52.8275 42.5887 52.6573 42.1629L52.4127 41.5668C51.6893 39.7572 50.732 38.2882 49.5512 37.1812L50.5192 36.3828C50.9022 36.0741 51.1894 35.8506 51.3808 35.7122C51.5723 35.5738 51.7957 35.4461 52.0616 35.329C52.3276 35.2119 52.6148 35.1374 52.9339 35.1161V34.999H49.8172V35.1161C50.0512 35.1481 50.1682 35.2439 50.1682 35.4248C50.1682 35.6271 49.998 35.8932 49.6576 36.2125C49.3172 36.5319 48.913 36.8938 48.4343 37.2876L47.3174 38.1818V36.6064C47.3174 36.138 47.3599 35.7761 47.4557 35.5313C47.5514 35.2864 47.7854 35.1481 48.1471 35.1161V34.999H45.041V35.1161C45.4133 35.1693 45.6473 35.329 45.7431 35.5951C45.8388 35.8612 45.892 36.2232 45.892 36.6915V41.9074C45.892 42.2161 45.8814 42.461 45.8495 42.6419C45.8175 42.8229 45.7431 42.9826 45.6261 43.1209C45.5091 43.2593 45.3176 43.3551 45.0517 43.3871V43.5042H48.1577V43.3871C47.9025 43.3658 47.711 43.2806 47.5833 43.1316C47.4663 42.9826 47.3919 42.8122 47.3599 42.61C47.328 42.4077 47.3174 42.1416 47.3174 41.8116V38.9908L48.5407 38.0115C49.264 38.8098 49.8491 39.5869 50.2852 40.3427C50.498 40.7152 50.7107 41.1517 50.9128 41.6626C51.1256 42.1736 51.2319 42.5887 51.2319 42.8868C51.2319 43.1848 51.083 43.3551 50.7852 43.3871V43.5042H53.6253V43.3871C53.3807 43.3551 53.1998 43.2487 53.0828 43.0677Z" fill="#FFF"/>
<path d="M59.8258 42.9826C59.7301 43.2274 59.4961 43.3658 59.1238 43.3871V43.5041H62.2298V43.3871C61.9746 43.3551 61.7831 43.27 61.6661 43.1209C61.5491 42.9719 61.4746 42.8016 61.4427 42.61C61.4108 42.4184 61.4001 42.1523 61.3895 41.8116V36.6064C61.3895 36.3083 61.4001 36.0635 61.432 35.8719C61.464 35.6803 61.5384 35.51 61.6554 35.3822C61.7724 35.2439 61.9639 35.1587 62.2298 35.1268V35.0097H59.1238V35.1268C59.4961 35.1587 59.7301 35.2545 59.8258 35.4035C59.9216 35.5525 59.9641 35.7442 59.9641 35.9783L56.1134 39.3314V36.6064C56.1134 36.287 56.124 36.0316 56.156 35.8506C56.1879 35.659 56.2623 35.4993 56.3793 35.3609C56.4963 35.2226 56.6878 35.148 56.9537 35.1161V34.999H53.8477V35.1161C54.22 35.1693 54.454 35.3184 54.5497 35.5845C54.6455 35.8506 54.6986 36.2125 54.6986 36.6915V41.9074C54.6986 42.2161 54.688 42.461 54.6561 42.6419C54.6242 42.8229 54.5497 42.9932 54.4327 43.1316C54.3051 43.27 54.1242 43.3551 53.8583 43.3977V43.5148H56.9644V43.3977C56.7091 43.3764 56.5176 43.2912 56.39 43.1422C56.273 42.9932 56.1985 42.8229 56.1666 42.6206C56.1347 42.4184 56.124 42.1523 56.124 41.8223V40.2256L59.9747 36.8618V41.9181C59.9641 42.3864 59.9109 42.7377 59.8258 42.9826Z" fill="#FFF"/>
<path d="M66.6238 34.4347C66.8684 34.5624 67.1237 34.6263 67.4003 34.6263C67.6875 34.6263 67.9534 34.5624 68.1874 34.4453C68.4215 34.3282 68.6129 34.1579 68.7512 33.9344C68.8895 33.7108 68.9852 33.4554 69.0172 33.168H68.8789C68.7087 33.3915 68.5066 33.5618 68.2832 33.7002C68.0598 33.8279 67.7726 33.9024 67.4109 33.9024C66.7833 33.9024 66.294 33.6576 65.943 33.1786H65.8047C65.8153 33.4554 65.9004 33.7002 66.06 33.9237C66.1876 34.1366 66.3791 34.3069 66.6238 34.4347Z" fill="#FFF"/>
<path d="M69.1344 42.9826C69.0387 43.2275 68.8047 43.3659 68.4324 43.3871V43.5042H71.5384V43.3871C71.2831 43.3552 71.0917 43.2701 70.9747 43.121C70.8577 42.972 70.7832 42.8017 70.7513 42.6101C70.7194 42.4185 70.7087 42.1524 70.6981 41.8117V36.6065C70.6981 36.3084 70.7087 36.0636 70.7406 35.872C70.7726 35.6804 70.847 35.5101 70.964 35.3823C71.081 35.2439 71.2725 35.1588 71.5384 35.1269V35.0098H68.4324V35.1269C68.8047 35.1588 69.0387 35.2546 69.1344 35.4036C69.2302 35.5526 69.2727 35.7443 69.2727 35.9784L65.422 39.3422V36.6171C65.422 36.2978 65.4326 36.0423 65.4645 35.8613C65.4965 35.6697 65.5709 35.5101 65.6879 35.3717C65.8049 35.2333 65.9964 35.1588 66.2623 35.1269V35.0098H63.1562V35.1269C63.5286 35.1801 63.7519 35.3291 63.8477 35.5952C63.9434 35.8613 63.9966 36.2233 63.9966 36.7023V41.9182C63.9966 42.2269 63.986 42.4717 63.954 42.6527C63.9221 42.8336 63.8477 43.0039 63.7307 43.1423C63.603 43.2807 63.4222 43.3659 63.1562 43.4084V43.5255H66.2623V43.4084C66.007 43.3871 65.8156 43.302 65.6879 43.153C65.5709 43.0039 65.4965 42.8336 65.4645 42.6314C65.4326 42.4291 65.422 42.163 65.422 41.833V40.2363L69.2727 36.8726V41.9288C69.2727 42.3865 69.2195 42.7378 69.1344 42.9826Z" fill="#FFF"/>
<path d="M81.7192 42.0567C81.9 41.7267 81.9851 41.3541 81.9851 40.939C81.9851 40.2364 81.7404 39.6935 81.2511 39.321C80.7618 38.9484 80.1023 38.6717 79.2938 38.5013C79.8257 38.3204 80.2831 38.0649 80.6873 37.7456C81.0915 37.4262 81.2937 37.043 81.2937 36.5959C81.2937 36.2447 81.1766 35.936 80.9533 35.6592C80.7299 35.3931 80.3682 35.1802 79.9002 35.0205C79.4215 34.8715 78.8258 34.797 78.1344 34.797C77.8472 34.797 77.5493 34.8183 77.2196 34.8608C76.9004 34.9034 76.6983 34.9247 76.6132 34.9247C76.3899 34.9247 76.2197 34.8502 76.1239 34.7012L75.2623 37.1175L75.3899 37.1707C75.5814 36.7769 75.8154 36.4576 76.0707 36.2127C76.326 35.9679 76.6239 35.7763 76.9643 35.6592C77.3047 35.5421 77.6982 35.4782 78.1344 35.4782C79.2194 35.4782 79.7619 35.8827 79.7619 36.713C79.7619 37.0643 79.613 37.3624 79.3258 37.6178C79.0385 37.8733 78.6556 38.0649 78.1769 38.1926C77.6982 38.3204 77.1877 38.3842 76.6452 38.3842V38.9803C77.5174 38.9803 78.2301 39.0442 78.7939 39.1613C79.3577 39.2784 79.7832 39.4807 80.0704 39.7681C80.3576 40.0555 80.5065 40.428 80.5065 40.907C80.5065 41.3648 80.3895 41.748 80.1661 42.0567C79.9427 42.3654 79.613 42.5996 79.1875 42.7486C78.762 42.8976 78.2514 42.9828 77.6557 42.9828C77.06 42.9828 76.5175 42.7912 76.0069 42.4186C75.507 42.046 75.1453 41.5989 74.9219 41.088L74.8262 41.1306L75.5495 43.6214C75.624 43.5789 75.7729 43.5576 75.9963 43.5576C76.1452 43.5576 76.4218 43.5682 76.8473 43.6002C77.2728 43.6321 77.5919 43.6427 77.8153 43.6427C78.4854 43.6427 79.0811 43.5789 79.613 43.4511C80.1342 43.3234 80.5703 43.1318 80.9214 42.8976C81.283 42.6847 81.549 42.3973 81.7192 42.0567Z" fill="#FFF"/>
<path d="M90.3767 43.0571C90.3235 42.9826 90.2703 42.8655 90.2065 42.7058C90.1427 42.5461 90.1001 42.461 90.1001 42.4503L87.8769 36.0848C87.8025 35.8612 87.7599 35.7016 87.7599 35.5845C87.7599 35.3397 87.8876 35.1906 88.1322 35.1161V34.999H85.2602V35.1161C85.5261 35.1587 85.6644 35.2971 85.6644 35.5313C85.6644 35.6803 85.6006 35.9358 85.4729 36.2764L83.388 41.7691C83.1859 42.3013 82.9944 42.7058 82.803 42.9719C82.7072 43.0997 82.6221 43.1955 82.5264 43.2487C82.4307 43.3019 82.303 43.3445 82.1328 43.3871V43.5042H84.7709V43.3871C84.5794 43.3764 84.4092 43.3019 84.2709 43.1742C84.1326 43.0464 84.0582 42.8868 84.0582 42.6845C84.0582 42.461 84.122 42.1523 84.2603 41.7691L85.0155 39.7146C85.5155 39.7253 85.9835 39.8104 86.4196 39.9808C86.8558 40.1511 87.2387 40.3746 87.5578 40.6514C87.8769 40.9281 88.1216 41.2262 88.3024 41.5455C88.4833 41.8649 88.5684 42.1736 88.5684 42.4716C88.5684 42.9826 88.3556 43.2806 87.9301 43.3764V43.4935H90.866V43.3764C90.7384 43.3445 90.6426 43.3019 90.5575 43.238C90.4937 43.2061 90.4193 43.1316 90.3767 43.0571ZM87.0792 39.5337C86.8026 39.3846 86.4941 39.2676 86.175 39.1824C85.8559 39.1079 85.5367 39.0653 85.2176 39.0653L86.3984 35.957L87.8344 40.0978C87.611 39.8849 87.3557 39.6933 87.0792 39.5337Z" fill="#FFF"/>
<path d="M93.2696 35.1162C93.5355 35.1481 93.6738 35.3078 93.6738 35.6059C93.6738 35.8081 93.6206 35.9784 93.5036 36.1381C93.0781 36.7555 92.7164 37.4261 92.4186 38.1606C92.1207 38.8951 91.8973 39.6083 91.7271 40.3108C91.5676 41.0134 91.4506 41.6414 91.3867 42.1843C91.3229 42.7272 91.291 43.1743 91.291 43.5149H93.5887V43.3978C93.1845 43.3552 92.8972 43.1849 92.7164 42.8868C92.5356 42.5888 92.4398 42.2482 92.4398 41.865C92.4398 41.1624 92.5249 40.4492 92.6951 39.7467C92.8653 39.0335 93.0781 38.3948 93.3334 37.8093C93.5993 37.2345 93.8652 36.7449 94.1524 36.351C94.5248 35.8507 95.0141 35.5952 95.6204 35.5952C96.0778 35.5952 96.3756 35.6804 96.4927 35.8507C96.6203 36.021 96.6735 36.3191 96.6735 36.7342V41.833C96.6735 42.163 96.6629 42.4291 96.6309 42.6314C96.599 42.8336 96.5246 43.0039 96.3969 43.153C96.2693 43.302 96.0778 43.3871 95.8225 43.4191V43.5255H98.9392V43.4084C98.6839 43.3765 98.4925 43.2807 98.3648 43.1423C98.2478 43.0039 98.1734 42.8443 98.1414 42.6527C98.1095 42.4717 98.0989 42.2269 98.0989 41.9182V36.7023C98.0989 36.2339 98.1521 35.872 98.2478 35.6059C98.3435 35.3398 98.5776 35.1801 98.9392 35.1269V35.0098H93.2483V35.1162H93.2696Z" fill="#FFF"/>
<path d="M105.152 35.1161C105.524 35.148 105.758 35.2439 105.843 35.3929C105.939 35.5419 105.982 35.7335 105.982 35.9677L102.131 39.3314V36.6064C102.131 36.287 102.142 36.0316 102.174 35.8506C102.205 35.659 102.28 35.4993 102.397 35.3609C102.514 35.2226 102.705 35.148 102.971 35.1161V34.999H99.8652V35.1161C100.238 35.1693 100.472 35.3184 100.567 35.5845C100.663 35.8506 100.716 36.2125 100.716 36.6915V41.9074C100.716 42.2161 100.706 42.461 100.674 42.6419C100.642 42.8229 100.567 42.9932 100.44 43.1316C100.312 43.27 100.131 43.3551 99.8652 43.3977V43.5148H102.971V43.3977C102.716 43.3764 102.525 43.2912 102.397 43.1422C102.28 42.9932 102.195 42.8229 102.174 42.6206C102.142 42.4184 102.131 42.1523 102.131 41.8223V40.2256L105.982 36.8618V41.9181C105.982 42.3971 105.939 42.759 105.843 43.0038C105.748 43.2487 105.514 43.3871 105.141 43.4083V43.5254H108.247V43.4083C107.992 43.3764 107.801 43.2912 107.684 43.1422C107.567 42.9932 107.492 42.8229 107.46 42.6313C107.428 42.4397 107.418 42.1736 107.407 41.8329V36.6277C107.407 36.3296 107.418 36.0848 107.45 35.8932C107.482 35.7016 107.556 35.5313 107.673 35.4035C107.79 35.2651 107.982 35.18 108.247 35.1481V35.031H105.152V35.1161Z" fill="#FFF"/>
<path d="M116.482 39.6186C116.216 39.2248 115.875 38.8948 115.45 38.6287C115.024 38.3626 114.567 38.1497 114.078 37.99C114.237 37.9048 114.439 37.7984 114.695 37.66C114.95 37.5216 115.163 37.3832 115.354 37.2342C115.546 37.0852 115.695 36.9149 115.822 36.7233C115.939 36.5317 116.003 36.3188 116.003 36.0846C116.003 35.7546 115.897 35.5098 115.673 35.3501C115.45 35.1904 115.195 35.084 114.907 35.0414C114.62 34.9988 114.29 34.9775 113.929 34.9775H109.184V35.0946C109.546 35.1479 109.78 35.2969 109.876 35.5524C109.972 35.8078 110.025 36.1804 110.025 36.67V41.886C110.025 42.1946 110.004 42.4395 109.972 42.6204C109.94 42.8014 109.865 42.9717 109.748 43.1101C109.631 43.2485 109.44 43.3336 109.174 43.3762V43.4933H112.418C113.088 43.4933 113.652 43.472 114.099 43.4294C114.546 43.3869 114.982 43.291 115.397 43.142C115.865 42.9611 116.237 42.6843 116.492 42.2904C116.748 41.8966 116.886 41.4495 116.886 40.9386C116.886 40.4596 116.748 40.0125 116.482 39.6186ZM111.44 36.67C111.44 36.2443 111.482 35.9675 111.567 35.8504C111.706 35.6801 112.131 35.5949 112.833 35.5949C113.29 35.5949 113.673 35.6375 113.982 35.7227C114.301 35.8078 114.461 36.0207 114.461 36.3401C114.461 36.67 114.29 36.9787 113.929 37.2449C113.578 37.5216 113.173 37.7452 112.727 37.9261C112.28 38.1071 111.844 38.2561 111.429 38.3732V36.67H111.44ZM115.163 41.7369C115.003 42.0456 114.78 42.3011 114.503 42.4821C114.046 42.7695 113.354 42.9078 112.45 42.9078C112.131 42.9078 111.908 42.8866 111.769 42.8227C111.631 42.7695 111.546 42.6737 111.503 42.5353C111.461 42.3969 111.44 42.184 111.44 41.8753V38.9799L113.397 38.2455C113.95 38.4796 114.429 38.8203 114.822 39.2567C115.216 39.7038 115.418 40.2041 115.418 40.747C115.407 41.1089 115.333 41.4282 115.163 41.7369Z" fill="#FFF"/>
<path d="M62.5393 23.8437C62.5393 23.2688 62.3797 21.6189 61.2202 17.5207C59.497 11.4745 51.402 5.69443 56.5079 2.70327C57.5823 2.07523 58.6141 2.24555 59.5608 2.67134C60.1033 2.93745 60.582 3.27808 60.7947 3.41647C61.6989 4.08708 61.9968 4.42771 62.1882 4.61932C62.0074 4.43836 61.6138 4.00192 61.3585 3.74645C61.3585 3.74645 59.5608 1.92621 58.3163 1.10656C57.3163 0.446593 55.9867 -0.213379 53.221 0.0740282C51.7956 0.223054 48.4342 1.3301 47.1896 4.76834C45.9982 8.07885 46.3812 11.1126 49.0299 14.8169C51.2956 17.9891 56.6675 21.0228 58.1673 21.8212C57.8908 21.6615 57.4653 21.4167 56.9547 21.0654C55.859 20.3522 54.3166 19.2239 52.6891 17.4568C49.4022 13.9015 50.1787 8.55786 50.6787 6.82277C51.2531 4.81092 52.4764 3.0439 54.1783 2.28813C52.2743 3.34195 51.7211 4.83221 51.8275 6.96115C51.9871 10.261 54.1145 12.0813 56.3483 13.9654C59.263 16.4243 60.5501 18.6065 61.1777 19.9158C61.9436 21.5338 62.4435 23.7266 62.5286 24.0672C62.5286 24.0246 62.5393 23.9607 62.5393 23.8649C62.5393 23.8649 62.5393 23.8543 62.5393 23.8437Z" fill="#FFF"/>
<path d="M62.5184 24.1191C62.5184 24.1089 62.5082 24.1089 62.498 24.0986C62.5184 24.1089 62.5184 24.1191 62.5184 24.1191Z" fill="#FFF"/>
<path d="M58.1777 21.8213C58.433 21.9597 58.5713 22.0342 58.5713 22.0342C58.5713 22.0342 58.4224 21.9597 58.1777 21.8213Z" fill="#FFF"/>
<path d="M62.5605 24.1191C62.5605 24.1191 62.5707 24.1089 62.5809 24.0986C62.5707 24.1089 62.5605 24.1089 62.5605 24.1191Z" fill="#FFF"/>
<path d="M77.877 4.76834C76.6431 1.3301 73.271 0.223054 71.8456 0.0740282C69.0906 -0.213379 67.7503 0.446593 66.7504 1.10656C65.5164 1.92621 63.7081 3.74645 63.7081 3.74645C63.4528 4.00193 63.0379 4.42771 62.8571 4.60867C63.0486 4.40642 63.3677 4.08708 64.2719 3.41647C64.4846 3.27809 64.9633 2.93745 65.5058 2.67134C66.4525 2.24555 67.4843 2.07523 68.5587 2.70327C73.6646 5.69443 65.559 11.4745 63.8464 17.5207C62.6763 21.6296 62.5273 23.2688 62.5273 23.8437C62.5273 23.8543 62.5273 23.865 62.5273 23.8756C62.5273 23.9714 62.538 24.0353 62.538 24.0778C62.6124 23.7372 63.1124 21.5444 63.8889 19.9264C64.5165 18.6171 65.8036 16.4349 68.7183 13.976C70.9521 12.0919 73.0796 10.2717 73.2391 6.9718C73.3455 4.84286 72.7924 3.3526 70.8883 2.29877C72.5902 3.05455 73.8135 4.82157 74.3879 6.83342C74.8879 8.56851 75.6644 13.9121 72.3775 17.4675C70.75 19.2345 69.2076 20.3628 68.1119 21.076C67.5907 21.4273 67.1759 21.6721 66.8993 21.8318C68.3991 21.0228 73.7603 17.9997 76.0367 14.8276C78.6748 11.1019 79.0684 8.07885 77.877 4.76834Z" fill="#FFF"/>
<path d="M66.8994 21.8213C66.6441 21.9597 66.5059 22.0342 66.5059 22.0342C66.5059 22.0342 66.6441 21.9597 66.8994 21.8213Z" fill="#FFF"/>
</g>
<defs>
<clipPath id="clip0">
<rect width="116.085" height="53" fill="white" transform="translate(0.800781)"/>
</clipPath>
</defs>
</svg>
