<?xml version="1.0" encoding="utf-8"?>
<!-- Generator: Adobe Illustrator 23.0.1, SVG Export Plug-In . SVG Version: 6.00 Build 0)  -->
<svg version="1.1" id="Layer_1" xmlns="http://www.w3.org/2000/svg" xmlns:xlink="http://www.w3.org/1999/xlink" x="0px" y="0px"
	 width="117px" height="53px" viewBox="0 0 117 53" enable-background="new 0 0 117 53" xml:space="preserve">
<rect x="0.8" fill="none" width="116.1" height="53"/>
<g>
	<path fill="#FFFFFF" d="M9,43.1C9,43,8.9,42.9,8.9,42.7c-0.1-0.2-0.1-0.2-0.1-0.3l-2.2-6.4c-0.1-0.2-0.1-0.4-0.1-0.5
		c0-0.2,0.1-0.4,0.4-0.5V35H3.9v0.1c0.3,0,0.4,0.2,0.4,0.4c0,0.1-0.1,0.4-0.2,0.7l-2.1,5.5c-0.2,0.5-0.4,0.9-0.6,1.2
		c-0.1,0.1-0.2,0.2-0.3,0.3c-0.1,0.1-0.2,0.1-0.4,0.1v0.1h2.6v-0.1c-0.2,0-0.4-0.1-0.5-0.2c-0.1-0.1-0.2-0.3-0.2-0.5
		c0-0.2,0.1-0.5,0.2-0.9l0.8-2.1c0.5,0,1,0.1,1.4,0.3c0.4,0.2,0.8,0.4,1.1,0.7c0.3,0.3,0.6,0.6,0.7,0.9c0.2,0.3,0.3,0.6,0.3,0.9
		c0,0.5-0.2,0.8-0.6,0.9v0.1h2.9v-0.1c-0.1,0-0.2-0.1-0.3-0.1C9.2,43.2,9.1,43.1,9,43.1z M5.7,39.5c-0.3-0.1-0.6-0.3-0.9-0.4
		c-0.3-0.1-0.6-0.1-1-0.1L5.1,36l1.4,4.1C6.3,39.9,6,39.7,5.7,39.5z"/>
	<path fill="#FFFFFF" d="M16.3,35.1c0.2,0,0.2,0.1,0.2,0.3c0,0.2-0.1,0.4-0.3,0.8l-1.5,2.4l-1.5-2.7c-0.1-0.2-0.2-0.4-0.2-0.5
		c0-0.1,0.1-0.2,0.2-0.2V35H10v0.1c0.4,0.1,0.6,0.2,0.7,0.5c0.1,0.3,0.1,0.6,0.1,1.1v5.2c0,0.3,0,0.6,0,0.7c0,0.2-0.1,0.3-0.2,0.5
		c-0.1,0.1-0.3,0.2-0.6,0.3v0.1h2.5v-0.1c-0.3,0-0.4-0.1-0.6-0.3c-0.1-0.1-0.2-0.3-0.2-0.5c0-0.2,0-0.5,0-0.8v-5.9l2.6,4.6l2.8-4.6
		v6c0,0.3,0,0.6,0,0.8S17,43,16.9,43.2c-0.1,0.1-0.3,0.2-0.6,0.2v0.1h3.1v-0.1c-0.3,0-0.4-0.1-0.6-0.3c-0.1-0.1-0.2-0.3-0.2-0.5
		c0-0.2,0-0.5,0-0.8v-5.2c0-0.3,0-0.6,0-0.7c0-0.2,0.1-0.3,0.2-0.5c0.1-0.1,0.3-0.2,0.6-0.3V35L16.3,35.1L16.3,35.1z"/>
	<path fill="#FFFFFF" d="M26.1,35.1c0.3,0,0.4,0.2,0.4,0.6c0,0.3-0.1,0.6-0.3,1L24.9,40L23,36.7c-0.3-0.6-0.5-1-0.5-1.2
		c0-0.2,0.1-0.3,0.3-0.3V35h-2.8v0.1c0.2,0,0.4,0.1,0.6,0.4c0.2,0.2,0.4,0.6,0.7,1l3,4.9c-0.4,0.9-0.9,1.4-1.4,1.5
		c-0.7,0-1.1-0.5-1.1-1.4c0-0.3,0-0.6,0.1-0.9l-0.1,0l-1,2.3c0.5,0.5,1.1,0.7,1.7,0.7c0.1,0,0.3,0,0.4,0c0.9-0.1,1.6-0.9,2.2-2.3
		l2.2-4.9c0.2-0.4,0.4-0.7,0.5-1c0.1-0.2,0.4-0.4,0.6-0.4V35h-2.3L26.1,35.1L26.1,35.1z"/>
	<path fill="#FFFFFF" d="M35,35.3c-0.4-0.2-0.9-0.3-1.5-0.3h-4.7v0.1c0.3,0,0.4,0.1,0.6,0.3c0.1,0.1,0.2,0.3,0.2,0.5
		c0,0.2,0,0.5,0,0.8v5.2c0,0.3,0,0.6,0,0.7c0,0.2-0.1,0.3-0.2,0.5c-0.1,0.1-0.3,0.2-0.6,0.3v0.1h3.1v-0.1c-0.3,0-0.4-0.1-0.6-0.3
		c-0.1-0.1-0.2-0.3-0.2-0.5c0-0.2,0-0.5,0-0.8v-2.2c0.5-0.1,0.9-0.3,1.4-0.4c0.5-0.2,1-0.4,1.4-0.6c0.5-0.3,0.9-0.6,1.2-0.9
		c0.3-0.3,0.5-0.7,0.5-1.1C35.6,35.9,35.4,35.5,35,35.3z M31,39v-2.1c0-0.4,0-0.6,0.1-0.8c0-0.2,0.1-0.3,0.3-0.4s0.4-0.1,0.8-0.1
		c0.6,0,1.1,0.1,1.4,0.2c0.3,0.1,0.5,0.4,0.5,0.8C34.1,37.5,33.1,38.3,31,39z"/>
	<path fill="#FFFFFF" d="M41.6,43c-0.6,0-1.1-0.1-1.6-0.3c-0.5-0.2-0.9-0.5-1.2-0.9c-0.4-0.4-0.6-0.9-0.8-1.4
		c-0.2-0.5-0.3-1.1-0.3-1.6c0-0.4,0.1-0.9,0.2-1.3c0.1-0.4,0.4-0.8,0.6-1.1c0.3-0.3,0.6-0.5,0.9-0.7c0.3-0.1,0.7-0.2,1.2-0.2
		c0.4,0,0.8,0.1,1.2,0.2c0.4,0.1,0.7,0.3,1,0.6c0.3,0.3,0.5,0.6,0.7,0.9l0.1,0L43,34.7c-0.1,0.2-0.3,0.3-0.5,0.3l-0.4,0l-1.4-0.1
		c-0.6,0-1.2,0.1-1.8,0.2c-0.5,0.1-1,0.4-1.5,0.8c-0.4,0.4-0.7,0.8-1,1.3c-0.2,0.5-0.3,1.1-0.3,1.7c0,0.5,0.1,0.9,0.2,1.4
		c0.1,0.4,0.3,0.9,0.6,1.3c0.3,0.4,0.6,0.7,0.9,1c0.9,0.8,2.2,1.2,3.8,1.2l1.6-0.1c0.2,0,0.3,0,0.4,0l1-2.6L44.4,41
		C43.8,42.3,42.9,43,41.6,43z"/>
	<path fill="#FFFFFF" d="M53.1,43.1c-0.1-0.2-0.3-0.5-0.4-0.9l-0.2-0.6c-0.7-1.8-1.7-3.3-2.9-4.4l1-0.8c0.4-0.3,0.7-0.5,0.9-0.7
		c0.2-0.1,0.4-0.3,0.7-0.4c0.3-0.1,0.6-0.2,0.9-0.2V35h-3.1v0.1c0.2,0,0.4,0.1,0.4,0.3c0,0.2-0.2,0.5-0.5,0.8
		c-0.3,0.3-0.7,0.7-1.2,1.1l-1.1,0.9v-1.6c0-0.5,0-0.8,0.1-1.1c0.1-0.2,0.3-0.4,0.7-0.4V35H45v0.1c0.4,0.1,0.6,0.2,0.7,0.5
		c0.1,0.3,0.1,0.6,0.1,1.1v5.2c0,0.3,0,0.6,0,0.7c0,0.2-0.1,0.3-0.2,0.5c-0.1,0.1-0.3,0.2-0.6,0.3v0.1h3.1v-0.1
		c-0.3,0-0.4-0.1-0.6-0.3c-0.1-0.1-0.2-0.3-0.2-0.5c0-0.2,0-0.5,0-0.8V39l1.2-1c0.7,0.8,1.3,1.6,1.7,2.3c0.2,0.4,0.4,0.8,0.6,1.3
		c0.2,0.5,0.3,0.9,0.3,1.2c0,0.3-0.1,0.5-0.4,0.5v0.1h2.8v-0.1C53.4,43.4,53.2,43.2,53.1,43.1z"/>
	<path fill="#FFFFFF" d="M59.8,43c-0.1,0.2-0.3,0.4-0.7,0.4v0.1h3.1v-0.1c-0.3,0-0.4-0.1-0.6-0.3c-0.1-0.1-0.2-0.3-0.2-0.5
		c0-0.2,0-0.5-0.1-0.8v-5.2c0-0.3,0-0.5,0-0.7c0-0.2,0.1-0.4,0.2-0.5c0.1-0.1,0.3-0.2,0.6-0.3V35h-3.1v0.1c0.4,0,0.6,0.1,0.7,0.3
		c0.1,0.1,0.1,0.3,0.1,0.6l-3.9,3.4v-2.7c0-0.3,0-0.6,0-0.8c0-0.2,0.1-0.4,0.2-0.5c0.1-0.1,0.3-0.2,0.6-0.2V35h-3.1v0.1
		c0.4,0.1,0.6,0.2,0.7,0.5c0.1,0.3,0.1,0.6,0.1,1.1v5.2c0,0.3,0,0.6,0,0.7c0,0.2-0.1,0.4-0.2,0.5c-0.1,0.1-0.3,0.2-0.6,0.3v0.1H57
		v-0.1c-0.3,0-0.4-0.1-0.6-0.3c-0.1-0.1-0.2-0.3-0.2-0.5c0-0.2,0-0.5,0-0.8v-1.6l3.9-3.4v5.1C60,42.4,59.9,42.7,59.8,43z"/>
	<path fill="#FFFFFF" d="M66.6,34.4c0.2,0.1,0.5,0.2,0.8,0.2c0.3,0,0.6-0.1,0.8-0.2c0.2-0.1,0.4-0.3,0.6-0.5
		c0.1-0.2,0.2-0.5,0.3-0.8h-0.1c-0.2,0.2-0.4,0.4-0.6,0.5c-0.2,0.1-0.5,0.2-0.9,0.2c-0.6,0-1.1-0.2-1.5-0.7h-0.1
		c0,0.3,0.1,0.5,0.3,0.7C66.2,34.1,66.4,34.3,66.6,34.4z"/>
	<path fill="#FFFFFF" d="M69.1,43c-0.1,0.2-0.3,0.4-0.7,0.4v0.1h3.1v-0.1c-0.3,0-0.4-0.1-0.6-0.3c-0.1-0.1-0.2-0.3-0.2-0.5
		c0-0.2,0-0.5-0.1-0.8v-5.2c0-0.3,0-0.5,0-0.7c0-0.2,0.1-0.4,0.2-0.5c0.1-0.1,0.3-0.2,0.6-0.3V35h-3.1v0.1c0.4,0,0.6,0.1,0.7,0.3
		c0.1,0.1,0.1,0.3,0.1,0.6l-3.9,3.4v-2.7c0-0.3,0-0.6,0-0.8c0-0.2,0.1-0.4,0.2-0.5c0.1-0.1,0.3-0.2,0.6-0.2V35h-3.1v0.1
		c0.4,0.1,0.6,0.2,0.7,0.5c0.1,0.3,0.1,0.6,0.1,1.1v5.2c0,0.3,0,0.6,0,0.7c0,0.2-0.1,0.4-0.2,0.5c-0.1,0.1-0.3,0.2-0.6,0.3v0.1h3.1
		v-0.1c-0.3,0-0.4-0.1-0.6-0.3c-0.1-0.1-0.2-0.3-0.2-0.5c0-0.2,0-0.5,0-0.8v-1.6l3.9-3.4v5.1C69.3,42.4,69.2,42.7,69.1,43z"/>
	<path fill="#FFFFFF" d="M81.7,42.1c0.2-0.3,0.3-0.7,0.3-1.1c0-0.7-0.2-1.2-0.7-1.6c-0.5-0.4-1.1-0.6-2-0.8c0.5-0.2,1-0.4,1.4-0.8
		c0.4-0.3,0.6-0.7,0.6-1.1c0-0.4-0.1-0.7-0.3-0.9c-0.2-0.3-0.6-0.5-1.1-0.6c-0.5-0.1-1.1-0.2-1.8-0.2c-0.3,0-0.6,0-0.9,0.1
		c-0.3,0-0.5,0.1-0.6,0.1c-0.2,0-0.4-0.1-0.5-0.2l-0.9,2.4l0.1,0.1c0.2-0.4,0.4-0.7,0.7-1c0.3-0.2,0.6-0.4,0.9-0.6s0.7-0.2,1.2-0.2
		c1.1,0,1.6,0.4,1.6,1.2c0,0.4-0.1,0.6-0.4,0.9c-0.3,0.3-0.7,0.4-1.1,0.6c-0.5,0.1-1,0.2-1.5,0.2V39c0.9,0,1.6,0.1,2.1,0.2
		s1,0.3,1.3,0.6c0.3,0.3,0.4,0.7,0.4,1.1c0,0.5-0.1,0.8-0.3,1.1c-0.2,0.3-0.6,0.5-1,0.7S78.3,43,77.7,43s-1.1-0.2-1.6-0.6
		c-0.5-0.4-0.9-0.8-1.1-1.3l-0.1,0l0.7,2.5c0.1,0,0.2-0.1,0.4-0.1c0.1,0,0.4,0,0.9,0c0.4,0,0.7,0,1,0c0.7,0,1.3-0.1,1.8-0.2
		c0.5-0.1,1-0.3,1.3-0.6C81.3,42.7,81.5,42.4,81.7,42.1z"/>
	<path fill="#FFFFFF" d="M90.4,43.1c-0.1-0.1-0.1-0.2-0.2-0.4c-0.1-0.2-0.1-0.2-0.1-0.3l-2.2-6.4c-0.1-0.2-0.1-0.4-0.1-0.5
		c0-0.2,0.1-0.4,0.4-0.5V35h-2.9v0.1c0.3,0,0.4,0.2,0.4,0.4c0,0.1-0.1,0.4-0.2,0.7l-2.1,5.5c-0.2,0.5-0.4,0.9-0.6,1.2
		c-0.1,0.1-0.2,0.2-0.3,0.3c-0.1,0.1-0.2,0.1-0.4,0.1v0.1h2.6v-0.1c-0.2,0-0.4-0.1-0.5-0.2c-0.1-0.1-0.2-0.3-0.2-0.5
		c0-0.2,0.1-0.5,0.2-0.9l0.8-2.1c0.5,0,1,0.1,1.4,0.3c0.4,0.2,0.8,0.4,1.1,0.7c0.3,0.3,0.6,0.6,0.7,0.9c0.2,0.3,0.3,0.6,0.3,0.9
		c0,0.5-0.2,0.8-0.6,0.9v0.1h2.9v-0.1c-0.1,0-0.2-0.1-0.3-0.1C90.5,43.2,90.4,43.1,90.4,43.1z M87.1,39.5c-0.3-0.1-0.6-0.3-0.9-0.4
		c-0.3-0.1-0.6-0.1-1-0.1l1.2-3.1l1.4,4.1C87.6,39.9,87.4,39.7,87.1,39.5z"/>
	<path fill="#FFFFFF" d="M93.3,35.1c0.3,0,0.4,0.2,0.4,0.5c0,0.2-0.1,0.4-0.2,0.5c-0.4,0.6-0.8,1.3-1.1,2c-0.3,0.7-0.5,1.4-0.7,2.2
		c-0.2,0.7-0.3,1.3-0.3,1.9c-0.1,0.5-0.1,1-0.1,1.3h2.3v-0.1c-0.4,0-0.7-0.2-0.9-0.5c-0.2-0.3-0.3-0.6-0.3-1c0-0.7,0.1-1.4,0.3-2.1
		c0.2-0.7,0.4-1.4,0.6-1.9c0.3-0.6,0.5-1.1,0.8-1.5c0.4-0.5,0.9-0.8,1.5-0.8c0.5,0,0.8,0.1,0.9,0.3c0.1,0.2,0.2,0.5,0.2,0.9v5.1
		c0,0.3,0,0.6,0,0.8c0,0.2-0.1,0.4-0.2,0.5c-0.1,0.1-0.3,0.2-0.6,0.3v0.1h3.1v-0.1c-0.3,0-0.4-0.1-0.6-0.3c-0.1-0.1-0.2-0.3-0.2-0.5
		c0-0.2,0-0.4,0-0.7v-5.2c0-0.5,0.1-0.8,0.1-1.1c0.1-0.3,0.3-0.4,0.7-0.5V35h-5.7L93.3,35.1L93.3,35.1z"/>
	<path fill="#FFFFFF" d="M105.2,35.1c0.4,0,0.6,0.1,0.7,0.3c0.1,0.1,0.1,0.3,0.1,0.6l-3.9,3.4v-2.7c0-0.3,0-0.6,0-0.8
		c0-0.2,0.1-0.4,0.2-0.5c0.1-0.1,0.3-0.2,0.6-0.2V35h-3.1v0.1c0.4,0.1,0.6,0.2,0.7,0.5c0.1,0.3,0.1,0.6,0.1,1.1v5.2
		c0,0.3,0,0.6,0,0.7c0,0.2-0.1,0.4-0.2,0.5c-0.1,0.1-0.3,0.2-0.6,0.3v0.1h3.1v-0.1c-0.3,0-0.4-0.1-0.6-0.3c-0.1-0.1-0.2-0.3-0.2-0.5
		c0-0.2,0-0.5,0-0.8v-1.6l3.9-3.4v5.1c0,0.5,0,0.8-0.1,1.1c-0.1,0.2-0.3,0.4-0.7,0.4v0.1h3.1v-0.1c-0.3,0-0.4-0.1-0.6-0.3
		c-0.1-0.1-0.2-0.3-0.2-0.5c0-0.2,0-0.5-0.1-0.8v-5.2c0-0.3,0-0.5,0-0.7c0-0.2,0.1-0.4,0.2-0.5c0.1-0.1,0.3-0.2,0.6-0.3V35
		L105.2,35.1L105.2,35.1z"/>
	<path fill="#FFFFFF" d="M116.5,39.6c-0.3-0.4-0.6-0.7-1-1c-0.4-0.3-0.9-0.5-1.4-0.6c0.2-0.1,0.4-0.2,0.6-0.3
		c0.3-0.1,0.5-0.3,0.7-0.4c0.2-0.1,0.3-0.3,0.5-0.5c0.1-0.2,0.2-0.4,0.2-0.6c0-0.3-0.1-0.6-0.3-0.7c-0.2-0.2-0.5-0.3-0.8-0.3
		c-0.3,0-0.6-0.1-1-0.1h-4.7v0.1c0.4,0.1,0.6,0.2,0.7,0.5c0.1,0.3,0.1,0.6,0.1,1.1v5.2c0,0.3,0,0.6-0.1,0.7c0,0.2-0.1,0.4-0.2,0.5
		c-0.1,0.1-0.3,0.2-0.6,0.3v0.1h3.2c0.7,0,1.2,0,1.7-0.1c0.4,0,0.9-0.1,1.3-0.3c0.5-0.2,0.8-0.5,1.1-0.9c0.3-0.4,0.4-0.8,0.4-1.4
		C116.9,40.5,116.7,40,116.5,39.6z M111.4,36.7c0-0.4,0-0.7,0.1-0.8c0.1-0.2,0.6-0.3,1.3-0.3c0.5,0,0.8,0,1.1,0.1
		c0.3,0.1,0.5,0.3,0.5,0.6c0,0.3-0.2,0.6-0.5,0.9c-0.4,0.3-0.8,0.5-1.2,0.7c-0.4,0.2-0.9,0.3-1.3,0.4L111.4,36.7L111.4,36.7z
		 M115.2,41.7c-0.2,0.3-0.4,0.6-0.7,0.7c-0.5,0.3-1.1,0.4-2.1,0.4c-0.3,0-0.5,0-0.7-0.1c-0.1-0.1-0.2-0.1-0.3-0.3
		c0-0.1-0.1-0.4-0.1-0.7V39l2-0.7c0.6,0.2,1,0.6,1.4,1c0.4,0.4,0.6,0.9,0.6,1.5C115.4,41.1,115.3,41.4,115.2,41.7z"/>
	<path fill="#FFFFFF" d="M62.5,23.8c0-0.6-0.2-2.2-1.3-6.3c-1.7-6-9.8-11.8-4.7-14.8c1.1-0.6,2.1-0.5,3.1,0c0.5,0.3,1,0.6,1.2,0.7
		c0.9,0.7,1.2,1,1.4,1.2C62,4.4,61.6,4,61.4,3.7c0,0-1.8-1.8-3-2.6c-1-0.7-2.3-1.3-5.1-1c-1.4,0.1-4.8,1.3-6,4.7
		c-1.2,3.3-0.8,6.3,1.8,10c2.3,3.2,7.6,6.2,9.1,7c-0.3-0.2-0.7-0.4-1.2-0.8c-1.1-0.7-2.6-1.8-4.3-3.6c-3.3-3.6-2.5-8.9-2-10.6
		c0.6-2,1.8-3.8,3.5-4.5c-1.9,1.1-2.5,2.5-2.4,4.7c0.2,3.3,2.3,5.1,4.5,7c2.9,2.5,4.2,4.6,4.8,6c0.8,1.6,1.3,3.8,1.4,4.2
		C62.5,24,62.5,24,62.5,23.8C62.5,23.9,62.5,23.9,62.5,23.8z"/>
	<path fill="#FFFFFF" d="M62.5,24.1C62.5,24.1,62.5,24.1,62.5,24.1C62.5,24.1,62.5,24.1,62.5,24.1z"/>
	<path fill="#FFFFFF" d="M58.2,21.8c0.3,0.1,0.4,0.2,0.4,0.2S58.4,22,58.2,21.8z"/>
	<path fill="#FFFFFF" d="M62.6,24.1C62.6,24.1,62.6,24.1,62.6,24.1C62.6,24.1,62.6,24.1,62.6,24.1z"/>
	<path fill="#FFFFFF" d="M77.9,4.8c-1.2-3.4-4.6-4.5-6-4.7c-2.8-0.3-4.1,0.4-5.1,1c-1.2,0.8-3,2.6-3,2.6C63.5,4,63,4.4,62.9,4.6
		c0.2-0.2,0.5-0.5,1.4-1.2c0.2-0.1,0.7-0.5,1.2-0.7c0.9-0.4,2-0.6,3.1,0c5.1,3-3,8.8-4.7,14.8c-1.2,4.1-1.3,5.7-1.3,6.3c0,0,0,0,0,0
		c0,0.1,0,0.2,0,0.2c0.1-0.3,0.6-2.5,1.4-4.2c0.6-1.3,1.9-3.5,4.8-6c2.2-1.9,4.4-3.7,4.5-7c0.1-2.1-0.4-3.6-2.4-4.7
		c1.7,0.8,2.9,2.5,3.5,4.5c0.5,1.7,1.3,7.1-2,10.6c-1.6,1.8-3.2,2.9-4.3,3.6c-0.5,0.4-0.9,0.6-1.2,0.8c1.5-0.8,6.9-3.8,9.1-7
		C78.7,11.1,79.1,8.1,77.9,4.8z"/>
	<path fill="#FFFFFF" d="M66.9,21.8C66.6,22,66.5,22,66.5,22S66.6,22,66.9,21.8z"/>
</g>
</svg>
