<svg width="10" height="15" viewBox="0 0 10 15" fill="none" xmlns="http://www.w3.org/2000/svg">
<path d="M2.78143 13.8425L8.81325 8.25298C9.03588 8.04667 9.15 7.77398 9.15 7.50144C9.15 7.22628 9.03608 6.95351 8.81325 6.74703L2.78187 1.15793C2.78179 1.15785 2.78172 1.15778 2.78164 1.15771C2.34228 0.747496 1.6293 0.74743 1.18986 1.15751C0.740795 1.57074 0.740854 2.25047 1.19003 2.66363C1.19012 2.66371 1.19021 2.66379 1.1903 2.66387L6.40453 7.50137L1.1872 12.3361C1.1871 12.3362 1.187 12.3363 1.18691 12.3364C0.737341 12.7499 0.738106 13.4267 1.18675 13.8425C1.62922 14.2525 2.33896 14.2525 2.78143 13.8425Z" fill="#203260" stroke="white" stroke-width="0.3"/>
</svg>
