<svg width="10" height="15" viewBox="0 0 10 15" fill="none" xmlns="http://www.w3.org/2000/svg">
<path d="M7.21857 13.8425L1.18675 8.25298C0.964119 8.04667 0.85 7.77398 0.85 7.50144C0.85 7.22628 0.963924 6.95351 1.18675 6.74703L7.21813 1.15793C7.21821 1.15785 7.21828 1.15778 7.21836 1.15771C7.65772 0.747496 8.3707 0.74743 8.81014 1.15751C9.25921 1.57074 9.25915 2.25047 8.80997 2.66363C8.80988 2.66371 8.80979 2.66379 8.8097 2.66387L3.59547 7.50137L8.8128 12.3361C8.8129 12.3362 8.813 12.3363 8.81309 12.3364C9.26266 12.7499 9.26189 13.4267 8.81325 13.8425C8.37078 14.2525 7.66104 14.2525 7.21857 13.8425Z" fill="#203260" stroke="white" stroke-width="0.3"/>
</svg>
