<?xml version="1.0" encoding="utf-8"?>
<!-- Generator: Adobe Illustrator 23.0.1, SVG Export Plug-In . SVG Version: 6.00 Build 0)  -->
<svg version="1.1" id="Layer_1" xmlns="http://www.w3.org/2000/svg" xmlns:xlink="http://www.w3.org/1999/xlink" x="0px" y="0px"
	 width="97px" height="33px" viewBox="0 0 97 33" enable-background="new 0 0 97 33" xml:space="preserve">
<rect x="0.6" fill="none" width="96.1" height="33"/>
<g>
	<path fill="#FFFFFF" d="M0.6,0c1.6,0.2,3.1,0.5,4.7,0.7c4.1,0.5,8.1,1.1,12.2,1.6c3.5,0.4,7,0.8,10.5,1.2c1.5,0.1,3,0.2,4.5,0.3
		c0.7,0.1,1.5,0.2,2.2,0.4c1,0.3,1.8,0.8,2.4,1.7c5.1-7.8,18.5-7.8,23.6,0c1.1-1.6,2.8-1.9,4.5-2.1c6.1-0.6,12.3-1.2,18.4-1.9
		c4.3-0.5,8.5-1.2,12.8-1.7c0.1,0,0.1,0,0.4,0c-0.1,0.4-0.2,0.8-0.4,1.1c-1.2,2-3,3.3-5,4.4C91,5.7,90.7,6,90.6,6.3
		c-1,2.6-2.9,4.4-5.4,5.5c-1,0.4-1.6,0.9-2.2,1.9c-1.2,2-3.2,3-5.5,3.4c-0.8,0.1-1.5,0.4-2.1,1.1c-1.2,1.3-2.8,1.9-4.5,1.9
		c-0.4,0-0.6,0.1-0.8,0.4c-1.1,1.2-2.4,1.8-4.1,1.4c-0.1,0-0.4,0-0.5,0.1c-1.1,1.1-3,1-4.4-0.1c-0.5-0.4-0.9-0.8-1.3-1.3
		c-0.8-0.8-1.6-1.1-2.7-0.3c-4.7,3.4-11.8,3.4-16.7,0c-1.1-0.8-1.9-0.6-2.8,0.4c-0.5,0.5-1,1-1.6,1.5c-1.1,0.8-2.9,1-4-0.1
		c-0.1-0.1-0.4-0.1-0.5-0.1c-1.6,0.4-2.9-0.1-4-1.3c-0.3-0.3-0.5-0.4-0.9-0.4c-2,0-3.7-0.9-5-2.4c-0.2-0.2-0.5-0.4-0.8-0.4
		c-3-0.4-5.5-1.6-6.9-4.6c-0.1-0.2-0.4-0.3-0.6-0.4c-2.1-0.8-4-1.9-5.3-3.8C7.5,7.7,7.2,7,6.8,6.3C6.7,6,6.5,5.7,6.2,5.6
		C4.1,4.5,2.2,3,1,0.8C0.9,0.6,0.7,0.3,0.6,0z M33.8,20c0,0.2,0,0.4,0,0.5c0.4,0.8,1.9,1,2.5,0.4c0.5-0.5,1-1.1,1.4-1.7
		c0.6-0.8,0.6-0.8,0-1.6c-2.5-3.2-3.1-6.7-1.4-10.5c0.2-0.4,0.1-0.6-0.1-0.9c-0.8-1.1-2-1.5-3.3-1.6c-2.9-0.3-5.8-0.5-8.7-0.8
		c-3.7-0.4-7.3-0.8-11-1.2C11.9,2.5,10.5,2.3,9,2.1c0.1,0.3,0.1,0.5,0.2,0.8c0.6,1.4,1.4,2.5,2.5,3.5c0.2,0.2,0.5,0.4,0.8,0.5
		c3.2,0.9,6.5,1.3,9.8,1.5c1.8,0.1,3.7,0.2,5.5,0.3C23.3,9,18.7,8.8,14,8c0.1,0.3,0.2,0.5,0.3,0.6c0.8,1.5,2,2.6,3.4,3.5
		c0.4,0.2,0.9,0.4,1.3,0.5c1.7,0,3.3,0,5,0c0.9,0,1.8-0.2,2.8-0.3c0,0.1,0,0.1,0,0.2c-2.3,0.3-4.6,0.5-6.9,0.8
		c0.8,2,3.6,3.4,5.8,2.9c1.2-0.3,2.4-0.6,3.7-0.9c0,0,0,0.1,0,0.1c-1.3,0.5-2.7,0.9-4,1.4c0.8,1.1,1.9,1.7,3.1,2
		c0.4,0.1,0.9,0.1,1.3-0.1c0.8-0.3,1.6-0.7,2.5-1.1c-0.3,0.3-0.6,0.5-1,0.7c-0.4,0.2-0.7,0.4-1.1,0.7C31.1,20.3,32.7,20.7,33.8,20z
		 M83.4,8.1c-2.4,0.2-4.7,0.5-7,0.6c-2.3,0.1-4.7,0-7,0c1.3-0.1,2.5-0.2,3.8-0.3C76.6,8.3,80,8,83.4,7.2c0.7-0.2,1.5-0.2,2.1-0.6
		c1.4-1.1,2.5-2.6,3-4.5c-1.1,0.1-2.2,0.3-3.3,0.4C80.8,3,76.4,3.5,71.9,4c-2.5,0.2-4.9,0.4-7.4,0.6c-1.2,0.1-2.4,0.5-3.3,1.5
		C61,6.5,61,6.8,61.2,7.2c1.2,2.6,1.3,5.2,0.1,7.8c-0.5,1.2-1.3,2.3-2.1,3.5c0.1,0.2,0.4,0.6,0.6,0.9c0.3,0.4,0.6,0.8,1,1.2
		c0.9,0.9,2.2,0.8,2.9-0.3c-0.1-0.2-0.3-0.4-0.5-0.6c0.6,0.5,1.3,0.8,2.1,0.5c0.8-0.2,1.5-0.5,1.9-1.2c-0.7-0.4-1.4-0.9-2.1-1.3
		c1.3,0.3,2.3,1.5,3.7,1.1c1.3-0.3,2.5-0.9,3.2-2.1c-1.4-0.5-2.7-0.9-4-1.4c1,0.1,2,0.4,3,0.7c0.8,0.2,1.7,0.4,2.4,0.2
		c1.2-0.2,2.4-0.9,3.2-1.9c0.3-0.3,0.6-0.8,0.8-1.1c-2.4-0.3-4.7-0.6-7-0.8c0-0.1,0-0.1,0-0.2c0.1,0,0.3,0,0.4,0
		c1.5,0.1,3,0.3,4.5,0.4c1.8,0,3.6,0.2,5.1-1.2C81.8,10.5,82.9,9.5,83.4,8.1z M48.3,21.8c3.7,0,6.6-1,9.2-3.1c4.5-3.7,4.9-9.8,1-14
		c-4.9-5.2-14.2-5.3-19.2-0.2c-3.9,3.9-3.9,9.6,0,13.5C41.8,20.6,45.1,21.7,48.3,21.8z M89.8,6.3c-1.5,0.4-2.8,0.8-4.2,1.2
		c-0.1,0-0.2,0.2-0.3,0.4c-0.7,1.5-1.8,2.7-3.3,3.6c-0.4,0.2-0.8,0.4-1.2,0.6C84.7,11.5,88.1,10.2,89.8,6.3z M7.7,6.3
		c0.9,2.9,5.9,6.3,8.7,5.8c-2-0.9-3.5-2.3-4.3-4.3c0-0.1-0.2-0.2-0.3-0.2C10.4,7.1,9.1,6.7,7.7,6.3z M87.5,6.1c3-1,6-2.3,8-5.1
		c-1.4,0.2-2.8,0.5-4.1,0.7c-0.6,0.1-1,0.3-1.2,0.9c-0.1,0.3-0.3,0.7-0.5,1C89,4.4,88.2,5.3,87.5,6.1z M2,1c1.2,2,5.3,4.6,8.1,5.1
		c0,0,0-0.1,0-0.1C8.7,5,7.5,3.7,7,2c0-0.1-0.2-0.2-0.3-0.2C5.1,1.5,3.6,1.2,2,1z M14.8,12.7c1.1,2.6,4.2,4,8.1,3.8
		c-0.2-0.1-0.3-0.1-0.4-0.1c-1.8-0.4-3.3-1.3-4.2-3c0-0.1-0.2-0.2-0.3-0.2C17,13,15.9,12.8,14.8,12.7z M82.7,12.6
		c-1.1,0.2-2.2,0.3-3.2,0.5c-0.1,0-0.3,0.2-0.3,0.3c-0.5,1.1-1.4,1.8-2.5,2.3c-0.6,0.3-1.3,0.5-2,0.7C78.3,16.6,81.2,15.5,82.7,12.6
		z M75.3,17.2c-0.4,0-0.8,0-1.2-0.1c-0.5-0.1-0.7,0-1.1,0.4c-0.4,0.4-0.9,0.8-1.4,1c-0.8,0.3-1.7,0.5-2.4,0.8
		C71.5,19.7,74.3,18.8,75.3,17.2z M22.2,17.2c0.9,1.6,4.1,2.6,6.2,1.9c-1.7-0.2-3.2-0.6-4.3-2C24.1,17,23.9,17,23.8,17
		C23.3,17,22.8,17.1,22.2,17.2z M32.7,20.6c-1.9,0-1.9,0-3.4-1c-0.1-0.1-0.2-0.1-0.3-0.1c-0.3,0.1-0.7,0.2-1,0.3
		C29,21.3,31.1,21.7,32.7,20.6z M64.8,20.7c1.5,1.1,4.1,0.6,4.6-0.8c-0.7-0.4-1.3-0.4-1.9,0.2c-0.2,0.2-0.5,0.3-0.8,0.4
		C66.1,20.6,65.5,20.6,64.8,20.7z M64.4,20.8c0,0.1,0,0.1,0,0.2c-0.7,0.2-1.4,0.5-2,0.7c1.1,0.4,2.1,0.3,2.6-0.4
		C64.9,21.1,64.7,21,64.4,20.8z M32.4,21.3c0.7,0.7,1.9,0.9,2.6,0.4c-0.6-0.2-1.3-0.5-2-0.8C32.8,21,32.6,21.1,32.4,21.3z"/>
	<path fill="#FFFFFF" d="M94.3,26.6c0.8,0,1.5,0,2.1,0c-0.3,2.1-0.3,4.1,0,6.2c-0.7,0-1.3,0-1.9,0c0.1-1.1,0.2-2.3,0.2-3.6
		c-0.6,0.3-1.1,0.5-1.5,0.8c-0.3,0.1-0.5,0.3-0.8,0.4c-1.1,0.6-1.2,0.9-0.7,2.1c0,0.1,0,0.2,0.1,0.4c-0.4,0-0.7,0-1.1,0
		c-0.3,0-0.7,0-1,0c0.3-2.1,0.4-4.1,0-6.2c0.6,0,1.3,0,1.9,0c-0.1,0.8-0.2,1.7-0.3,2.7c1.2-0.6,2.2-1.1,3.1-1.6
		c0.1,0,0.1-0.4,0.1-0.5C94.6,27,94.4,26.9,94.3,26.6z"/>
	<path fill="#FFFFFF" d="M79.6,32.8c0.1-1.1,0.1-2.3,0.2-3.6c-1.2,0.6-2.2,1.1-3.2,1.7c-0.2,0.1,0,0.9,0,1.4c0,0.2,0.1,0.3,0.2,0.5
		c-0.8,0-1.4,0-2.1,0c0.3-2,0.3-4.1,0-6.2c0.6,0,1.3,0,1.9,0c-0.1,0.8-0.2,1.7-0.3,2.7c0.6-0.3,1.1-0.6,1.6-0.8
		c0.4-0.2,0.8-0.5,1.3-0.6c0.5-0.2,0.6-0.5,0.3-0.9c-0.1-0.1-0.1-0.2-0.1-0.4c0.7,0,1.4,0,2.1,0c-0.3,2.1-0.3,4.1,0,6.2
		C80.8,32.8,80.2,32.8,79.6,32.8z"/>
	<path fill="#FFFFFF" d="M44.1,29.4c1.2-0.6,2.2-1.1,3.1-1.6c0.1,0,0.1-0.3,0.1-0.5c0-0.2-0.2-0.4-0.3-0.6c0.8,0,1.5,0,2.1,0
		c-0.4,2-0.3,4.1,0,6.1c-0.6,0-1.3,0-1.9,0c0.1-1.1,0.1-2.3,0.2-3.6c-0.8,0.4-1.5,0.8-2.2,1.1c-1.3,0.7-1.4,0.8-0.9,2.2
		c0,0.1,0,0.2,0,0.3c-0.7,0-1.4,0-2.1,0c0.4-2,0.4-4.1,0-6.1c0.6,0,1.3,0,1.9,0C44.2,27.5,44.2,28.3,44.1,29.4z"/>
	<path fill="#FFFFFF" d="M29.1,30.3c0.1,0.8,0.2,1.6,0.3,2.5c-0.6,0-1.3,0-2,0c0.4-2,0.4-4.1,0-6.2c0.6,0,1.3,0,2,0
		c-0.1,0.7-0.2,1.4-0.3,2.2c1.2,0,2.2,0,3.4,0c-0.1-0.7-0.2-1.4-0.3-2.2c0.6,0,1.3,0,2,0c-0.4,2-0.4,4.1,0,6.1c-0.6,0-1.3,0-2,0
		c0.1-0.8,0.2-1.6,0.3-2.5C31.3,30.3,30.3,30.3,29.1,30.3z"/>
	<path fill="#FFFFFF" d="M50.3,32.8c0.4-2.1,0.4-4.1,0-6.2c0.6,0,1.3,0,2,0c-0.1,0.6-0.2,1.1-0.3,1.7c0.1,0.1,0.1,0.1,0.2,0.2
		c0.8-0.6,1.7-1.2,2.5-1.7c0.1-0.1,0.2-0.1,0.3-0.1c0.6,0,1.2,0,1.9,0c-0.2,0.7-0.8,0.8-1.2,1.1c-0.4,0.3-0.9,0.6-1.3,0.9
		c0.8,1.4,1.5,2.7,2.4,4.2c-0.8,0-1.5,0-2.2,0c0.5-0.9-0.3-1.5-0.6-2.2c-0.2-0.4-0.5-0.8-0.7-1.3c-1.9,0.7-1,2.2-0.9,3.4
		C51.6,32.8,51,32.8,50.3,32.8z"/>
	<path fill="#FFFFFF" d="M22.3,26.6c0.5,0,1.2,0,1.7,0c0.9,2.1,1.8,4.1,2.9,6.2c-0.7,0-1.4,0-2.1,0c0-0.1,0-0.3,0-0.4
		c0-0.7-0.3-1.1-1.1-1.1c-0.4,0-0.7,0-1.1,0c-0.8,0-1.2,0.4-1.1,1.2c0,0.1,0,0.2,0,0.3c-0.6,0-1.3,0-2,0
		C20.7,30.8,21.7,28.9,22.3,26.6z M23.8,30c-0.2-0.5-0.4-0.9-0.6-1.4c-0.2,0.5-0.4,1-0.6,1.4C23,30,23.4,30,23.8,30z"/>
	<path fill="#FFFFFF" d="M0.6,32.8c1.1-2,2.1-3.9,2.7-6.2c0.5,0,1.2,0,1.6,0c1,2.1,1.9,4.1,2.9,6.1c-0.6,0-1.3,0-2,0
		c0-0.1,0-0.2,0-0.4c0-0.7-0.3-1.1-1-1.1c-0.3,0-0.6,0-0.9,0c-1.1,0-1.4,0.3-1.3,1.5C1.9,32.8,1.3,32.8,0.6,32.8z M3.5,29.9
		c0.5,0,0.8,0,1.3,0c-0.2-0.5-0.4-0.9-0.7-1.4C3.8,29.1,3.7,29.5,3.5,29.9z"/>
	<path fill="#FFFFFF" d="M72.1,30.3c0.5,0.3,1,0.6,1.5,0.9c-1.3,2-3.3,2.4-4.9,1.1c-1.6-1.2-1.8-3.1-0.5-4.6
		c1.5-1.7,3.5-1.6,5.4,0.3c-0.5,0.3-1,0.6-1.5,0.9c-0.4-0.8-0.9-1.1-1.7-0.9c-0.8,0.2-1.5,1.1-1.4,1.8c0.1,0.8,0.8,1.6,1.6,1.7
		C71.4,31.6,71.9,31.2,72.1,30.3z"/>
	<path fill="#FFFFFF" d="M61.4,28.9c-0.4-0.9-1-1.2-1.8-0.9c-0.8,0.2-1.5,1.1-1.4,1.8c0,0.8,0.8,1.5,1.5,1.7
		c0.9,0.1,1.4-0.2,1.7-1.2c0.5,0.3,1,0.6,1.5,0.8c-0.8,1.4-2.2,2.1-3.6,1.8c-1.4-0.3-2.6-1.7-2.7-3.1c-0.1-1.3,0.9-2.7,2.3-3.2
		c1.4-0.5,2.8,0,3.9,1.4C62.4,28.3,61.9,28.6,61.4,28.9z"/>
	<path fill="#FFFFFF" d="M14.9,26.6c0.5,0,1.2,0,1.8,0c0.9,2.1,1.8,4.1,2.9,6.2c-0.8,0-1.4,0-2,0c-0.2-1.6-1.2-2.7-1.7-4.2
		c-0.6,0.7-1.7,3.5-1.6,4.2c-0.6,0-1.3,0-2,0C13.3,30.8,14.5,28.9,14.9,26.6z"/>
	<path fill="#FFFFFF" d="M82,28.2c0.1-0.5,0.3-1,0.4-1.6c2,0,4.1,0,6.1,0c0.1,0,0.3,0.1,0.3,0.2c0.1,0.4,0.3,0.9,0.4,1.3
		c-0.9-0.1-1.9-0.2-2.7-0.3c0,1.7,0,3.3,0,4.9c-0.6,0-1.3,0-1.8,0c0-1.6,0-3.2,0-4.9C83.9,28,83,28.1,82,28.2z"/>
	<path fill="#FFFFFF" d="M13.7,28.2c-1-0.1-1.9-0.2-2.7-0.3c0,1.7,0,3.3,0,4.9c-0.5,0-1.2,0-1.8,0c0-1.6,0-3.2,0-4.9
		c-0.8,0.1-1.7,0.2-2.7,0.3c0.1-0.5,0.3-1,0.4-1.5c0-0.1,0.2-0.1,0.4-0.1c2,0,4,0,6,0C13.4,27.1,13.6,27.7,13.7,28.2z"/>
	<path fill="#FFFFFF" d="M37.4,32.8c0-1.6,0-3.2,0-4.9c-0.9,0.1-1.8,0.2-2.7,0.3c0.1-0.5,0.2-0.9,0.4-1.4c0-0.1,0.2-0.2,0.4-0.2
		c2,0,4,0,6,0c0.2,0.6,0.3,1.1,0.5,1.6c-1-0.1-1.9-0.2-2.7-0.4c0,1.7,0,3.3,0,4.9C38.7,32.8,38,32.8,37.4,32.8z"/>
	<path fill="#FFFFFF" d="M19.5,10.5c0.5,0,1.1-0.1,1.7-0.1c2.7,0,5.4-0.2,8-0.8c0.6-0.1,1.2-0.3,1.5-0.8c0.5-0.8,0.2-1.7-0.6-2
		c-0.6-0.2-1.3-0.2-1.9-0.2c-4.3,0.2-8.5-0.1-12.7-1.1c-0.2-0.1-0.5-0.2-0.7-0.3c0.7,0.1,1.4,0.2,2.2,0.2c4,0.2,8,0.4,11.9,0.6
		c0.3,0,0.5,0,0.8,0c1.5,0.2,2.2,1.8,1.4,3c0,0.1-0.1,0.2-0.2,0.3c1.5,0.3,1.7,1,1,2.7c1.8,0.1,2.1,0.8,1.3,2.7
		c0.6,0.1,1.3,0.2,1.7,0.8c0.3,0.6,0.2,1.2,0,1.7c0.4,0.2,0.9,0.3,1.1,0.6c0.2,0.3,0.2,0.8,0.2,1.2c0.1-0.1,0.2-0.2,0.3-0.3
		c0,0,0.1,0.1,0.1,0.1c-0.4,0.6-0.8,1.1-1.2,1.7c0,0-0.1,0-0.1-0.1c0.2-0.5,0.4-1,0.5-1.6c0-0.3,0-0.8-0.2-0.9
		c-0.2-0.1-0.7-0.1-1,0.1c-0.6,0.3-1.2,0.8-1.8,1.1c-0.1,0-0.2,0.1-0.2,0.2c0.5-0.5,0.9-1,1.4-1.6c0.2-0.3,0.5-0.6,0.6-1
		c0.4-1-0.3-1.9-1.4-1.6c-0.5,0.1-1.1,0.4-1.6,0.7c-0.9,0.4-1.8,0.9-2.7,1.4c0,0,0-0.1-0.1-0.1c1.1-0.7,2.1-1.3,3.2-2
		c0.6-0.4,1.1-0.8,1.2-1.6c0.1-0.8-0.2-1.2-1-1.2c-0.5,0-1,0.2-1.5,0.3c-1.7,0.5-3.4,1-5.1,1.5c-0.2,0-0.4,0.1-0.6,0
		c0.4-0.1,0.8-0.2,1.2-0.4c1.3-0.4,2.7-0.8,3.9-1.4c0.6-0.3,1.2-0.7,1.7-1.2c0.5-0.5,0.2-1.2-0.5-1.3c-0.5-0.1-1,0-1.5,0.1
		C26.3,10.8,22.9,11.1,19.5,10.5z"/>
	<path fill="#FFFFFF" d="M68.6,17.4c-0.8-0.4-1.7-0.9-2.5-1.3c-0.5-0.3-1.1-0.5-1.7-0.7c-0.5-0.2-1-0.1-1.4,0.4
		c-0.4,0.5-0.3,1,0,1.5c0.4,0.5,0.9,1,1.3,1.5c0.2,0.2,0.4,0.4,0.6,0.7c-0.5-0.3-1-0.7-1.5-1c-0.4-0.2-1-0.2-1.4-0.4
		c0,0.5-0.1,1,0,1.5c0,0.4,0.2,0.7,0.2,1.2c-0.4-0.5-0.8-1.1-1.2-1.7c0,0,0.1-0.1,0.2-0.1c0.1,0.1,0.2,0.2,0.3,0.3
		c0-0.4,0-0.9,0.2-1.3c0.2-0.5,0.7-0.6,1.2-0.4c-0.6-1.8-0.2-2.5,1.6-2.8c-0.7-1.9-0.4-2.6,1.2-2.7c-0.1-0.5-0.3-1.1-0.2-1.7
		c0.1-0.6,0.6-0.9,1.3-1c-0.1-0.4-0.3-0.7-0.4-1.1C65.9,7,66.7,6.1,68,6c1.4-0.1,2.8,0,4.2-0.1c3.4-0.2,6.7-0.5,10.1-0.7
		c0.1,0,0.3,0,0.5,0c0,0,0,0.1,0,0.1c-1.1,0.2-2.2,0.5-3.3,0.7C76,6.6,72.5,6.8,68.9,6.6c-0.4,0-0.8,0-1.2,0.1
		c-0.7,0.1-1.2,0.6-1.2,1.2c0,0.6,0.3,1.3,1,1.5c0.9,0.3,1.9,0.5,2.9,0.6c2.4,0.2,4.8,0.3,7.1,0.5c0.1,0,0.2,0,0.4,0
		c0,0.1,0,0.1,0,0.2c-1.6,0-3.2,0.2-4.9,0c-1.9-0.1-3.8-0.5-5.7-0.8c-0.9-0.1-1.5,0-1.7,0.5c-0.2,0.4,0.1,1.2,0.8,1.6
		c1.3,0.6,2.6,1.1,4,1.6c0.8,0.3,1.7,0.5,2.5,0.8c0,0.1,0,0.1,0,0.2c-1.8-0.5-3.6-1-5.3-1.5c-0.7-0.2-1.4-0.4-2.2-0.5
		c-0.9-0.1-1.3,0.5-1,1.4c0.2,0.7,0.7,1.1,1.3,1.5c1,0.6,2,1.3,3.1,1.9C68.6,17.3,68.6,17.3,68.6,17.4z"/>
	<path fill="#FFFFFF" d="M46.5,1.6c-0.5,1.4-1,2.7-1.5,4c-1,2.8-2.1,5.7-3.1,8.5c-0.1,0.4-0.3,0.8-0.6,1.1c-0.3,0.3-0.7,0.5-1.1,0.7
		c-0.2,0.5-0.1,1,0.4,1.4c1.5,1.2,3.2,2.1,5.2,2.5c0.1,0,0.2,0,0.4,0c0.1-0.6,0.1-1-0.6-1.2c-0.9-0.2-1-0.6-0.8-1.5
		c0.5-1.6,1-3.2,1.5-4.9c0.1-0.2,0.3-0.4,0.5-0.4c1.4,0,2.8,0,4.3,0c0.6,1.9,1.2,3.8,1.7,5.7c0.2,0.5-0.2,0.9-0.9,1.1
		C51.2,19,51.2,19,51.4,20c0.7-0.2,1.4-0.3,2-0.6c1.2-0.6,2.3-1.2,3.4-1.9c0.7-0.5,0.7-0.5,0.6-1.5c-1.1-0.1-1.5-1-1.8-1.8
		c-1-2.6-1.9-5.2-2.8-7.8c-0.6-1.6-1.1-3.1-1.7-4.7c1.6,0.2,3,0.7,4.4,1.5c2.5,1.5,4.3,3.6,4.9,6.6c0.6,3.1-0.4,5.8-2.7,8
		c-2.8,2.7-6.2,3.6-10,3.3c-2.6-0.2-4.9-1.1-6.9-2.7c-5-4.2-4.6-11.1,0.9-14.7C43,2.6,44.6,1.9,46.5,1.6z"/>
	<path fill="#FFFFFF" d="M48.7,5.6c0.7,1.9,1.3,3.6,1.9,5.3c-1.3,0-2.6,0-3.9,0C47.4,9.2,48.1,7.5,48.7,5.6z"/>
</g>
</svg>
