<svg width="97" height="33" viewBox="0 0 97 33" fill="none" xmlns="http://www.w3.org/2000/svg">
<g clip-path="url(#clip0)">
<path d="M0.585938 0C2.21974 0.249527 3.72883 0.499055 5.25039 0.698677C9.30373 1.23516 13.3571 1.77164 17.4104 2.2707C20.89 2.6949 24.3821 3.06919 27.8742 3.44348C29.3584 3.59319 30.855 3.63062 32.3516 3.78034C33.0875 3.8552 33.8358 3.99244 34.5467 4.19206C35.5319 4.46654 36.3551 5.0155 36.9537 5.87637C42.0297 -1.93384 55.4619 -1.94631 60.5129 5.86389C61.6354 4.30435 63.3066 3.96749 65.0527 3.78034C71.1888 3.14405 77.3249 2.57013 83.4486 1.87146C87.7139 1.38488 91.9668 0.711153 96.2197 0.124764C96.2945 0.112287 96.3694 0.112287 96.6313 0.099811C96.4816 0.536484 96.4317 0.923251 96.2447 1.23516C95.0349 3.20643 93.2764 4.55388 91.2185 5.58941C90.9691 5.71418 90.7197 6.01361 90.6199 6.27561C89.6221 8.92061 87.7015 10.6423 85.1946 11.7278C84.2218 12.152 83.5608 12.6635 83.0121 13.5992C81.8023 15.6454 79.7943 16.6185 77.5245 16.9928C76.6764 17.1301 76.0403 17.3921 75.4292 18.0658C74.2444 19.3633 72.6605 19.9372 70.902 19.9622C70.5403 19.9622 70.3033 20.0495 70.0539 20.3365C68.9813 21.5841 67.6593 22.1456 66.0005 21.7089C65.8509 21.6715 65.6014 21.6964 65.5017 21.7962C64.3543 22.944 62.4585 22.8068 61.0742 21.659C60.6127 21.2722 60.2136 20.8106 59.8021 20.3864C58.9664 19.538 58.1807 19.2885 57.0707 20.0745C52.3439 23.4306 45.235 23.4306 40.3959 20.0745C39.2859 19.3134 38.5376 19.4756 37.5773 20.4612C37.066 20.9728 36.5546 21.4968 35.9809 21.9335C34.8709 22.7569 33.1124 22.9316 31.965 21.8212C31.8527 21.7089 31.5784 21.6839 31.4162 21.7214C29.8074 22.1331 28.5103 21.5966 27.4502 20.3989C27.1758 20.087 26.9264 19.9747 26.5023 19.9622C24.4819 19.9123 22.8232 19.0888 21.4887 17.5543C21.3141 17.3546 21.0023 17.1924 20.7279 17.155C17.6973 16.7308 15.2029 15.5331 13.831 12.6011C13.7312 12.4015 13.4444 12.2518 13.2199 12.1645C11.0997 11.3909 9.26631 10.2181 7.9443 8.35917C7.49532 7.72287 7.22094 6.96182 6.83431 6.28809C6.68465 6.02609 6.4851 5.72665 6.22319 5.58941C4.0531 4.45406 2.21974 2.98185 0.985035 0.835917C0.860317 0.598866 0.748071 0.349338 0.585938 0ZM33.8233 20.0121C33.8358 20.1868 33.7734 20.3989 33.8607 20.5236C34.3097 21.2847 35.7564 21.5217 36.38 20.8979C36.8914 20.3864 37.3528 19.825 37.7893 19.2386C38.4004 18.4276 38.363 18.4151 37.7519 17.6416C35.2326 14.4227 34.6714 10.9168 36.3301 7.13648C36.4923 6.76219 36.4424 6.51267 36.2179 6.23819C35.3947 5.16522 34.2099 4.77845 32.9503 4.65369C30.0568 4.36673 27.1509 4.17958 24.2574 3.88015C20.6032 3.51834 16.9489 3.09414 13.2947 2.68242C11.8979 2.52023 10.501 2.32061 9.01688 2.12098C9.11665 2.43289 9.16654 2.66994 9.25384 2.88204C9.81507 4.24197 10.6632 5.38979 11.7357 6.37543C11.9727 6.58752 12.272 6.77467 12.5838 6.84953C15.8015 7.74783 19.0816 8.1845 22.4116 8.38412C24.2574 8.49641 26.0908 8.58374 27.9366 8.68355C23.3096 9.00794 18.695 8.82079 14.0181 7.98488C14.1428 8.25936 14.2051 8.4465 14.3049 8.62117C15.1031 10.1059 16.263 11.2412 17.6973 12.1021C18.0839 12.3391 18.5703 12.5512 19.0193 12.5637C20.678 12.6011 22.3368 12.5887 23.9955 12.5263C24.9184 12.4888 25.8413 12.3391 26.7643 12.2268C26.7767 12.2892 26.7767 12.3641 26.7892 12.4265C24.4819 12.7009 22.1746 12.9754 19.8673 13.2624C20.678 15.2461 23.4218 16.656 25.6543 16.1694C26.8765 15.9074 28.0987 15.5705 29.321 15.2586C29.3334 15.296 29.3459 15.321 29.3584 15.3584C28.0364 15.82 26.7019 16.2941 25.3549 16.7682C26.1157 17.9036 27.2382 18.4775 28.4854 18.8144C28.8969 18.9267 29.3958 18.9017 29.7949 18.752C30.643 18.4401 31.4412 18.0159 32.2643 17.6416C31.9775 17.9285 31.6407 18.1531 31.304 18.3652C30.9423 18.5898 30.5806 18.8019 30.2189 19.0265C31.1169 20.2866 32.6509 20.6733 33.8233 20.0121ZM83.4112 8.12212C81.054 8.33422 78.7342 8.64612 76.402 8.74594C74.0698 8.85822 71.7126 8.77089 69.3804 8.77089C70.6401 8.62117 71.9122 8.57127 73.1718 8.50888C76.6016 8.33422 80.0064 8.04726 83.3613 7.24877C84.0597 7.08658 84.8953 7.03667 85.4191 6.62495C86.8659 5.50208 87.8885 4.01739 88.4623 2.13346C87.3273 2.28318 86.2672 2.44537 85.2071 2.55766C80.7921 3.04423 76.3771 3.54329 71.9496 4.00491C69.4926 4.25444 67.0232 4.40416 64.5663 4.64121C63.3316 4.76597 62.1592 5.14026 61.3111 6.13837C61.0368 6.46276 60.9744 6.76219 61.174 7.19887C62.3588 9.79395 62.4461 12.4389 61.2737 15.0465C60.7374 16.2442 59.9392 17.3172 59.2034 18.5399C59.3531 18.7645 59.5651 19.1138 59.8145 19.4382C60.1263 19.8499 60.4506 20.2616 60.8123 20.6359C61.7102 21.5716 62.9948 21.4344 63.7431 20.3115C63.5935 20.1244 63.4313 19.9372 63.2692 19.7501C63.8928 20.2991 64.5413 20.5735 65.3894 20.2991C66.1502 20.0495 66.8486 19.7626 67.2851 19.0514C66.5742 18.6023 65.9008 18.1781 65.2273 17.7414C66.4869 18.0658 67.4847 19.2136 68.9314 18.8643C70.2285 18.5524 71.3884 17.966 72.1616 16.7807C70.7897 16.3066 69.4802 15.845 68.1831 15.3958C69.2183 15.5331 70.216 15.845 71.2262 16.0571C72.0369 16.2193 72.9099 16.4563 73.6707 16.3066C74.9054 16.0571 76.0279 15.3834 76.9009 14.4227C77.2252 14.0733 77.4621 13.6491 77.7116 13.2998C75.317 13.0129 73.0222 12.7384 70.7273 12.4514C70.7398 12.389 70.7398 12.3391 70.7523 12.2767C70.8895 12.2767 71.0391 12.2643 71.1763 12.2767C72.6854 12.414 74.1945 12.6261 75.7036 12.676C77.4995 12.7259 79.3204 12.8756 80.817 11.4783C81.8397 10.4677 82.8749 9.46957 83.4112 8.12212ZM48.3405 21.7713C52.0072 21.7463 54.9505 20.7981 57.4948 18.7146C61.9971 15.0465 62.4211 8.90813 58.4551 4.67864C53.5911 -0.499055 44.2747 -0.58639 39.2111 4.49149C35.3074 8.40907 35.295 14.1233 39.2111 18.0159C41.8427 20.6359 45.0978 21.7214 48.3405 21.7713ZM89.8092 6.26314C88.35 6.69981 86.9781 7.08658 85.6187 7.51078C85.4815 7.5482 85.3692 7.7603 85.3069 7.9225C84.596 9.45709 83.5234 10.6673 82.0518 11.5032C81.6402 11.7403 81.2161 11.9399 80.8046 12.152C84.6584 11.5282 88.0507 10.2181 89.8092 6.26314ZM7.71981 6.28809C8.61778 9.22004 13.6314 12.5512 16.4002 12.0397C14.4047 11.1414 12.9206 9.75652 12.0725 7.74783C12.0226 7.63554 11.8854 7.53573 11.7607 7.4983C10.4262 7.08658 9.10418 6.69981 7.71981 6.28809ZM87.4645 6.11342C90.5076 5.10284 93.4385 3.81777 95.5088 0.973157C94.0746 1.21021 92.7526 1.47221 91.4305 1.64688C90.8194 1.73422 90.4328 1.94631 90.2582 2.58261C90.1709 2.93195 89.9713 3.28129 89.7344 3.55577C88.9861 4.44159 88.2128 5.28998 87.4645 6.11342ZM2.00772 0.985633C3.1676 3.03176 7.27082 5.61437 10.1019 6.08847C10.0895 6.05104 10.0895 6.01361 10.0645 5.98866C8.66767 4.95312 7.5452 3.70548 6.95903 2.03365C6.92161 1.92136 6.77195 1.7966 6.65971 1.78412C5.12567 1.50964 3.57917 1.24764 2.00772 0.985633ZM14.8287 12.651C15.9637 15.2711 19.0193 16.631 22.9105 16.4563C22.7234 16.394 22.6111 16.344 22.4989 16.3191C20.6905 15.8824 19.1689 15.059 18.2959 13.3248C18.246 13.2374 18.1213 13.1376 18.0215 13.1251C16.9614 12.9505 15.9013 12.8008 14.8287 12.651ZM82.6753 12.6386C81.5529 12.8008 80.4928 12.938 79.4327 13.1127C79.308 13.1376 79.1708 13.2873 79.1084 13.4121C78.5596 14.4726 77.7116 15.2212 76.6515 15.7078C76.0029 16.0072 75.3045 16.2068 74.631 16.4439C78.3227 16.5936 81.2411 15.4582 82.6753 12.6386ZM75.2796 17.155C74.843 17.1176 74.4689 17.1301 74.1072 17.0552C73.6458 16.9429 73.3589 17.0677 73.0346 17.417C72.648 17.8287 72.1741 18.228 71.6503 18.4526C70.8521 18.7894 69.979 18.9766 69.2307 19.2136C71.4881 19.6752 74.2569 18.7769 75.2796 17.155ZM22.2245 17.1675C23.0975 18.752 26.3652 19.8 28.3981 19.1138C26.7019 18.9516 25.2177 18.4775 24.1452 17.1176C24.0828 17.0427 23.9332 16.9928 23.8209 16.9928C23.2846 17.0427 22.7608 17.1051 22.2245 17.1675ZM32.7008 20.611C30.8425 20.5611 30.8425 20.5611 29.3085 19.563C29.2212 19.5006 29.0715 19.4631 28.9718 19.5006C28.6226 19.5879 28.2858 19.7127 27.9366 19.825C28.9593 21.3346 31.1169 21.6964 32.7008 20.611ZM64.8282 20.6609C66.3373 21.7338 68.9314 21.2348 69.4428 19.8125C68.7443 19.4257 68.1208 19.3883 67.5346 20.062C67.3475 20.2741 66.9983 20.3989 66.699 20.4488C66.1003 20.5611 65.4767 20.586 64.8282 20.6609ZM64.4416 20.848C64.4416 20.9104 64.4291 20.9728 64.4291 21.0227C63.7182 21.2597 63.0198 21.4968 62.4211 21.6964C63.4812 22.1456 64.5413 22.0083 65.0527 21.2597C64.8531 21.1225 64.6536 20.9853 64.4416 20.848ZM32.3641 21.2847C33.0625 22.0208 34.2723 22.158 34.9208 21.7089C34.3346 21.4843 33.6612 21.2348 32.8754 20.9478C32.8131 20.9977 32.5886 21.135 32.3641 21.2847Z" fill="#3F5795"/>
<path d="M94.3114 26.624C95.1221 26.624 95.808 26.624 96.4441 26.624C96.1073 28.6951 96.1198 30.7288 96.469 32.7998C95.808 32.7998 95.1345 32.7998 94.5359 32.7998C94.6107 31.652 94.698 30.5167 94.7853 29.1817C94.1617 29.4936 93.7127 29.7182 93.2638 29.9552C92.9894 30.0925 92.715 30.2422 92.4281 30.3794C91.3057 30.9533 91.1934 31.2528 91.6923 32.4505C91.7297 32.5378 91.7422 32.6376 91.7796 32.8248C91.393 32.8248 91.0438 32.8248 90.707 32.8248C90.3578 32.8248 90.0086 32.8248 89.6719 32.8248C90.0211 30.7288 90.046 28.6951 89.6968 26.624C90.3454 26.624 91.0188 26.624 91.6424 26.624C91.5551 27.4724 91.4678 28.3208 91.368 29.3688C92.5529 28.7575 93.5381 28.2709 94.5109 27.7344C94.6107 27.6845 94.6107 27.3726 94.5858 27.1979C94.5608 27.0233 94.4361 26.8736 94.3114 26.624Z" fill="#3F5795"/>
<path d="M79.5688 32.7876C79.6436 31.6522 79.7184 30.5169 79.8182 29.1819C78.6334 29.7932 77.5858 30.2424 76.6628 30.8787C76.4384 31.0284 76.613 31.7895 76.6504 32.2636C76.6628 32.4382 76.7751 32.6004 76.8624 32.8125C76.1016 32.8125 75.4281 32.8125 74.7422 32.8125C75.0914 30.7664 75.0914 28.7327 74.7671 26.6492C75.3907 26.6492 76.0767 26.6492 76.7003 26.6492C76.613 27.4726 76.5132 28.321 76.4009 29.369C77.0495 29.0447 77.5234 28.8076 77.9849 28.5706C78.4089 28.3585 78.8205 28.1089 79.257 27.9218C79.7434 27.7222 79.8307 27.4477 79.5314 27.011C79.469 26.9237 79.4565 26.7864 79.4191 26.6367C80.1549 26.6367 80.8409 26.6367 81.477 26.6367C81.1527 28.6953 81.1652 30.7165 81.4894 32.7876C80.8409 32.7876 80.1549 32.7876 79.5688 32.7876Z" fill="#3F5795"/>
<path d="M44.0504 29.3693C45.2103 28.7704 46.2081 28.2713 47.1933 27.7349C47.2931 27.685 47.318 27.4229 47.2931 27.2732C47.2557 27.0861 47.131 26.9114 47.0062 26.6494C47.7795 26.6494 48.4654 26.6494 49.1389 26.6494C48.7149 28.6706 48.7897 30.7042 49.1265 32.7878C48.5029 32.7878 47.8044 32.7878 47.2058 32.7878C47.2806 31.6524 47.3555 30.5046 47.4552 29.1821C46.6196 29.6188 45.9212 29.9681 45.2353 30.3175C43.9382 30.9787 43.8758 31.116 44.3747 32.5008C44.3996 32.5757 44.3996 32.663 44.4246 32.7878C43.7012 32.7878 43.0153 32.7878 42.3418 32.7878C42.7534 30.7541 42.7409 28.7205 42.3917 26.6494C42.9903 26.6494 43.6763 26.6494 44.2999 26.6494C44.225 27.4853 44.1502 28.3462 44.0504 29.3693Z" fill="#3F5795"/>
<path d="M29.0961 30.3172C29.1834 31.1656 29.2707 31.9517 29.3705 32.7876C28.7344 32.7876 28.0485 32.7876 27.375 32.7876C27.7741 30.7414 27.8115 28.7078 27.3999 26.6367C28.036 26.6367 28.722 26.6367 29.3705 26.6367C29.2832 27.3603 29.1959 28.084 29.1086 28.845C30.2685 28.845 31.3036 28.845 32.4884 28.845C32.4011 28.1089 32.3014 27.3978 32.2141 26.6492C32.8127 26.6492 33.5111 26.6492 34.1846 26.6492C33.773 28.6828 33.8229 30.7165 34.1971 32.7876C33.5485 32.7876 32.8626 32.7876 32.2016 32.7876C32.3014 31.9891 32.4011 31.1906 32.5134 30.3172C31.3286 30.3172 30.2934 30.3172 29.0961 30.3172Z" fill="#3F5795"/>
<path d="M50.2969 32.7879C50.6586 30.7293 50.6835 28.6832 50.3218 26.6246C50.9579 26.6246 51.6314 26.6246 52.3298 26.6246C52.2175 27.1985 52.1178 27.7599 52.018 28.3213C52.0928 28.3837 52.1552 28.4336 52.23 28.496C53.0656 27.9096 53.9012 27.3232 54.7493 26.7493C54.8366 26.6869 54.9364 26.6121 55.0362 26.6121C55.6348 26.5996 56.2335 26.5996 56.8945 26.5996C56.7323 27.2858 56.1212 27.3731 55.7346 27.6851C55.323 27.997 54.874 28.259 54.3876 28.5834C55.1609 29.9682 55.9217 31.3282 56.7448 32.7754C55.9466 32.7754 55.2607 32.7754 54.5373 32.7754C55.0237 31.8771 54.2629 31.3032 53.9511 30.617C53.7516 30.1928 53.4897 29.7811 53.2527 29.3569C51.3695 30.1055 52.23 31.5153 52.3672 32.7879C51.6438 32.7879 50.9579 32.7879 50.2969 32.7879Z" fill="#3F5795"/>
<path d="M22.349 26.624C22.8478 26.624 23.5213 26.624 24.0327 26.624C24.9182 28.745 25.8535 30.7537 26.9635 32.7749C26.2277 32.7749 25.5542 32.7749 24.8433 32.7749C24.8558 32.6501 24.8807 32.5129 24.8807 32.3881C24.9057 31.6894 24.5315 31.3027 23.8206 31.3027C23.4465 31.3027 23.0723 31.3027 22.6982 31.3027C21.875 31.3027 21.5383 31.6894 21.6256 32.5253C21.6381 32.6002 21.6256 32.6875 21.6256 32.7998C20.9895 32.7998 20.3535 32.7998 19.6426 32.7998C20.7027 30.8161 21.7129 28.8822 22.349 26.624ZM23.8331 29.9552C23.6211 29.4811 23.4215 29.0694 23.1846 28.5329C22.9351 29.0819 22.7481 29.4936 22.5485 29.9552C22.9975 29.9552 23.3716 29.9552 23.8331 29.9552Z" fill="#3F5795"/>
<path d="M0.560547 32.7876C1.62065 30.7789 2.64334 28.845 3.24198 26.6367C3.71591 26.6367 4.40186 26.6367 4.88826 26.6367C5.86106 28.7078 6.79645 30.7165 7.76925 32.7751C7.12072 32.7751 6.44724 32.7751 5.73635 32.7751C5.74882 32.6503 5.77376 32.538 5.78623 32.4133C5.82365 31.7021 5.44949 31.3029 4.76355 31.3029C4.45175 31.3029 4.13996 31.3029 3.82816 31.3029C2.71817 31.3029 2.43132 31.6273 2.54356 32.7876C1.9075 32.7876 1.27144 32.7876 0.560547 32.7876ZM3.45401 29.943C3.92793 29.943 4.30209 29.943 4.7386 29.943C4.51411 29.4689 4.31456 29.0571 4.0776 28.5456C3.84063 29.0821 3.65355 29.4813 3.45401 29.943Z" fill="#3F5795"/>
<path d="M72.136 30.2802C72.6723 30.5921 73.1711 30.8791 73.67 31.166C72.3854 33.1248 70.4024 33.5615 68.7312 32.2639C67.1472 31.0413 66.9228 29.1199 68.1949 27.6851C69.7164 25.9509 71.6745 26.0632 73.5827 28.0345C73.0589 28.3464 72.56 28.6333 72.0487 28.9328C71.6745 28.0844 71.1008 27.7849 70.3151 27.9846C69.4919 28.1967 68.8185 29.045 68.8684 29.7936C68.9307 30.5921 69.6915 31.3656 70.4897 31.453C71.3877 31.5653 71.899 31.2159 72.136 30.2802Z" fill="#3F5795"/>
<path d="M61.423 28.933C60.974 28.0472 60.4502 27.7727 59.652 27.9973C58.8787 28.2219 58.1928 29.0703 58.2427 29.7814C58.2925 30.5425 59.0159 31.3285 59.7892 31.4532C60.6497 31.5905 61.1735 31.2661 61.5352 30.2929C62.0341 30.5799 62.533 30.8669 63.0318 31.1413C62.2336 32.5512 60.8493 33.2249 59.4524 32.913C58.0306 32.5886 56.8209 31.2162 56.746 29.8438C56.6712 28.5338 57.6939 27.1239 59.0783 26.6124C60.4876 26.1009 61.847 26.5999 62.9321 28.0347C62.4207 28.3466 61.9218 28.6461 61.423 28.933Z" fill="#3F5795"/>
<path d="M14.9027 26.6367C15.4515 26.6367 16.125 26.6367 16.6613 26.6367C17.5468 28.7452 18.4697 30.7789 19.6046 32.8C18.8313 32.8 18.1579 32.8 17.5842 32.8C17.3971 31.2405 16.4118 30.0552 15.9129 28.6329C15.3018 29.3067 14.2043 32.1014 14.2667 32.7876C13.6306 32.7876 13.007 32.7876 12.3086 32.7876C13.2814 30.7913 14.4537 28.8949 14.9027 26.6367Z" fill="#3F5795"/>
<path d="M82.002 28.1966C82.1391 27.6851 82.2888 27.161 82.4385 26.5996C84.4838 26.5996 86.4918 26.5996 88.5122 26.6121C88.637 26.6121 88.824 26.7493 88.8614 26.8616C89.0111 27.2983 89.1234 27.7599 89.2481 28.2091C88.3002 28.0843 87.3898 27.972 86.5417 27.8597C86.5417 29.569 86.5417 31.1535 86.5417 32.7754C85.968 32.7754 85.282 32.7754 84.7083 32.7754C84.7083 31.1909 84.7083 29.6064 84.7083 27.8722C83.8852 27.972 82.9997 28.0718 82.002 28.1966Z" fill="#3F5795"/>
<path d="M13.743 28.2088C12.7452 28.0841 11.8597 27.9718 11.0366 27.872C11.0366 29.5812 11.0366 31.1657 11.0366 32.7877C10.4878 32.7877 9.80188 32.7877 9.2157 32.7877C9.2157 31.1907 9.2157 29.6062 9.2157 27.872C8.38009 27.9718 7.48212 28.0841 6.48438 28.2088C6.62156 27.7472 6.74628 27.2357 6.92089 26.7491C6.94583 26.6618 7.15785 26.5994 7.28257 26.5994C9.27806 26.5869 11.2611 26.5869 13.2815 26.5869C13.4436 27.1484 13.5933 27.6724 13.743 28.2088Z" fill="#3F5795"/>
<path d="M37.3907 32.7627C37.3907 31.1533 37.3907 29.5812 37.3907 27.8595C36.5302 27.9718 35.6322 28.0841 34.6719 28.2088C34.7966 27.7472 34.9088 27.2731 35.071 26.824C35.1084 26.7117 35.3079 26.5994 35.4327 26.5994C37.4281 26.5869 39.4112 26.5869 41.4565 26.5869C41.6187 27.1484 41.7683 27.6848 41.918 28.2088C40.9452 28.0716 40.0597 27.9593 39.1867 27.8346C39.1867 29.5313 39.1867 31.1034 39.1867 32.7378C38.6629 32.7627 37.9894 32.7627 37.3907 32.7627Z" fill="#3F5795"/>
<path d="M19.5184 10.4928C20.0672 10.4678 20.616 10.4179 21.1772 10.4179C23.8711 10.4429 26.5276 10.1933 29.1591 9.61942C29.7578 9.49466 30.3315 9.33247 30.6932 8.77103C31.192 8.00997 30.9426 7.04929 30.0821 6.77481C29.4834 6.58767 28.8224 6.53776 28.1863 6.56271C23.896 6.73738 19.6432 6.4629 15.4402 5.47727C15.1907 5.41489 14.9413 5.31508 14.7168 5.12793C15.4402 5.21526 16.1635 5.34003 16.8994 5.37746C20.8779 5.58956 24.8688 5.7767 28.8473 5.97632C29.1217 5.9888 29.3836 5.9888 29.658 6.01375C31.1796 6.21337 31.8905 7.77292 31.0673 9.05799C31.0174 9.14532 30.9551 9.22018 30.8927 9.31999C32.3519 9.66933 32.5889 10.3555 31.8655 12.0024C33.649 12.1397 34.0107 12.8383 33.2 14.6973C33.8485 14.8096 34.5345 14.8595 34.8837 15.5332C35.1955 16.157 35.0833 16.7809 34.8712 17.2425C35.2703 17.4546 35.7443 17.5794 35.9438 17.8788C36.1558 18.2032 36.1059 18.6897 36.1683 19.1139C36.2431 19.0516 36.3678 18.9393 36.4926 18.827C36.5424 18.8644 36.5923 18.9018 36.6422 18.9393C36.2307 19.5007 35.8316 20.0746 35.42 20.6361C35.3826 20.6111 35.3452 20.5862 35.2953 20.5487C35.4574 20.0247 35.6694 19.5132 35.7567 18.9767C35.8066 18.6648 35.7692 18.1782 35.5697 18.0285C35.3701 17.8788 34.8712 17.9536 34.5968 18.0909C33.9483 18.4277 33.3621 18.8519 32.751 19.2387C32.6762 19.2886 32.5889 19.326 32.5764 19.4259C33.0379 18.9018 33.5243 18.3903 33.9608 17.8538C34.2102 17.5544 34.4721 17.23 34.6093 16.8807C34.9959 15.8327 34.2601 14.9967 33.1751 15.2712C32.6263 15.4085 32.1025 15.6954 31.5787 15.9574C30.6558 16.4066 29.7578 16.8932 28.8473 17.3673C28.8224 17.3173 28.7975 17.2799 28.7725 17.23C29.8451 16.5688 30.9177 15.9075 31.9902 15.2463C32.5889 14.872 33.0753 14.3979 33.2125 13.6742C33.3497 12.9007 32.9755 12.4266 32.2023 12.4765C31.6909 12.5139 31.1796 12.6512 30.6932 12.7884C28.9721 13.275 27.2634 13.7741 25.5548 14.2606C25.3552 14.3105 25.1557 14.3355 24.9312 14.2482C25.3303 14.1234 25.7419 14.0111 26.141 13.8739C27.463 13.4247 28.7975 13.038 30.0696 12.5015C30.6932 12.2395 31.2793 11.7778 31.7283 11.2663C32.2272 10.7173 31.9404 10.0436 31.192 9.93133C30.6932 9.85648 30.1569 9.93133 29.658 10.0436C26.3031 10.8172 22.9357 11.0916 19.5184 10.4928Z" fill="#3F5795"/>
<path d="M68.5818 17.3795C67.7462 16.9429 66.9106 16.4937 66.0625 16.082C65.5138 15.8075 64.9525 15.533 64.3664 15.3334C63.8675 15.1587 63.3561 15.2585 63.0069 15.6952C62.6452 16.1568 62.6577 16.7058 62.9695 17.155C63.3437 17.6914 63.8301 18.1531 64.279 18.6396C64.4786 18.8642 64.7156 19.0514 64.8652 19.3633C64.3539 19.0264 63.88 18.6272 63.3312 18.3776C62.8947 18.1655 62.3709 18.1281 61.8969 18.0158C61.872 18.5149 61.7972 19.0139 61.8595 19.5005C61.8969 19.8748 62.0965 20.2241 62.109 20.6733C61.6974 20.1243 61.2983 19.5629 60.8867 19.0139C60.9366 18.9765 60.9865 18.9266 61.0489 18.8892C61.1611 18.989 61.2858 19.1013 61.3482 19.1512C61.3981 18.7395 61.3856 18.2903 61.5353 17.8911C61.7223 17.3795 62.1963 17.3296 62.6951 17.5043C62.1214 15.6827 62.5205 15.009 64.2915 14.7096C63.5432 12.8132 63.9049 12.0771 65.5262 12.0396C65.4265 11.4907 65.1895 10.9043 65.2768 10.3678C65.3641 9.75647 65.9253 9.44456 66.5364 9.3697C66.3993 9.00789 66.1872 8.65855 66.1249 8.28426C65.9378 7.03662 66.7235 6.10089 68.0206 6.03851C69.405 5.97613 70.8018 6.01356 72.1987 5.92622C75.5785 5.70165 78.9459 5.43964 82.3258 5.19012C82.4754 5.17764 82.6376 5.19012 82.7872 5.19012C82.7997 5.24002 82.8122 5.28993 82.8122 5.33983C81.7271 5.56441 80.6545 5.85136 79.557 6.02603C76.04 6.56252 72.498 6.81204 68.931 6.57499C68.5444 6.55004 68.1453 6.59995 67.7587 6.6748C67.0353 6.82452 66.5863 7.29862 66.5364 7.90996C66.4866 8.52131 66.8732 9.20751 67.5342 9.40713C68.4696 9.68161 69.4174 9.93114 70.3902 10.0185C72.7599 10.2306 75.1545 10.3553 77.5366 10.505C77.6613 10.5175 77.7735 10.53 77.8983 10.5425C77.8983 10.6173 77.8983 10.6797 77.8983 10.7546C76.2769 10.7795 74.6556 10.9292 73.0467 10.8045C71.1261 10.6548 69.2304 10.2805 67.3222 9.99352C66.4491 9.85628 65.8006 10.006 65.5886 10.4676C65.389 10.9043 65.6759 11.6778 66.4367 12.0396C67.7213 12.6635 69.0682 13.15 70.4027 13.6366C71.2134 13.9361 72.0615 14.1606 72.8846 14.4102C72.8721 14.4725 72.8472 14.5349 72.8347 14.5973C71.0512 14.0858 69.2802 13.5618 67.4968 13.0627C66.7859 12.8631 66.0625 12.626 65.3267 12.5387C64.4661 12.4389 64.0421 13.0752 64.3165 13.9111C64.5285 14.5848 65.0149 15.0215 65.6011 15.3708C66.6362 15.9947 67.6464 16.6309 68.6816 17.2548C68.6442 17.2797 68.6192 17.3296 68.5818 17.3795Z" fill="#3F5795"/>
<path d="M46.4812 1.62207C45.9699 3.00695 45.496 4.30449 45.022 5.60203C43.9869 8.44665 42.9517 11.2913 41.9041 14.1359C41.7544 14.5351 41.5673 14.9593 41.293 15.2712C41.0061 15.5956 40.5821 15.8077 40.1705 15.9949C39.9335 16.5189 40.0957 16.9805 40.607 17.3673C42.1535 18.565 43.8247 19.4882 45.7579 19.8875C45.8701 19.9124 45.9948 19.9124 46.1445 19.9249C46.2692 19.326 46.2817 18.9268 45.5209 18.7397C44.6354 18.5276 44.4857 18.1408 44.7601 17.2425C45.2465 15.6206 45.7579 13.9986 46.2942 12.3767C46.3565 12.202 46.6059 11.9775 46.7681 11.9775C48.1774 11.94 49.5867 11.965 51.0833 11.965C51.6695 13.8614 52.2806 15.7578 52.8294 17.6542C52.9915 18.1907 52.6672 18.5276 51.9314 18.7896C51.1956 19.0391 51.1956 19.0391 51.3577 20.0122C52.0312 19.8126 52.7421 19.7003 53.3532 19.3884C54.5131 18.802 55.648 18.1533 56.7455 17.4546C57.4814 16.9805 57.4439 16.9181 57.3816 15.9574C56.2342 15.895 55.8974 14.9843 55.5732 14.1234C54.6004 11.5408 53.6775 8.9457 52.7296 6.35062C52.1684 4.79107 51.5947 3.244 50.996 1.62207C52.6049 1.8716 54.0391 2.37065 55.3611 3.16914C57.868 4.67878 59.6764 6.76234 60.2127 9.71924C60.7864 12.8508 59.7637 15.5207 57.5063 17.6792C54.7251 20.3366 51.3328 21.3098 47.5538 20.9979C44.9846 20.7983 42.6524 19.9374 40.6569 18.278C35.6308 14.0984 36.0423 7.13663 41.5175 3.54343C42.9891 2.58275 44.6105 1.93398 46.4812 1.62207Z" fill="#3F5795"/>
<path d="M48.7393 5.60156C49.4253 7.47302 50.0489 9.1698 50.6849 10.9165C49.3504 10.9165 48.1282 10.9165 46.7812 10.9165C47.4298 9.15733 48.0534 7.47302 48.7393 5.60156Z" fill="#3F5795"/>
</g>
<defs>
<clipPath id="clip0">
<rect width="96.0703" height="33" fill="white" transform="translate(0.560547)"/>
</clipPath>
</defs>
</svg>
