<svg width="61" height="26" viewBox="0 0 61 26" fill="none" xmlns="http://www.w3.org/2000/svg">
<path d="M60.4936 23.0339C60.4936 24.0362 60.4936 24.9772 60.4936 26.0001C57.6006 26.0001 54.7273 26.0001 51.8147 26.0001C51.8147 24.9977 51.8147 24.0362 51.8147 23.0748C54.0385 22.7066 54.0385 22.7066 54.0385 20.2723C54.0385 18.3085 54.0385 16.3447 54.0385 14.299C51.8343 14.299 49.7483 14.299 47.5047 14.299C47.5047 15.1991 47.5047 16.0992 47.5047 16.9993C47.5047 18.288 47.5047 19.5972 47.5047 20.886C47.5047 22.5429 47.7802 22.8293 49.3547 22.9521C49.4727 22.9521 49.6105 22.993 49.7876 23.0339C49.7876 23.9953 49.7876 24.9363 49.7876 25.9796C46.6191 25.9796 43.4506 25.9796 40.2034 25.9796C40.2034 25.0386 40.2034 24.0772 40.2034 23.0543C40.4002 23.0339 40.6167 22.9725 40.8332 22.9725C42.3682 22.9316 42.6241 22.6657 42.6241 21.0087C42.6241 15.7514 42.6241 10.5146 42.6241 5.25733C42.6241 3.49809 42.4076 3.27307 40.6954 3.23215C40.538 3.23215 40.3805 3.2117 40.1641 3.19124C40.1641 2.16842 40.1641 1.14561 40.1641 0.0205078C41.2661 0.0205078 42.3092 0.0205078 43.3326 0.0205078C45.2415 0.0205078 47.1308 0.0409641 49.0398 0.0205078C49.6105 0.0205078 49.886 0.184158 49.8467 0.838761C49.8073 1.6161 49.8467 2.39344 49.8467 3.12987C47.485 3.47763 47.485 3.47763 47.485 5.89148C47.485 7.46661 47.485 9.0213 47.485 10.6783C49.6499 10.6783 51.7556 10.6783 53.9598 10.6783C53.9598 8.53034 53.9991 6.40288 53.9401 4.27543C53.9204 3.64128 53.5071 3.23215 52.8183 3.23215C52.5035 3.23215 52.1689 3.23215 51.7753 3.23215C51.7753 2.14797 51.7753 1.14561 51.7753 0.0614205C54.6486 0.0614205 57.5022 0.0614205 60.4149 0.0614205C60.4149 1.06378 60.4149 2.06614 60.4149 3.12987C60.218 3.15033 60.0016 3.19124 59.7851 3.2117C58.3288 3.25261 57.9745 3.60037 57.9548 5.09368C57.9352 10.4123 57.9352 15.731 57.9548 21.0496C57.9942 22.6248 58.25 22.8089 60.4936 23.0339Z" fill="#FFF"/>
<path d="M20.2656 0.0821795C20.5608 0.0617231 20.797 0.0208105 21.0134 0.0208105C24.6543 0.0208105 28.2951 0.000354121 31.9359 0.0208105C33.8842 0.0412668 35.7341 0.450393 36.7181 2.4142C37.9777 4.88942 38.1745 7.52828 36.8362 10.0444C36.3639 10.9445 35.4389 11.5991 34.7108 12.3969C34.7108 12.3764 34.7108 12.4583 34.7501 12.4992C38.2138 14.8926 39.2175 19.5362 37.0921 23.3206C36.2852 24.773 35.065 25.8162 33.5103 25.8776C29.1216 26.0004 24.7527 25.9185 20.2853 25.9185C20.2853 25.0389 20.2853 24.057 20.2853 23.0342C20.4624 23.0137 20.6395 22.9524 20.8166 22.9524C22.5485 22.891 22.824 22.6046 22.824 20.7431C22.824 15.629 22.824 10.5149 22.824 5.42128C22.824 3.62113 22.6272 3.35519 20.915 3.23245C20.364 3.19154 20.1672 2.98698 20.1869 2.43466C20.2262 1.82097 20.1869 1.20728 20.2066 0.593588C20.2066 0.450393 20.2262 0.307199 20.2656 0.0821795ZM27.7047 14.463C27.7047 17.3269 27.7047 20.0885 27.7047 22.8296C28.9839 22.8296 30.204 22.891 31.4045 22.8092C32.546 22.7478 33.3528 22.0114 33.5103 20.8863C33.6874 19.5566 33.7661 18.186 33.6087 16.8768C33.4709 15.6904 32.7821 14.6471 31.5029 14.5039C30.2828 14.3607 29.0429 14.463 27.7047 14.463ZM27.6456 11.1286C29.0823 11.0263 30.3812 11.0877 31.6013 10.8013C32.2114 10.6581 33.0773 9.94213 33.156 9.3489C33.3922 7.91695 33.3528 6.40319 33.2151 4.93033C33.1364 4.07116 32.3688 3.5393 31.5226 3.43702C30.4599 3.31428 29.3578 3.29382 28.2951 3.29382C28.0786 3.29382 27.685 3.62113 27.6653 3.80523C27.6259 6.19862 27.6456 8.5511 27.6456 11.1286Z" fill="#FFF"/>
<path d="M0.447414 3.11234C0.447414 2.10998 0.447414 1.14854 0.447414 0.0848065C0.742615 0.0643502 1.03782 0.0234375 1.31334 0.0234375C4.85575 0.0234375 8.39816 0.0234375 11.9406 0.0234375C13.6921 0.0234375 15.3452 0.371195 16.5457 1.86451C18.1595 3.88968 18.3169 8.36962 16.7819 10.4357C16.2505 11.1517 15.5027 11.6835 14.7942 12.3586C14.9319 12.4609 15.0894 12.6245 15.2665 12.7268C16.959 13.6678 18.002 15.1407 18.1004 17.1045C18.1792 18.7819 18.1004 20.5207 17.7068 22.1367C17.1558 24.3869 15.5814 25.8393 13.3379 25.9212C9.06728 26.0643 4.77703 25.9621 0.427734 25.9621C0.427734 25.0006 0.427734 24.0187 0.427734 23.0982C0.545815 23.0368 0.604855 22.9959 0.663895 22.9754C2.94678 22.7709 2.96646 22.73 2.96646 20.3366C2.96646 15.4271 2.96646 10.5175 2.96646 5.62847C2.96646 3.50101 2.86806 3.37828 0.860696 3.21462C0.762295 3.19417 0.644215 3.15326 0.447414 3.11234ZM7.80776 22.9345C8.43752 22.9345 8.92952 22.9141 9.40184 22.9345C12.6884 23.0573 14.1447 22.5868 13.9873 17.7591C13.9873 17.7182 13.9873 17.6977 13.9873 17.6568C13.7708 15.4475 12.7278 14.4247 10.6023 14.3838C9.95289 14.3633 9.28376 14.4042 8.63432 14.3633C8.00456 14.3224 7.7684 14.5474 7.78808 15.2225C7.82744 16.7158 7.80776 18.2091 7.80776 19.7024C7.80776 20.7662 7.80776 21.8094 7.80776 22.9345ZM7.88648 3.23508C7.88648 5.97623 7.88648 8.4719 7.88648 11.0494C8.5556 11.0494 9.146 11.0494 9.73641 11.0494C12.7081 11.1108 13.8299 10.2925 13.6921 6.54901C13.6724 6.11942 13.5937 5.66938 13.4953 5.2398C13.2788 4.33972 12.7278 3.64421 11.8619 3.52147C10.5826 3.31691 9.26408 3.31691 7.88648 3.23508Z" fill="#FFF"/>
</svg>
