<svg width="16" height="10" viewBox="0 0 16 10" fill="none" xmlns="http://www.w3.org/2000/svg">
<path d="M1.02622 2.40036L7.18147 9.14647C7.40559 9.3921 7.70208 9.51827 7.99872 9.51827C8.29827 9.51827 8.59484 9.3923 8.81914 9.14647L14.974 2.4008C14.9741 2.40073 14.9741 2.40065 14.9742 2.40058C15.4195 1.91624 15.4195 1.13058 14.9744 0.646163C14.5252 0.150382 13.7857 0.150439 13.3366 0.646335C13.3365 0.646427 13.3364 0.64652 13.3363 0.646612L7.99879 6.4897L2.6643 0.64314C2.66422 0.64305 2.66414 0.642961 2.66406 0.642872C2.2146 0.146552 1.47821 0.147321 1.02622 0.642692C0.581144 1.13049 0.581144 1.91256 1.02622 2.40036Z" fill="white" stroke="white" stroke-width="0.3"/>
</svg>
