<svg width="60" height="26" viewBox="0 0 60 26" fill="none" xmlns="http://www.w3.org/2000/svg">
<g clip-path="url(#clip0)">
<path d="M21.9887 6.29752L21.3884 12.167H18.7871L19.9877 0.397461H21.86L23.9468 4.79958L26.0335 0.397461H27.8916L29.0922 12.167H26.4909L25.9049 6.32809L24.1898 9.93538C24.1898 9.93538 24.1183 10.1188 23.9468 10.1188C23.7896 10.1188 23.7181 9.93538 23.7181 9.93538L21.9887 6.29752Z" fill="#FFF"/>
<path d="M51.947 21.2922V25.6484H49.36V21.2922L48.7168 18.5256H49.36V13.8789H51.947V18.5256H54.0623V13.8789H56.635V25.6484H54.0623V21.2922H51.947Z" fill="#FFF"/>
<path d="M32.5531 6.29752L31.9528 12.167H29.3516L30.5521 0.397461H32.4245L34.5112 4.79958L36.598 0.397461H38.456L39.6566 12.167H37.0553L36.4693 6.32809L34.7542 9.93538C34.7542 9.93538 34.6827 10.1188 34.5112 10.1188C34.354 10.1188 34.2825 9.93538 34.2825 9.93538L32.5531 6.29752Z" fill="#FFF"/>
<path d="M42.9561 7.61204V9.4004H46.3149V12.167H40.3834V7.61204L39.7402 4.84543H40.3834V0.397461H46.3149V3.16407H42.9561V4.84543H45.8289L46.4721 7.61204H42.9561Z" fill="#FFF"/>
<path d="M47.1012 16.6455V25.6484H44.5142V16.6455H42.9277V13.8789H48.6877V16.6455H47.1012Z" fill="#FFF"/>
<path d="M28.835 17.8988V25.6637H26.248V13.8941H28.6921L28.735 13.9247L31.6936 17.0276V13.8788H34.2663V18.0364L34.2806 18.0058L34.3234 17.8682L34.3663 17.746C35.0381 15.6213 36.9104 14.0775 38.9543 13.7107C40.1263 13.4967 41.3412 13.6343 42.4274 14.1692L42.4846 14.1845L42.4703 16.5079V16.5843L42.4417 16.569C42.0558 16.3397 41.5127 16.2175 41.0696 16.1563C40.6265 16.0799 40.1977 16.0187 39.7404 16.0952C38.8256 16.248 37.9967 16.783 37.4678 17.6084C36.939 18.4338 36.8104 19.4885 37.1105 20.4362C37.4107 21.3991 38.0681 22.0717 38.9114 22.4691C39.2115 22.6219 39.5546 22.6983 39.8261 22.7289V18.0517H42.4131V25.4344C41.8271 25.7401 40.4693 25.9999 39.4545 25.9694C38.4111 25.9388 37.2963 25.4191 36.453 24.7771C35.524 24.0893 34.7379 23.0193 34.3663 21.873L34.3234 21.7354L34.2806 21.6131L34.2663 21.552V25.6331H31.6936V20.8641L28.8779 17.9141L28.835 17.8988Z" fill="#FFF"/>
<path d="M9.85511 16.6455V25.6484H7.26813V16.6455H5.68164V13.8789H11.4559V16.6455H9.85511Z" fill="#FFF"/>
<path d="M5.49657 7.79546V12.5339L4.08159 13.8484C4.08159 13.8484 4.36744 13.8484 4.66759 13.8789C4.8534 13.8942 5.11066 13.9248 5.25359 13.9859V16.5844C5.25359 16.5844 4.68188 16.4927 4.38174 16.4927C4.15305 16.4927 3.70998 16.508 3.49559 16.722C3.16686 17.043 3.03822 17.6544 3.4813 17.9754L5.2393 19.2593C6.86867 20.5738 6.62569 23.6003 4.95344 24.8842C4.32457 25.3581 3.79573 25.6026 2.89529 25.6638C2.22354 25.7096 1.45173 25.6332 0.351191 25.5109V22.6832C0.351191 22.6832 1.08012 22.7596 1.5089 22.7902C1.92339 22.8207 2.45222 22.8513 2.83812 22.7443C3.16686 22.6526 3.33837 22.301 3.36695 21.9648C3.42412 21.4909 3.19544 21.1241 2.83812 20.8642C2.40934 20.5433 1.96627 20.2376 1.53749 19.9013C0.579875 19.1676 0.0796299 17.8225 0.322606 16.5844C0.45124 15.9271 0.722802 15.3463 1.16588 14.8572C1.56607 14.4292 2.22354 13.9707 2.80954 13.9401L2.92388 13.9095V0.397461H5.51086V5.04414H7.61189V0.397461H10.1989V12.167H7.61189V7.79546H5.49657Z" fill="#FFF"/>
<path d="M54.2764 3.25578C54.0763 2.78194 53.7476 2.20111 53.4046 1.83426C52.304 0.611453 51.0891 0.397461 50.2602 0.397461H47.0586V12.167H49.6456V9.55325L49.6313 9.49211L51.2749 12.1517H54.3765L52.4612 9.04884C53.1473 8.682 53.719 7.94831 54.0906 7.2452C54.4336 6.57265 54.648 5.67083 54.6337 4.79958C54.6337 4.24931 54.4765 3.71433 54.2764 3.25578ZM50.1744 6.66436H49.6456V3.16407H50.0887C50.5889 3.16407 51.7323 3.53091 51.7752 4.84543C51.8038 6.32809 50.546 6.66436 50.1744 6.66436Z" fill="#FFF"/>
<path d="M25.8765 21.1088L25.2333 18.3422H22.3462V16.6608H25.6906V13.8789H19.7592V18.3422H19.6305C19.6448 17.639 19.3876 16.4621 18.4871 15.3921C17.458 14.1693 16.2432 13.8942 15.3713 13.8942H15.2713H12.084V25.6637H14.671V23.0347V22.9888L16.3146 25.6484H19.4019L17.4866 22.5456C18.1441 22.1176 18.5014 21.7202 18.773 21.3228C19.0588 20.8948 19.3733 20.3598 19.459 19.8248L19.4733 19.8095L19.7592 21.0782V25.6332H25.6906V22.8666H22.3462V21.0782H25.8765V21.1088ZM15.1712 20.1611H14.671V16.6608H15.1998C16.0431 16.6608 16.8149 17.4403 16.8149 18.3727C16.8006 19.3051 16.1145 20.1611 15.1712 20.1611Z" fill="#FFF"/>
<path d="M11.1699 12.167H13.7569V7.79542H15.8722V12.1517H18.4592V3.88242C18.5021 2.82775 18.0018 1.72722 17.3015 1.0241C16.544 0.259847 15.5863 0 14.5716 0C13.5997 0 12.6278 0.62669 12.0275 1.40623C11.6844 1.83422 11.4843 2.30805 11.3271 2.82775C11.1699 3.33216 11.1842 3.89771 11.1842 4.43269C11.1842 4.53968 11.1842 5.04409 11.1842 5.04409H10.541L11.1699 7.79542V12.167ZM13.7569 4.35626C13.7569 3.74486 13.7998 3.11817 14.3858 2.84303C14.8431 2.62904 15.4005 2.78189 15.6864 3.22516C15.9294 3.60729 15.8722 4.06584 15.8722 4.50911V5.02881H13.7569V4.35626Z" fill="#FFF"/>
<path d="M57.3205 14.9029C57.3205 14.3526 57.7064 13.9399 58.1923 13.9399C58.6783 13.9399 59.0642 14.3526 59.0642 14.9029C59.0642 15.4531 58.6783 15.8658 58.1923 15.8658C57.7064 15.8658 57.3205 15.4531 57.3205 14.9029ZM58.1923 16.0645C58.7783 16.0645 59.2786 15.5754 59.2786 14.9029C59.2786 14.2456 58.7783 13.7412 58.1923 13.7412C57.592 13.7412 57.0918 14.2303 57.0918 14.9029C57.0918 15.5754 57.6063 16.0645 58.1923 16.0645ZM57.9636 14.9946H58.178L58.5068 15.5754H58.7212L58.3638 14.9946C58.5496 14.964 58.6926 14.8723 58.6926 14.6277C58.6926 14.3679 58.5496 14.2456 58.2495 14.2456H57.7778V15.5754H57.9636V14.9946ZM57.9636 14.8265V14.4138H58.2209C58.3496 14.4138 58.4925 14.4443 58.4925 14.6125C58.4925 14.8112 58.3496 14.8265 58.1923 14.8265H57.9636Z" fill="#FFF"/>
</g>
<defs>
<clipPath id="clip0">
<rect width="59.0432" height="26" fill="white" transform="translate(0.25)"/>
</clipPath>
</defs>
</svg>
