<svg width="69" height="30" viewBox="0 0 69 30" fill="none" xmlns="http://www.w3.org/2000/svg">
<path d="M56.4857 29.0173C56.4857 29.0402 56.4857 29.0402 56.4633 29.063C56.4633 29.0859 56.4409 29.0859 56.4185 29.0859C56.396 29.0859 56.3512 29.1087 56.3063 29.1087C56.2615 29.1087 56.2166 29.1087 56.1493 29.1087C56.0821 29.1087 56.0372 29.1087 55.9923 29.1087C55.9475 29.1087 55.9251 29.0859 55.8802 29.0859C55.8578 29.0859 55.8354 29.063 55.8354 29.063C55.8354 29.0402 55.8129 29.0402 55.8129 29.0173V26.2755H55.0952C55.0504 26.6868 55.0055 27.0295 54.9383 27.3265C54.8934 27.6236 54.8261 27.8749 54.7813 28.1034C54.714 28.309 54.6691 28.4918 54.6018 28.6289C54.5346 28.766 54.4448 28.8802 54.3776 28.9488C54.2879 29.0173 54.1981 29.0859 54.086 29.1087C53.9739 29.1316 53.8617 29.1544 53.7047 29.1544C53.6823 29.1544 53.6599 29.1544 53.6375 29.1544C53.615 29.1544 53.615 29.1316 53.5926 29.1087C53.5702 29.0859 53.5702 29.063 53.5702 29.0173C53.5702 28.9716 53.5702 28.9488 53.5702 28.8802C53.5702 28.8117 53.5702 28.7431 53.5702 28.6974C53.5702 28.6517 53.5702 28.606 53.5926 28.5832C53.5926 28.5603 53.615 28.5375 53.6375 28.5375C53.6599 28.5375 53.6599 28.5146 53.6823 28.5146C53.7272 28.5146 53.7945 28.5146 53.8393 28.4918C53.8842 28.469 53.929 28.4233 53.9739 28.3547C54.0187 28.2862 54.0636 28.1948 54.1084 28.0805C54.1533 27.9663 54.1981 27.8063 54.243 27.6236C54.2879 27.4408 54.3327 27.1894 54.3551 26.9153C54.4 26.6411 54.4448 26.3212 54.4673 25.9328C54.4673 25.8414 54.4897 25.7728 54.5346 25.75C54.557 25.7043 54.6018 25.7043 54.6691 25.7043H56.3063C56.3736 25.7043 56.4185 25.7271 56.4409 25.75C56.4633 25.7957 56.4857 25.8414 56.4857 25.9099V29.0173ZM52.6507 27.3951C52.6507 27.2123 52.6282 27.0523 52.6058 26.9153C52.5834 26.7782 52.5385 26.6411 52.4712 26.5497C52.4039 26.4354 52.3142 26.3669 52.2021 26.2983C52.09 26.2527 51.9554 26.207 51.7984 26.207C51.6414 26.207 51.4844 26.2298 51.3723 26.2983C51.2602 26.3669 51.1704 26.4583 51.1032 26.5497C51.0359 26.6639 50.991 26.7782 50.9686 26.9153C50.9462 27.0523 50.9237 27.2123 50.9237 27.3722C50.9237 27.555 50.9462 27.715 50.9686 27.8749C50.991 28.012 51.0359 28.1491 51.1032 28.2633C51.1704 28.3776 51.2602 28.4461 51.3723 28.5146C51.4844 28.5603 51.619 28.606 51.776 28.606C51.933 28.606 52.09 28.5832 52.2021 28.5146C52.3142 28.4461 52.4039 28.3547 52.4712 28.2633C52.5385 28.1491 52.5834 28.0348 52.6058 27.8749C52.6282 27.715 52.6507 27.555 52.6507 27.3951ZM53.3683 27.3494C53.3683 27.6236 53.3235 27.8749 53.2562 28.1034C53.1889 28.3319 53.0768 28.5146 52.9422 28.6746C52.8076 28.8345 52.6282 28.9488 52.4488 29.0402C52.247 29.1316 52.0227 29.1544 51.7536 29.1544C51.4844 29.1544 51.2602 29.1087 51.0807 29.0402C50.8789 28.9716 50.7219 28.8574 50.5873 28.7203C50.4528 28.5832 50.3631 28.4004 50.2958 28.1719C50.2285 27.9434 50.2061 27.6921 50.2061 27.3951C50.2061 27.1209 50.2509 26.8696 50.3182 26.6639C50.3855 26.4354 50.4976 26.2527 50.6322 26.0927C50.7667 25.9328 50.9462 25.8185 51.1256 25.75C51.3274 25.6586 51.5517 25.6357 51.8208 25.6357C52.0675 25.6357 52.2918 25.6586 52.4937 25.7271C52.6955 25.7957 52.8525 25.9099 52.9871 26.047C53.1216 26.1841 53.2113 26.3669 53.2786 26.5725C53.3235 26.801 53.3683 27.0523 53.3683 27.3494ZM49.9145 28.9945C49.9145 29.0173 49.9145 29.0402 49.8921 29.0402C49.8921 29.063 49.8697 29.063 49.8472 29.063C49.8248 29.063 49.7799 29.0859 49.7351 29.0859C49.6902 29.0859 49.6229 29.0859 49.5557 29.0859C49.4884 29.0859 49.4211 29.0859 49.3762 29.0859C49.3314 29.0859 49.2865 29.063 49.2641 29.063C49.2417 29.063 49.2193 29.0402 49.1968 29.0173C49.1744 28.9945 49.1744 28.9716 49.1744 28.9488L48.9053 28.1948C48.8604 28.0805 48.838 27.9891 48.7931 27.9206C48.7483 27.852 48.7034 27.7835 48.6586 27.7378C48.6137 27.6921 48.5464 27.6693 48.4791 27.6464C48.4119 27.6236 48.3446 27.6236 48.2549 27.6236H48.0979V28.9945C48.0979 29.0173 48.0979 29.0402 48.0755 29.0402C48.0755 29.063 48.053 29.063 48.0306 29.063C48.0082 29.063 47.9633 29.0859 47.9185 29.0859C47.8736 29.0859 47.8288 29.0859 47.7615 29.0859C47.6942 29.0859 47.6493 29.0859 47.6045 29.0859C47.5596 29.0859 47.5372 29.063 47.4923 29.063C47.4699 29.063 47.4475 29.0402 47.4475 29.0402C47.4251 29.0173 47.4251 29.0173 47.4251 28.9945V25.7728C47.4251 25.75 47.4251 25.7271 47.4475 25.7271C47.4699 25.7043 47.4699 25.7043 47.4923 25.7043C47.5148 25.7043 47.5596 25.6814 47.6045 25.6814C47.6493 25.6814 47.6942 25.6814 47.7615 25.6814C47.8288 25.6814 47.8736 25.6814 47.9185 25.6814C47.9633 25.6814 47.9857 25.6814 48.0306 25.7043C48.053 25.7043 48.0755 25.7271 48.0755 25.7271C48.0755 25.75 48.0979 25.75 48.0979 25.7728V27.0523H48.2549C48.3222 27.0523 48.4119 27.0523 48.4567 27.0295C48.524 27.0067 48.5689 26.9838 48.6137 26.9381C48.6586 26.8924 48.7034 26.8239 48.7483 26.7553C48.7931 26.6868 48.8156 26.5954 48.8604 26.4811L49.0847 25.7957C49.0847 25.7728 49.1071 25.75 49.1071 25.7271C49.1295 25.7043 49.1295 25.7043 49.1744 25.6814C49.1968 25.6814 49.2417 25.6586 49.2865 25.6586C49.3314 25.6586 49.3987 25.6586 49.466 25.6586C49.5332 25.6586 49.5781 25.6586 49.6229 25.6586C49.6678 25.6586 49.6902 25.6586 49.7351 25.6814C49.7575 25.6814 49.7799 25.7043 49.7799 25.7043C49.7799 25.7271 49.8024 25.7271 49.8024 25.75C49.8024 25.7728 49.8024 25.7957 49.7799 25.8414C49.7799 25.8642 49.7575 25.9099 49.7351 25.9785L49.5108 26.5725C49.466 26.6868 49.4211 26.7782 49.3762 26.8696C49.3314 26.9381 49.2865 27.0066 49.2417 27.0752C49.1968 27.1209 49.152 27.1666 49.1071 27.2123C49.0623 27.258 48.995 27.2808 48.9501 27.3037C49.0174 27.3265 49.0847 27.3722 49.1295 27.3951C49.1968 27.4408 49.2417 27.4865 49.2865 27.5322C49.3314 27.6007 49.3762 27.6693 49.4211 27.7378C49.466 27.8292 49.5108 27.9206 49.5557 28.0577L49.8248 28.766C49.8472 28.8345 49.8696 28.8802 49.8696 28.9259C49.9145 28.9716 49.9145 28.9945 49.9145 28.9945ZM46.6177 29.0173C46.6177 29.0402 46.6177 29.0402 46.5952 29.063C46.5728 29.0859 46.5728 29.0859 46.5504 29.0859C46.528 29.0859 46.4831 29.1087 46.4383 29.1087C46.3934 29.1087 46.3485 29.1087 46.2813 29.1087C46.214 29.1087 46.1691 29.1087 46.1243 29.1087C46.0794 29.1087 46.057 29.0859 46.0121 29.0859C45.9897 29.0859 45.9673 29.063 45.9673 29.063C45.9673 29.0402 45.9448 29.0402 45.9448 29.0173V27.2351C45.9448 27.1666 45.9448 27.098 45.9448 27.0295C45.9448 26.961 45.9448 26.9153 45.9448 26.8467C45.9224 26.8696 45.9224 26.8924 45.9 26.9381C45.8776 26.961 45.8551 27.0067 45.8327 27.0295C45.8103 27.0752 45.7879 27.098 45.7654 27.1437C45.743 27.1894 45.7206 27.2123 45.6981 27.258L44.5319 29.0173C44.5095 29.0402 44.5095 29.063 44.4871 29.063C44.4646 29.0859 44.4646 29.0859 44.4198 29.0859C44.3974 29.0859 44.3749 29.1087 44.3301 29.1087C44.3076 29.1087 44.2628 29.1087 44.1955 29.1087C44.1282 29.1087 44.0834 29.1087 44.0385 29.1087C43.9937 29.1087 43.9712 29.0859 43.9488 29.0859C43.9264 29.0859 43.9039 29.063 43.9039 29.063C43.9039 29.0402 43.8815 29.0402 43.8815 29.0173V25.7957C43.8815 25.7728 43.8815 25.7728 43.9039 25.75C43.9264 25.7271 43.9264 25.7271 43.9712 25.7271C43.9937 25.7271 44.0385 25.7043 44.0834 25.7043C44.1282 25.7043 44.1731 25.7043 44.2404 25.7043C44.3076 25.7043 44.3525 25.7043 44.3974 25.7043C44.4422 25.7043 44.4646 25.7271 44.5095 25.7271C44.5319 25.7271 44.5543 25.75 44.5543 25.75C44.5543 25.7728 44.5768 25.7728 44.5768 25.7957V27.6007C44.5768 27.6464 44.5768 27.715 44.5768 27.7835C44.5768 27.852 44.5768 27.8977 44.5768 27.9663C44.5992 27.9206 44.6441 27.852 44.6889 27.7835C44.7338 27.715 44.7786 27.6464 44.8235 27.5779L45.9897 25.8185C46.0121 25.7957 46.0121 25.7957 46.0346 25.7728C46.057 25.75 46.057 25.75 46.0794 25.75C46.1018 25.75 46.1243 25.7271 46.1691 25.7271C46.214 25.7271 46.2364 25.7271 46.3037 25.7271C46.371 25.7271 46.4158 25.7271 46.4607 25.7271C46.5055 25.7271 46.528 25.75 46.5504 25.75C46.5728 25.75 46.5952 25.7728 46.5952 25.7728C46.5952 25.7957 46.6177 25.7957 46.6177 25.8185V29.0173ZM43.0966 28.9945C43.0966 29.0173 43.0966 29.0173 43.0741 29.0402C43.0517 29.063 43.0517 29.063 43.0293 29.063C43.0069 29.063 42.962 29.0859 42.9171 29.0859C42.8723 29.0859 42.8274 29.0859 42.7602 29.0859C42.6929 29.0859 42.648 29.0859 42.6032 29.0859C42.5583 29.0859 42.5359 29.063 42.491 29.063C42.4686 29.063 42.4462 29.0402 42.4462 29.0402C42.4237 29.0173 42.4237 29.0173 42.4237 28.9945V27.6236H41.1678V28.9945C41.1678 29.0173 41.1678 29.0173 41.1454 29.0402C41.1454 29.063 41.1229 29.063 41.1005 29.063C41.0781 29.063 41.0332 29.0859 40.9884 29.0859C40.9435 29.0859 40.8987 29.0859 40.8314 29.0859C40.7641 29.0859 40.7193 29.0859 40.6744 29.0859C40.6295 29.0859 40.6071 29.063 40.5623 29.063C40.5398 29.063 40.5174 29.0402 40.5174 29.0402C40.495 29.0173 40.495 29.0173 40.495 28.9945V25.7728C40.495 25.75 40.495 25.75 40.5174 25.7271C40.5398 25.7043 40.5398 25.7043 40.5623 25.7043C40.5847 25.7043 40.6295 25.6814 40.6744 25.6814C40.7193 25.6814 40.7641 25.6814 40.8314 25.6814C40.8987 25.6814 40.9435 25.6814 40.9884 25.6814C41.0332 25.6814 41.0557 25.7043 41.1005 25.7043C41.1229 25.7043 41.1454 25.7271 41.1454 25.7271C41.1454 25.75 41.1678 25.75 41.1678 25.7728V27.0295H42.4237V25.7728C42.4237 25.75 42.4237 25.75 42.4462 25.7271C42.4686 25.7043 42.4686 25.7043 42.491 25.7043C42.5134 25.7043 42.5583 25.6814 42.6032 25.6814C42.648 25.6814 42.6929 25.6814 42.7602 25.6814C42.8274 25.6814 42.8723 25.6814 42.9171 25.6814C42.962 25.6814 42.9844 25.7043 43.0293 25.7043C43.0517 25.7043 43.0741 25.7271 43.0741 25.7271C43.0966 25.75 43.0966 25.75 43.0966 25.7728V28.9945ZM36.0095 26.344L35.5385 27.7835H36.4805L36.0095 26.344ZM37.557 28.8345C37.5794 28.9031 37.5794 28.9488 37.6018 28.9945C37.6018 29.0402 37.6018 29.063 37.5794 29.0859C37.557 29.1087 37.5346 29.1087 37.4673 29.1087C37.4224 29.1087 37.3551 29.1087 37.2654 29.1087C37.1757 29.1087 37.1084 29.1087 37.0636 29.1087C37.0187 29.1087 36.9739 29.1087 36.9514 29.0859C36.929 29.0859 36.9066 29.063 36.9066 29.063C36.9066 29.0402 36.8842 29.0402 36.8842 29.0173L36.6599 28.3319H35.4039L35.2021 28.9945C35.2021 29.0173 35.1797 29.0402 35.1797 29.063C35.1797 29.0859 35.1572 29.0859 35.1348 29.1087C35.1124 29.1087 35.0675 29.1316 35.0227 29.1316C34.9778 29.1316 34.9105 29.1316 34.8433 29.1316C34.7536 29.1316 34.7087 29.1316 34.6638 29.1316C34.619 29.1316 34.5966 29.1087 34.5741 29.0859C34.5517 29.063 34.5517 29.0402 34.5517 28.9945C34.5517 28.9488 34.5741 28.9031 34.5966 28.8574L35.6282 25.8414C35.6282 25.8185 35.6507 25.7957 35.6731 25.7728C35.6955 25.75 35.7179 25.75 35.7404 25.7271C35.7628 25.7271 35.8076 25.7043 35.8749 25.7043C35.9198 25.7043 35.9871 25.7043 36.0768 25.7043C36.1889 25.7043 36.2562 25.7043 36.3235 25.7043C36.3908 25.7043 36.4356 25.7043 36.458 25.7271C36.4805 25.7271 36.5253 25.75 36.5253 25.7728C36.5477 25.7957 36.5478 25.8185 36.5702 25.8414L37.557 28.8345ZM33.7892 26.7782C33.7892 26.6639 33.7667 26.5497 33.7219 26.4811C33.677 26.4126 33.6322 26.344 33.5649 26.3212C33.4976 26.2755 33.4303 26.2527 33.3855 26.2527C33.3182 26.2527 33.2509 26.2298 33.1836 26.2298H32.8921V27.3951H33.2061C33.3182 27.3951 33.4079 27.3722 33.4752 27.3494C33.5425 27.3265 33.6098 27.2808 33.6546 27.2351C33.6995 27.1894 33.7443 27.1209 33.7667 27.0523C33.7892 26.9381 33.7892 26.8696 33.7892 26.7782ZM34.5069 26.7325C34.5069 26.9153 34.4844 27.098 34.4171 27.2351C34.3499 27.3722 34.2826 27.5093 34.1704 27.6007C34.0583 27.6921 33.9237 27.7835 33.7667 27.8292C33.6098 27.8749 33.4079 27.8977 33.1836 27.8977H32.9145V28.9716C32.9145 28.9945 32.9145 28.9945 32.8921 29.0173C32.8696 29.0402 32.8696 29.0402 32.8472 29.0402C32.8248 29.0402 32.7799 29.063 32.7351 29.063C32.6902 29.063 32.6454 29.063 32.5781 29.063C32.5108 29.063 32.466 29.063 32.4211 29.063C32.3762 29.063 32.3538 29.0402 32.309 29.0402C32.2865 29.0402 32.2641 29.0173 32.2641 29.0173C32.2641 28.9945 32.2417 28.9945 32.2417 28.9716V25.9099C32.2417 25.8185 32.2641 25.7728 32.309 25.7271C32.3538 25.6814 32.3987 25.6586 32.466 25.6586H33.2509C33.3406 25.6586 33.4079 25.6586 33.4752 25.6586C33.5425 25.6586 33.6322 25.6814 33.7219 25.7043C33.8116 25.7271 33.9237 25.7728 34.0134 25.8185C34.1256 25.8642 34.1929 25.9328 34.2826 26.0242C34.3499 26.1156 34.4171 26.207 34.4396 26.3212C34.4844 26.4583 34.5069 26.5954 34.5069 26.7325ZM31.3894 29.0173C31.3894 29.0402 31.3894 29.0402 31.367 29.063C31.3446 29.0859 31.3446 29.0859 31.3222 29.0859C31.2997 29.0859 31.2549 29.1087 31.21 29.1087C31.1652 29.1087 31.1203 29.1087 31.053 29.1087C30.9857 29.1087 30.9409 29.1087 30.896 29.1087C30.8512 29.1087 30.8288 29.0859 30.7839 29.0859C30.7615 29.0859 30.739 29.063 30.739 29.063C30.739 29.0402 30.7166 29.0402 30.7166 29.0173V27.2351C30.7166 27.1666 30.7166 27.098 30.7166 27.0295C30.7166 26.961 30.7166 26.9153 30.7166 26.8467C30.6942 26.8696 30.6942 26.8924 30.6718 26.9381C30.6493 26.961 30.6269 27.0067 30.6045 27.0295C30.5821 27.0752 30.5596 27.098 30.5372 27.1437C30.5148 27.1894 30.4923 27.2123 30.4699 27.258L29.3037 29.0173C29.2813 29.0402 29.2813 29.063 29.2588 29.063C29.2364 29.0859 29.2364 29.0859 29.1915 29.0859C29.1691 29.0859 29.1467 29.1087 29.1018 29.1087C29.0794 29.1087 29.0346 29.1087 28.9673 29.1087C28.9 29.1087 28.8551 29.1087 28.8103 29.1087C28.7654 29.1087 28.743 29.0859 28.7206 29.0859C28.6981 29.0859 28.6757 29.063 28.6757 29.063C28.6757 29.0402 28.6533 29.0402 28.6533 29.0173V25.7957C28.6533 25.7728 28.6533 25.7728 28.6757 25.75C28.6981 25.7271 28.6981 25.7271 28.743 25.7271C28.7654 25.7271 28.8103 25.7043 28.8551 25.7043C28.9 25.7043 28.9448 25.7043 29.0121 25.7043C29.0794 25.7043 29.1243 25.7043 29.1691 25.7043C29.214 25.7043 29.2364 25.7271 29.2813 25.7271C29.3037 25.7271 29.3261 25.75 29.3261 25.75C29.3261 25.7728 29.3485 25.7728 29.3485 25.7957V27.6007C29.3485 27.6464 29.3485 27.715 29.3485 27.7835C29.3485 27.852 29.3485 27.8977 29.3485 27.9663C29.371 27.9206 29.4158 27.852 29.4607 27.7835C29.5055 27.715 29.5504 27.6464 29.5952 27.5779L30.7615 25.8185C30.7839 25.7957 30.7839 25.7957 30.8063 25.7728C30.8288 25.75 30.8288 25.75 30.8512 25.75C30.8736 25.75 30.896 25.7271 30.9409 25.7271C30.9857 25.7271 31.0082 25.7271 31.0755 25.7271C31.1427 25.7271 31.1876 25.7271 31.2324 25.7271C31.2773 25.7271 31.2997 25.75 31.3222 25.75C31.3446 25.75 31.367 25.7728 31.367 25.7728C31.367 25.7957 31.3894 25.7957 31.3894 25.8185V29.0173ZM27.8683 28.9945C27.8683 29.0173 27.8683 29.0173 27.8459 29.0402C27.8459 29.063 27.8235 29.063 27.801 29.063C27.7786 29.063 27.7338 29.0859 27.7113 29.0859C27.6665 29.0859 27.6216 29.0859 27.5543 29.0859C27.4871 29.0859 27.4422 29.0859 27.3974 29.0859C27.3525 29.0859 27.3301 29.063 27.3076 29.063C27.2852 29.063 27.2628 29.0402 27.2628 29.0402C27.2628 29.0173 27.2404 29.0173 27.2404 28.9945V26.2298L26.276 28.9945C26.276 29.0173 26.2536 29.0402 26.2536 29.0402C26.2311 29.063 26.2087 29.063 26.1863 29.0859C26.1638 29.0859 26.119 29.1087 26.0741 29.1087C26.0293 29.1087 25.9844 29.1087 25.9171 29.1087C25.8499 29.1087 25.805 29.1087 25.7602 29.1087C25.7153 29.1087 25.6929 29.0859 25.648 29.0859C25.6256 29.0859 25.6032 29.063 25.5807 29.0402C25.5583 29.0173 25.5583 29.0173 25.5583 28.9945L24.6388 26.2298V28.9945C24.6388 29.0173 24.6388 29.0173 24.6164 29.0402C24.6164 29.063 24.5939 29.063 24.5715 29.063C24.5491 29.063 24.5042 29.0859 24.4818 29.0859C24.4369 29.0859 24.3921 29.0859 24.3248 29.0859C24.2575 29.0859 24.2127 29.0859 24.1678 29.0859C24.1229 29.0859 24.1005 29.063 24.0781 29.063C24.0557 29.063 24.0332 29.0402 24.0332 29.0402C24.0332 29.0173 24.0108 29.0173 24.0108 28.9945V25.9556C24.0108 25.8642 24.0332 25.7957 24.0781 25.75C24.1229 25.7043 24.1902 25.6814 24.2575 25.6814H24.7061C24.7958 25.6814 24.8631 25.6814 24.9079 25.7043C24.9752 25.7271 25.02 25.75 25.0649 25.7728C25.1098 25.7957 25.1322 25.8414 25.177 25.8871C25.1995 25.9328 25.2219 26.0013 25.2443 26.0699L25.962 28.1034L26.7021 26.0927C26.7245 26.0242 26.747 25.9556 26.7694 25.9099C26.7918 25.8642 26.8367 25.8185 26.8591 25.7957C26.9039 25.7728 26.9264 25.75 26.9937 25.7271C27.0385 25.7043 27.1058 25.7043 27.1507 25.7043H27.5992C27.6441 25.7043 27.6889 25.7043 27.7113 25.7271C27.7338 25.75 27.7786 25.75 27.801 25.7728C27.8235 25.7957 27.8459 25.8185 27.8459 25.8642C27.8683 25.8871 27.8683 25.9328 27.8683 25.9785V28.9945ZM23.1586 29.0173C23.1586 29.0402 23.1586 29.0402 23.1361 29.063C23.1137 29.0859 23.1137 29.0859 23.0913 29.0859C23.0689 29.0859 23.024 29.1087 22.9791 29.1087C22.9343 29.1087 22.8894 29.1087 22.8222 29.1087C22.7549 29.1087 22.71 29.1087 22.6652 29.1087C22.6203 29.1087 22.5979 29.0859 22.553 29.0859C22.5306 29.0859 22.5082 29.063 22.5082 29.063C22.5082 29.0402 22.4857 29.0402 22.4857 29.0173V27.2351C22.4857 27.1666 22.4857 27.098 22.4857 27.0295C22.4857 26.961 22.4857 26.9153 22.4857 26.8467C22.4633 26.8696 22.4633 26.8924 22.4409 26.9381C22.4185 26.961 22.396 27.0067 22.3736 27.0295C22.3512 27.0752 22.3288 27.098 22.3063 27.1437C22.2839 27.1894 22.2615 27.2123 22.239 27.258L21.0728 29.0173C21.0504 29.0402 21.0504 29.063 21.028 29.063C21.0055 29.0859 21.0055 29.0859 20.9607 29.0859C20.9383 29.0859 20.9158 29.1087 20.871 29.1087C20.8485 29.1087 20.8037 29.1087 20.7364 29.1087C20.6691 29.1087 20.6243 29.1087 20.5794 29.1087C20.5346 29.1087 20.5121 29.0859 20.4897 29.0859C20.4673 29.0859 20.4448 29.063 20.4448 29.063C20.4448 29.0402 20.4224 29.0402 20.4224 29.0173V25.7957C20.4224 25.7728 20.4224 25.7728 20.4448 25.75C20.4673 25.7271 20.4673 25.7271 20.5121 25.7271C20.5346 25.7271 20.5794 25.7043 20.6243 25.7043C20.6691 25.7043 20.714 25.7043 20.7813 25.7043C20.8485 25.7043 20.8934 25.7043 20.9383 25.7043C20.9831 25.7043 21.0055 25.7271 21.0504 25.7271C21.0728 25.7271 21.0952 25.75 21.0952 25.75C21.0952 25.7728 21.1177 25.7728 21.1177 25.7957V27.6007C21.1177 27.6464 21.1177 27.715 21.1177 27.7835C21.1177 27.852 21.1177 27.8977 21.1177 27.9663C21.1401 27.9206 21.185 27.852 21.2298 27.7835C21.2747 27.715 21.3195 27.6464 21.3644 27.5779L22.5306 25.8185C22.553 25.7957 22.553 25.7957 22.5755 25.7728C22.5979 25.75 22.5979 25.75 22.6203 25.75C22.6427 25.75 22.6652 25.7271 22.71 25.7271C22.7549 25.7271 22.7773 25.7271 22.8446 25.7271C22.9119 25.7271 22.9567 25.7271 23.0016 25.7271C23.0464 25.7271 23.0689 25.75 23.0913 25.75C23.1137 25.75 23.1361 25.7728 23.1361 25.7728C23.1361 25.7957 23.1586 25.7957 23.1586 25.8185V29.0173ZM18.8076 26.2527H18.0227C18.0003 26.5268 17.9554 26.7553 17.933 26.961C17.9105 27.1666 17.8657 27.3494 17.8433 27.4865C17.8208 27.6464 17.776 27.7606 17.7536 27.8749C17.7311 27.9891 17.6863 28.0805 17.6638 28.1719C17.6414 28.2405 17.5966 28.3319 17.5741 28.3776C17.5293 28.4461 17.5069 28.4918 17.462 28.5375H18.8076V26.2527ZM19.8842 29.8856C19.8842 29.9084 19.8842 29.9084 19.8617 29.9313C19.8617 29.9541 19.8393 29.9541 19.8169 29.9541C19.7945 29.9541 19.772 29.9769 19.7272 29.9769C19.6823 29.9769 19.6375 29.9769 19.5702 29.9769C19.5029 29.9769 19.458 29.9769 19.4356 29.9769C19.3908 29.9769 19.3683 29.977 19.3459 29.9541C19.3235 29.9541 19.301 29.9313 19.301 29.9313C19.301 29.9084 19.2786 29.9084 19.2786 29.8856V29.0859H17.0583V29.8856C17.0583 29.9084 17.0583 29.9084 17.0359 29.9313C17.0359 29.9541 17.0134 29.9541 16.991 29.9541C16.9686 29.9541 16.9462 29.9769 16.9013 29.9769C16.8565 29.9769 16.8116 29.9769 16.7667 29.9769C16.6995 29.9769 16.6546 29.9769 16.6322 29.9769C16.5873 29.9769 16.5649 29.977 16.5425 29.9541C16.52 29.9541 16.4976 29.9313 16.4976 29.9313C16.4976 29.9084 16.4752 29.9084 16.4752 29.8856V28.6746C16.4752 28.6289 16.4752 28.5832 16.4976 28.5603C16.52 28.5375 16.5425 28.5375 16.5873 28.5375H16.7443C16.7892 28.469 16.834 28.4233 16.8565 28.3547C16.9013 28.2862 16.9237 28.2176 16.9686 28.1262C17.0134 28.0348 17.0359 27.9434 17.0807 27.8063C17.1032 27.6921 17.148 27.5322 17.1704 27.3722C17.1929 27.1894 17.2377 26.9838 17.2601 26.7553C17.2826 26.5268 17.3274 26.2298 17.3723 25.9099C17.3723 25.8414 17.3947 25.7728 17.4396 25.7271C17.462 25.6814 17.5069 25.6814 17.5741 25.6814H19.2786C19.3459 25.6814 19.3908 25.7043 19.4132 25.7271C19.458 25.7728 19.458 25.8185 19.458 25.8871V28.5146H19.7496C19.7945 28.5146 19.8393 28.5375 19.8393 28.5603C19.8617 28.5832 19.8617 28.6289 19.8617 28.6746V29.8856H19.8842ZM14.7258 26.344L14.2549 27.7835H15.1968L14.7258 26.344ZM16.2509 28.8345C16.2733 28.9031 16.2733 28.9488 16.2958 28.9945C16.2958 29.0402 16.2958 29.063 16.2733 29.0859C16.2509 29.1087 16.2285 29.1087 16.1612 29.1087C16.1164 29.1087 16.0491 29.1087 15.9594 29.1087C15.8696 29.1087 15.8024 29.1087 15.7575 29.1087C15.7127 29.1087 15.6678 29.1087 15.6454 29.0859C15.6229 29.0859 15.6005 29.063 15.6005 29.063C15.6005 29.0402 15.5781 29.0402 15.5781 29.0173L15.3538 28.3319H14.0979L13.896 28.9945C13.896 29.0173 13.8736 29.0402 13.8736 29.063C13.8736 29.0859 13.8512 29.0859 13.8288 29.1087C13.8063 29.1087 13.7615 29.1316 13.7166 29.1316C13.6718 29.1316 13.6045 29.1316 13.5372 29.1316C13.4475 29.1316 13.4026 29.1316 13.3578 29.1316C13.3129 29.1316 13.2905 29.1087 13.2681 29.0859C13.2456 29.063 13.2456 29.0402 13.2456 28.9945C13.2456 28.9488 13.2681 28.9031 13.2905 28.8574L14.3222 25.8414C14.3222 25.8185 14.3446 25.7957 14.367 25.7728C14.3894 25.75 14.4119 25.75 14.4343 25.7271C14.4567 25.7271 14.5016 25.7043 14.5689 25.7043C14.6137 25.7043 14.681 25.7043 14.7707 25.7043C14.8828 25.7043 14.9501 25.7043 15.0174 25.7043C15.0847 25.7043 15.1295 25.7043 15.152 25.7271C15.1744 25.7271 15.2193 25.75 15.2193 25.7728C15.2417 25.7957 15.2417 25.8185 15.2641 25.8414L16.2509 28.8345ZM12.7074 29.0173C12.7074 29.0402 12.7074 29.0402 12.685 29.063C12.685 29.0859 12.6625 29.0859 12.6401 29.0859C12.6177 29.0859 12.5728 29.1087 12.528 29.1087C12.4831 29.1087 12.4383 29.1087 12.371 29.1087C12.3037 29.1087 12.2588 29.1087 12.214 29.1087C12.1691 29.1087 12.1467 29.0859 12.1018 29.0859C12.0794 29.0859 12.057 29.063 12.057 29.063C12.057 29.0402 12.0346 29.0402 12.0346 29.0173V26.2755H11.3169C11.272 26.6868 11.2272 27.0295 11.1599 27.3265C11.115 27.6236 11.0477 27.8749 11.0029 28.1034C10.9356 28.309 10.8908 28.4918 10.8235 28.6289C10.7562 28.766 10.6665 28.8802 10.5992 28.9488C10.5095 29.0173 10.4198 29.0859 10.3076 29.1087C10.1955 29.1316 10.0834 29.1544 9.92638 29.1544C9.90395 29.1544 9.88152 29.1544 9.85909 29.1544C9.83667 29.1544 9.83667 29.1316 9.81424 29.1087C9.79181 29.0859 9.79181 29.063 9.79181 29.0173C9.79181 28.9716 9.79181 28.9488 9.79181 28.8802C9.79181 28.8117 9.79181 28.7431 9.79181 28.6974C9.79181 28.6517 9.79181 28.606 9.81424 28.5832C9.81424 28.5603 9.83667 28.5375 9.85909 28.5375C9.88152 28.5375 9.88152 28.5146 9.90395 28.5146C9.9488 28.5146 10.0161 28.5146 10.0609 28.4918C10.1058 28.469 10.1507 28.4233 10.1955 28.3547C10.2404 28.2862 10.2852 28.1948 10.3301 28.0805C10.3749 27.9663 10.4198 27.8063 10.4646 27.6236C10.5095 27.4408 10.5543 27.1894 10.5768 26.9153C10.6216 26.6411 10.6665 26.3212 10.6889 25.9328C10.6889 25.8414 10.7113 25.7728 10.7562 25.75C10.7786 25.7043 10.8235 25.7043 10.8908 25.7043H12.528C12.5952 25.7043 12.6401 25.7271 12.6625 25.75C12.685 25.7957 12.7074 25.8414 12.7074 25.9099V29.0173ZM8.78258 28.1034C8.78258 28.0348 8.76015 27.9434 8.73772 27.8977C8.71529 27.8292 8.67044 27.7835 8.62558 27.7378C8.58073 27.6921 8.51345 27.6693 8.44617 27.6464C8.37888 27.6236 8.26675 27.6236 8.15461 27.6236H7.72849V28.5832H8.22189C8.3116 28.5832 8.40131 28.5832 8.46859 28.5603C8.53587 28.5375 8.58073 28.5146 8.62558 28.469C8.67044 28.4233 8.71529 28.3776 8.73772 28.3319C8.76015 28.2405 8.78258 28.1719 8.78258 28.1034ZM8.60316 26.6411C8.60316 26.5725 8.60316 26.504 8.58073 26.4583C8.5583 26.4126 8.53588 26.3669 8.49102 26.3212C8.44617 26.2755 8.40131 26.2527 8.33403 26.2298C8.26675 26.207 8.17704 26.207 8.08733 26.207H7.72849V27.098H8.10975C8.19946 27.098 8.28917 27.0752 8.33403 27.0523C8.40131 27.0295 8.44617 27.0066 8.46859 26.961C8.51345 26.9153 8.53588 26.8696 8.5583 26.8239C8.60316 26.7553 8.60316 26.7096 8.60316 26.6411ZM9.47783 28.0805C9.47783 28.1948 9.4554 28.309 9.43297 28.4004C9.41055 28.4918 9.36569 28.5832 9.29841 28.6517C9.23113 28.7203 9.16384 28.7888 9.09656 28.8574C9.00685 28.9031 8.93957 28.9488 8.82743 28.9945C8.73772 29.0402 8.62558 29.063 8.51345 29.063C8.40131 29.0859 8.28917 29.0859 8.15461 29.0859H7.25751C7.19023 29.0859 7.14537 29.063 7.12295 29.0402C7.07809 29.0173 7.05566 28.9488 7.05566 28.8802V25.9099C7.05566 25.8414 7.07809 25.7728 7.12295 25.75C7.1678 25.7271 7.21266 25.7043 7.25751 25.7043H8.08733C8.28917 25.7043 8.46859 25.7271 8.60316 25.75C8.73772 25.7957 8.87229 25.8414 8.962 25.9099C9.05171 25.9785 9.14142 26.0699 9.18627 26.1841C9.23113 26.2983 9.25355 26.4126 9.25355 26.5725C9.25355 26.6639 9.25355 26.7325 9.23113 26.801C9.2087 26.8696 9.18627 26.9381 9.14142 27.0066C9.09656 27.0752 9.05171 27.1209 8.98442 27.1666C8.91714 27.2123 8.87229 27.258 8.78258 27.2808C8.87229 27.3037 8.962 27.3265 9.05171 27.3722C9.14142 27.4179 9.2087 27.4636 9.25355 27.5322C9.32084 27.6007 9.36569 27.6921 9.38812 27.7835C9.4554 27.852 9.47783 27.9663 9.47783 28.0805Z" fill="#1A284D"/>
<path d="M67.4308 26.3448L66.9598 27.7843H67.9017L67.4308 26.3448ZM68.9558 28.8353C68.9783 28.9039 68.9783 28.9495 69.0007 28.9952C69.0007 29.0409 69.0007 29.0638 68.9783 29.0866C68.9558 29.1095 68.9334 29.1095 68.8661 29.1095C68.8213 29.1095 68.754 29.1095 68.6643 29.1095C68.5746 29.1095 68.5073 29.1095 68.4624 29.1095C68.4176 29.1095 68.3727 29.1095 68.3503 29.0866C68.3279 29.0866 68.3054 29.0638 68.3054 29.0638C68.3054 29.0409 68.283 29.0409 68.283 29.0181L68.0587 28.3326H66.8028L66.6009 28.9952C66.6009 29.0181 66.5785 29.0409 66.5785 29.0638C66.5785 29.0866 66.5561 29.0866 66.5337 29.1095C66.5112 29.1095 66.4664 29.1323 66.4215 29.1323C66.3767 29.1323 66.3094 29.1323 66.2421 29.1323C66.1524 29.1323 66.1075 29.1323 66.0627 29.1323C66.0178 29.1323 65.9954 29.1095 65.973 29.0866C65.9506 29.0638 65.9505 29.0409 65.9505 28.9952C65.9505 28.9495 65.973 28.9039 65.9954 28.8582L67.0271 25.8422C67.0271 25.8193 67.0495 25.7965 67.0719 25.7736C67.0943 25.7508 67.1168 25.7508 67.1392 25.7279C67.1616 25.7279 67.2065 25.7051 67.2738 25.7051C67.3186 25.7051 67.3859 25.7051 67.4756 25.7051C67.5878 25.7051 67.655 25.7051 67.7223 25.7051C67.7896 25.7051 67.8345 25.7051 67.8569 25.7279C67.8793 25.7279 67.9242 25.7508 67.9242 25.7736C67.9466 25.7965 67.9466 25.8193 67.969 25.8422L68.9558 28.8353ZM64.9413 28.1042C64.9413 28.0356 64.9189 27.9442 64.8965 27.8985C64.874 27.83 64.8292 27.7843 64.7843 27.7386C64.7395 27.6929 64.6722 27.67 64.6049 27.6472C64.5376 27.6243 64.4255 27.6243 64.3133 27.6243H63.9096V28.584H64.4031C64.4928 28.584 64.5825 28.584 64.6498 28.5611C64.717 28.5383 64.7619 28.5154 64.8067 28.4697C64.8516 28.424 64.8965 28.3783 64.9189 28.3326C64.9413 28.2412 64.9413 28.1727 64.9413 28.1042ZM64.7843 26.6419C64.7843 26.5733 64.7843 26.5048 64.7619 26.4591C64.7395 26.4134 64.717 26.3677 64.6722 26.322C64.6273 26.2763 64.5825 26.2534 64.5152 26.2306C64.4479 26.2077 64.3582 26.2077 64.2685 26.2077H63.9321V27.0988H64.3133C64.403 27.0988 64.4928 27.076 64.5376 27.0531C64.6049 27.0303 64.6498 27.0074 64.6722 26.9617C64.717 26.916 64.7395 26.8703 64.7619 26.8246C64.7619 26.7561 64.7843 26.7104 64.7843 26.6419ZM65.659 28.0813C65.659 28.1956 65.6366 28.3098 65.6141 28.4012C65.5917 28.4926 65.5469 28.584 65.4796 28.6525C65.4123 28.7211 65.345 28.7896 65.2777 28.8582C65.188 28.9039 65.1207 28.9495 65.0086 28.9952C64.9189 29.0409 64.8067 29.0638 64.6946 29.0638C64.5825 29.0866 64.4703 29.0866 64.3358 29.0866H63.4387C63.3714 29.0866 63.3265 29.0638 63.3041 29.0409C63.2592 29.0181 63.2368 28.9495 63.2368 28.881V25.9107C63.2368 25.8422 63.2592 25.7736 63.3041 25.7508C63.349 25.7279 63.3938 25.7051 63.4387 25.7051H64.2685C64.4703 25.7051 64.6498 25.7279 64.7843 25.7508C64.9189 25.7965 65.0534 25.8422 65.1432 25.9107C65.2329 25.9793 65.3226 26.0707 65.3674 26.1849C65.4123 26.2991 65.4347 26.4134 65.4347 26.5733C65.4347 26.6647 65.4347 26.7333 65.4123 26.8018C65.3899 26.8703 65.3674 26.9389 65.3226 27.0074C65.2777 27.076 65.2329 27.1217 65.1656 27.1674C65.0983 27.2131 65.0535 27.2588 64.9637 27.2816C65.0535 27.3045 65.1432 27.3273 65.2329 27.373C65.3226 27.4187 65.3899 27.4644 65.4347 27.5329C65.502 27.6015 65.5469 27.6929 65.5693 27.7843C65.6366 27.8528 65.659 27.9671 65.659 28.0813ZM62.5416 28.8353C62.5416 28.881 62.5416 28.9267 62.5416 28.9724C62.5416 28.9952 62.5416 29.0409 62.5191 29.0638C62.5191 29.0866 62.4967 29.1095 62.4967 29.1095C62.4743 29.1095 62.4743 29.1323 62.4519 29.1323H60.7698C60.7025 29.1323 60.6577 29.1095 60.6352 29.0866C60.5904 29.0638 60.568 28.9952 60.568 28.9267V25.9564C60.568 25.8879 60.5904 25.8193 60.6352 25.7965C60.6801 25.7736 60.7249 25.7508 60.7698 25.7508H62.4294C62.4519 25.7508 62.4519 25.7508 62.4743 25.7736C62.4967 25.7736 62.4967 25.7965 62.4967 25.8193C62.4967 25.8422 62.5191 25.865 62.5191 25.9107C62.5191 25.9564 62.5191 25.9793 62.5191 26.0478C62.5191 26.0935 62.5191 26.1392 62.5191 26.162C62.5191 26.1849 62.5191 26.2306 62.4967 26.2534C62.4967 26.2763 62.4743 26.2991 62.4743 26.2991C62.4519 26.2991 62.4519 26.322 62.4294 26.322H61.2408V27.1445H62.25C62.2724 27.1445 62.2724 27.1445 62.2949 27.1674C62.3173 27.1674 62.3173 27.1902 62.3173 27.2131C62.3173 27.2359 62.3397 27.2588 62.3397 27.3045C62.3397 27.3273 62.3397 27.373 62.3397 27.4187C62.3397 27.4644 62.3397 27.5101 62.3397 27.5558C62.3397 27.5786 62.3397 27.6243 62.3173 27.6243C62.3173 27.6472 62.2949 27.67 62.2949 27.67C62.2724 27.67 62.2724 27.6929 62.25 27.6929H61.2408V28.6525H62.4294C62.4519 28.6525 62.4519 28.6525 62.4743 28.6754C62.4967 28.6754 62.4967 28.6982 62.4967 28.7211C62.4967 28.7439 62.5191 28.7668 62.5191 28.8125C62.5416 28.7211 62.5416 28.7668 62.5416 28.8353ZM58.4822 26.3448L58.0112 27.7843H58.9532L58.4822 26.3448ZM60.0297 28.8353C60.0521 28.9039 60.0521 28.9495 60.0745 28.9952C60.0745 29.0409 60.0745 29.0638 60.0521 29.0866C60.0297 29.1095 60.0073 29.1095 59.94 29.1095C59.8951 29.1095 59.8278 29.1095 59.7381 29.1095C59.6484 29.1095 59.5811 29.1095 59.5363 29.1095C59.4914 29.1095 59.4466 29.1095 59.4242 29.0866C59.4017 29.0866 59.3793 29.0638 59.3793 29.0638C59.3793 29.0409 59.3569 29.0409 59.3569 29.0181L59.1326 28.3326H57.8767L57.6748 28.9952C57.6748 29.0181 57.6524 29.0409 57.6524 29.0638C57.6524 29.0866 57.63 29.0866 57.6075 29.1095C57.5851 29.1095 57.5402 29.1323 57.4954 29.1323C57.4505 29.1323 57.3833 29.1323 57.316 29.1323C57.2263 29.1323 57.1814 29.1323 57.1366 29.1323C57.0917 29.1323 57.0693 29.1095 57.0468 29.0866C57.0244 29.0638 57.0244 29.0409 57.0244 28.9952C57.0244 28.9495 57.0468 28.9039 57.0693 28.8582L58.1009 25.8422C58.1009 25.8193 58.1234 25.7965 58.1458 25.7736C58.1682 25.7508 58.1906 25.7508 58.2131 25.7279C58.2355 25.7279 58.2804 25.7051 58.3476 25.7051C58.3925 25.7051 58.4598 25.7051 58.5495 25.7051C58.6616 25.7051 58.7289 25.7051 58.7962 25.7051C58.8635 25.7051 58.9083 25.7051 58.9307 25.7279C58.9532 25.7279 58.998 25.7508 58.998 25.7736C59.0205 25.7965 59.0205 25.8193 59.0429 25.8422L60.0297 28.8353Z" fill="#1A284D"/>
<path fill-rule="evenodd" clip-rule="evenodd" d="M20.2664 0H8.4023C7.5052 0 6.54082 0.982483 6.29412 1.37091C6.04742 1.75933 5.868 2.19345 5.75586 2.60472H17.3733C17.9564 2.60472 19.4142 2.05636 20.2664 0Z" fill="#1A284D"/>
<path fill-rule="evenodd" clip-rule="evenodd" d="M19.8617 3.61035H3.26539C1.98703 3.61035 1.08993 4.25011 1.00022 5.23259C0.888084 6.39786 1.98703 7.06047 1.98703 7.06047C2.59257 6.23792 3.44481 6.21507 5.23901 6.21507H16.206C16.9461 6.21507 18.8076 5.8495 19.8617 3.61035Z" fill="#1A284D"/>
<path fill-rule="evenodd" clip-rule="evenodd" d="M11.8554 11.3789L10.1285 14.4863V18.6219C10.1285 18.6904 10.1285 18.7818 10.1285 18.8503C10.0612 21.1352 8.96225 22.1177 7.07834 22.7574V14.4863L5.26172 11.3789H11.8554Z" fill="#1A284D"/>
<path fill-rule="evenodd" clip-rule="evenodd" d="M5.48612 7.24316C10.4202 7.24316 14.4122 7.24316 17.3054 7.24316C16.3858 9.27667 14.6141 10.0307 10.7117 9.87073C8.62596 9.87073 6.89904 9.87073 5.57583 9.87073C4.07319 9.84789 3.37794 9.36807 3.46765 8.40843C3.53493 7.63159 4.20775 7.24316 5.48612 7.24316Z" fill="#1A284D"/>
<path d="M28.4297 5.80409L27.4205 2.94804L26.3439 5.80409H28.4297ZM32.1975 9.27705H29.7305L29.1698 7.63197H25.6038L25.0207 9.27705H22.5537L26.2991 0.0234375H28.4521L32.1975 9.27705Z" fill="#1A284D"/>
<path d="M48.9051 9.29952H41.6386L41.6162 0.0458984H48.9051V2.01086L43.859 1.98802V3.31323H47.7165V5.41528H43.859V7.3574L48.9051 7.33455V9.29952Z" fill="#1A284D"/>
<path d="M39.2845 18.073C39.2845 17.2733 39.1051 16.565 38.7238 15.9709C38.2977 15.2398 37.7146 14.8742 36.9521 14.8742C36.2119 14.8742 35.6288 15.2398 35.2027 15.9709C34.8439 16.5878 34.642 17.2733 34.642 18.073C34.642 18.8727 34.8214 19.581 35.2027 20.1979C35.6288 20.9519 36.2119 21.3174 36.9521 21.3174C37.7146 21.3174 38.2977 20.9519 38.7238 20.1979C39.1051 19.581 39.2845 18.8727 39.2845 18.073ZM41.617 18.0958C41.617 19.6038 41.2357 20.8148 40.4507 21.683C39.6209 22.5969 38.4547 23.0539 36.9521 23.0539C35.4494 23.0539 34.2832 22.5969 33.4758 21.683C32.7133 20.8148 32.3096 19.6038 32.3096 18.0958C32.3096 16.565 32.6908 15.3768 33.4758 14.5086C34.2832 13.5947 35.4494 13.1377 36.9521 13.1377C38.4547 13.1377 39.6209 13.5947 40.4507 14.5086C41.2357 15.3997 41.617 16.5878 41.617 18.0958Z" fill="#1A284D"/>
<path d="M59.3791 15.537L56.2393 15.4913L56.2617 22.8257H53.9293V15.4913H51.0361V13.4121H59.3791V15.537Z" fill="#1A284D"/>
<path d="M58.3692 9.29952H56.0367L56.0592 5.41528H52.2016V9.29952H49.8916V0.0458984H52.2241C52.2241 1.14262 52.2241 2.2165 52.2241 3.31323H56.0816L56.0592 0.0458984H58.3916V9.29952H58.3692Z" fill="#1A284D"/>
<path d="M37.8944 2.07941C37.6701 1.89662 37.401 1.80523 37.087 1.80523H35.4274V3.90728H37.087C37.401 3.90728 37.6701 3.81589 37.8944 3.6331C38.3205 3.26753 38.3429 2.46783 37.8944 2.07941ZM40.6081 2.85626C40.6081 3.6788 40.2717 4.36425 39.6213 4.91262C38.9933 5.41528 38.2532 5.78086 37.3786 5.78086H35.4274V9.00249C35.4274 9.09388 35.4274 9.18527 35.4498 9.29952H33.2295C33.2295 9.18527 33.2295 9.09388 33.2295 9.00249V0.342928C33.2295 0.251534 33.2295 0.160141 33.2295 0.0458984H37.4234C38.2981 0.0458984 39.0382 0.297231 39.6437 0.822745C40.2717 1.37111 40.6081 2.03371 40.6081 2.85626Z" fill="#1A284D"/>
<path d="M65.2324 5.8037L64.2008 2.9705L63.1467 5.78086H65.2324V5.8037ZM69.0002 9.29952H66.5332L65.9725 7.65443H62.4066L61.8235 9.29952H59.3564L63.1243 0.0458984H65.2773L69.0002 9.29952Z" fill="#1A284D"/>
<path d="M22.5533 19.8551C21.9926 22.0029 20.5573 23.0768 18.2921 23.0768C16.8792 23.0768 15.7578 22.5969 14.928 21.6373C14.1654 20.7234 13.7842 19.5353 13.7842 18.0958C13.7842 16.6564 14.1654 15.4911 14.928 14.5771C15.7578 13.6175 16.8792 13.1377 18.2921 13.1377C20.2881 13.1377 21.6786 14.0973 22.4636 15.9937H19.705C19.5032 15.354 19.0322 15.0341 18.2921 15.0341C17.552 15.0341 16.9913 15.3768 16.61 16.0851C16.2961 16.6335 16.1615 17.319 16.1615 18.0958C16.1615 18.8955 16.3185 19.581 16.61 20.1522C16.9913 20.8376 17.552 21.1575 18.2921 21.1575C19.2116 21.1575 19.7723 20.7234 19.9741 19.8551H22.5533Z" fill="#1A284D"/>
<path d="M31.3672 22.7577H29.0124L29.0348 15.4462H25.8725L25.895 22.7577H23.5625L23.5849 13.4355H31.3224L31.3672 22.7577Z" fill="#1A284D"/>
<path d="M47.3133 15.4913C47.089 15.3085 46.8199 15.2171 46.5059 15.2171H44.8463V17.3649H46.5059C46.8199 17.3649 47.089 17.2735 47.3133 17.0679C47.7394 16.7023 47.7619 15.8797 47.3133 15.4913ZM50.0046 16.291C50.0046 17.1136 49.6682 17.8219 49.0178 18.3931C48.3898 18.9186 47.6497 19.2842 46.775 19.2842H44.8239V22.5515C44.8239 22.6429 44.8239 22.7571 44.8463 22.8485H42.626C42.626 22.7343 42.626 22.62 42.626 22.5286V13.732C42.626 13.6406 42.626 13.5492 42.626 13.4121H46.8199C47.6946 13.4121 48.4347 13.6634 49.0402 14.189C49.6906 14.7602 50.0046 15.4456 50.0046 16.291Z" fill="#1A284D"/>
<path d="M65.21 19.2617L64.2007 16.3599L63.1242 19.2617H65.21ZM68.9778 22.8032H66.5108L65.9501 21.1124H62.3841L61.801 22.8032H59.334L63.0794 13.3896H65.2324L68.9778 22.8032Z" fill="#1A284D"/>
</svg>
