<svg width="21" height="14" viewBox="0 0 21 14" fill="none" xmlns="http://www.w3.org/2000/svg">
<g clip-path="url(#clip0)">
<path d="M18.4364 0H2.56797C1.15146 0 0 1.0087 0 2.24959V11.7504C0 12.9913 1.15146 14 2.56797 14H18.432C19.8485 14 21 12.9913 21 11.7504V2.2534C21.0043 1.01251 19.8529 0 18.4364 0ZM19.8312 11.7504C19.8312 12.4241 19.2055 12.9723 18.4364 12.9723H2.56797C1.79888 12.9723 1.17318 12.4241 1.17318 11.7504V2.2534C1.17318 1.57966 1.79888 1.03154 2.56797 1.03154H18.432C19.2011 1.03154 19.8268 1.57966 19.8268 2.2534L19.8312 11.7504Z" fill="#1A284D"/>
<path d="M13.2443 6.87634L18.3802 2.84153C18.6192 2.65121 18.6409 2.32767 18.4237 2.11451C18.2064 1.90515 17.8371 1.88612 17.5938 2.07644L10.5112 7.64523L9.12945 6.56421C9.12511 6.5604 9.12076 6.5566 9.12076 6.55279C9.09035 6.52614 9.05993 6.50331 9.02517 6.48047L3.40257 2.07264C3.15925 1.88232 2.78991 1.90135 2.57266 2.11451C2.3554 2.32767 2.37712 2.65121 2.62045 2.84153L7.81722 6.91059L2.64218 11.1547C2.40754 11.3489 2.3945 11.6724 2.61611 11.8818C2.73342 11.9884 2.88985 12.0455 3.04627 12.0455C3.18966 12.0455 3.33305 11.9998 3.44603 11.9084L8.69929 7.60336L10.1245 8.71864C10.2375 8.80619 10.3765 8.84806 10.5155 8.84806C10.6546 8.84806 10.798 8.80238 10.9066 8.71484L12.3709 7.5653L17.5938 11.9122C17.7067 12.0074 17.8545 12.0531 17.9979 12.0531C18.1543 12.0531 18.3064 11.9998 18.4237 11.8932C18.6453 11.6876 18.6366 11.3603 18.402 11.1662L13.2443 6.87634Z" fill="#1A284D"/>
</g>
<defs>
<clipPath id="clip0">
<rect width="21" height="14" fill="white" transform="matrix(1 0 0 -1 0 14)"/>
</clipPath>
</defs>
</svg>
