<svg width="112" height="19" viewBox="0 0 112 19" fill="none" xmlns="http://www.w3.org/2000/svg">
<path d="M20.5764 4.17619C22.2447 4.19783 22.2236 4.28439 23.3217 3.57027C24.1242 3.02926 24.7789 2.59646 25.518 2.03382C26.6373 1.18986 26.7428 0.843614 24.7577 0.389172C23.1317 0.0212907 22.6459 -0.10855 20.9354 0.886894C18.549 2.27186 11.58 7.27072 4.48436 14.2172C2.68932 14.5418 1.16882 15.2559 0.577512 15.7104C-0.0137947 16.1432 -0.0560309 16.273 0.514158 17.1386C1.31665 18.3288 1.33776 18.3721 2.64709 17.7229C3.34398 17.3766 4.37877 16.7491 5.28685 16.035C9.32041 15.2559 18.2956 15.2126 29.3826 18.3937C30.3752 18.675 30.6497 18.8265 29.9317 17.2252C29.2559 15.6887 29.3193 15.7753 27.3975 15.2992C20.2596 13.5031 12.6148 13.265 8.20115 13.6978C12.6782 9.91081 16.1627 6.8812 20.5764 4.17619Z" fill="#3F5795"/>
<path d="M30.9024 1.7097C30.1211 1.9261 27.777 2.64022 26.7633 2.96482C25.7496 3.28943 25.644 3.28943 25.6863 4.28487C25.7285 5.49671 25.8552 5.49672 26.5521 5.21539C27.249 4.93407 30.649 3.85207 31.6416 3.57075C32.4018 3.35435 32.4018 3.13795 32.2751 2.40218C32.1062 1.36346 31.9372 1.42838 30.9024 1.7097Z" fill="#3F5795"/>
<path d="M22.963 5.92983C22.2027 6.55739 19.204 9.24076 17.4723 11.2533C16.9866 11.7943 16.9866 11.6212 17.4301 13.0278C17.6412 13.6986 17.8313 14.6941 18.7605 13.6121C19.6897 12.5301 23.85 8.98108 24.6524 8.33188C25.4549 7.66104 25.4761 7.5312 24.7792 6.29771C24.0189 4.93439 23.7232 5.30227 22.963 5.92983Z" fill="#3F5795"/>
<path d="M39.1607 -5.59743e-05C36.9855 0.129785 35.3383 1.31999 32.952 3.484C31.8749 4.4578 30.6501 5.60473 29.3619 6.90313C27.947 6.51361 26.7432 6.12409 26.4898 6.01589C26.1308 5.84277 25.9196 5.88605 26.0041 6.42705C26.1308 7.22773 26.3209 8.00678 27.7147 8.6127C26.6588 9.73798 25.5817 10.9715 24.4625 12.3348C24.019 12.8758 24.019 12.9624 24.6314 13.9145C25.1805 14.7801 25.4973 14.6286 25.8352 14.2391C27.0389 12.9407 28.6439 11.1662 30.3967 9.3701C31.5582 9.62978 32.8675 9.78126 33.6066 9.86782C33.311 10.2573 33.0153 10.6469 32.7619 11.058C32.2762 11.7938 32.3606 12.2915 32.8886 13.1571C33.4166 14.0227 34.0501 14.7801 35.993 13.9794C37.9358 13.2004 39.6253 11.9886 40.0265 11.3394C40.4278 10.6685 40.47 10.5603 39.4563 10.8416C38.4427 11.1229 37.1545 11.7505 35.1482 12.0318C35.4439 11.4692 35.9718 10.7767 36.5843 10.0842C38.2948 10.1708 40.7657 10.1275 42.8141 9.08878C44.1234 8.41794 43.87 7.22773 43.0886 6.05917C42.3284 4.8906 41.547 4.06828 39.224 5.06372C37.8725 5.62637 36.4998 6.68673 35.2538 7.9635C34.3246 7.8553 32.9942 7.68218 32.2551 7.53069C33.8811 6.01589 35.5917 4.60928 37.26 3.61384C38.9073 2.64003 39.7942 2.79152 40.1321 3.57056C40.3433 4.08992 40.7445 4.28468 41.188 3.93844C41.6315 3.5922 41.9272 2.943 41.8849 2.29379C41.8004 0.800627 40.8712 -0.0866163 39.1607 -5.59743e-05ZM40.4911 6.55689C42.0327 5.88605 42.8563 7.20609 41.2091 7.59561C40.3433 7.81202 39.4775 8.02842 38.5694 8.09334C39.3296 7.44413 40.111 6.73001 40.4911 6.55689Z" fill="#3F5795"/>
<path d="M74.3016 0.930708C74.0693 1.12547 73.0767 2.16419 71.7463 3.5708C69.9935 3.83048 68.1984 4.13344 66.4034 4.45804C65.1152 4.69608 65.3897 4.95577 65.6431 5.84301C65.8543 6.55713 66.0444 6.86009 66.7835 6.66533C67.4382 6.51385 68.1351 6.34073 68.8108 6.21089C66.5512 7.57422 62.75 9.65167 59.3711 11.6209C61.0394 9.86807 62.4332 8.52638 62.9611 8.02866C63.5102 7.53094 63.3413 7.37946 62.8133 6.42729C62.222 5.41021 62.1586 5.10725 61.4195 5.71317C60.6593 6.31909 56.9002 10.3874 54.8518 12.7029C54.3449 13.2872 54.535 13.7416 55.2319 14.4774C55.9288 15.1915 56.0977 15.4079 57.3226 14.6938C58.5263 14.0013 64.1015 10.6255 67.3326 8.30998C65.3264 10.474 63.4891 12.5298 62.6655 13.4387C62.1586 14.023 62.2854 14.2177 62.9823 14.8669C63.7003 15.5594 63.8481 15.7975 65.0729 15.0833C66.15 14.4558 72.063 10.2576 75.6531 7.6175C74.1749 9.04574 72.3376 10.9717 71.0282 12.7029C70.5636 13.3305 70.6059 13.482 71.3028 14.3043C71.9997 15.1266 72.1686 15.1915 72.8022 14.5207C73.4568 13.8498 77.1525 10.4956 80.4892 9.06738C78.9264 11.318 78.0183 12.4216 77.5326 13.0275C77.0469 13.6334 77.2581 13.958 78.1662 14.6722C78.9053 15.2565 78.9898 15.1699 79.8979 14.5856C81.2494 13.72 82.8333 13.0924 84.396 12.4216C84.4805 13.5036 84.9873 14.7371 85.9588 14.7371C87.1203 14.7371 91.4917 12.1836 95.7153 9.17558C96.0532 9.60839 96.4333 9.93299 96.7712 10.2143C95.1451 10.9717 93.688 11.7291 92.6743 12.3134C91.8507 12.7895 91.7662 12.7462 92.1464 13.5685C92.5265 14.3908 92.3575 14.4774 93.0122 14.564C98.4607 15.2565 100.636 13.4603 100.636 11.7075C100.636 10.9284 100.192 10.3874 99.7489 9.99791C100.72 9.52183 102.114 9.04574 103.339 8.56966C103.74 10.2143 105.768 10.3658 105.915 11.4694C106.042 12.4216 103.022 12.8111 101.84 12.5947C100.657 12.3783 101.079 13.0708 101.797 13.6984C102.579 14.3908 102.769 14.8237 104.437 14.6938C106.802 14.5207 109.125 13.5902 109.125 12.0537C109.125 9.91135 106.676 9.00246 106.274 8.13686C105.958 7.44438 106.971 7.0765 108.259 7.31454C108.766 7.9421 108.64 7.96374 109.78 7.74734C110.266 7.66078 110.73 7.57422 110.963 7.5093C111.258 7.44438 111.216 7.44438 111.153 7.05485C111.132 6.88173 111.089 6.64369 110.984 6.31909C110.815 5.73481 110.794 5.66989 107.457 5.38857C105.345 5.21545 103.508 6.21089 103.318 7.76898C102.051 8.18014 100.319 8.72114 98.9042 9.30542C97.4259 8.0503 97.5104 7.24962 99.1365 7.24962C100.425 7.24962 101.185 7.35782 101.502 7.42274C102.199 7.55258 102.431 7.2929 102.304 6.49221C102.199 5.79973 102.199 5.79973 101.671 5.56169C101.164 5.34529 100.045 5.10725 99.4532 5.10725C95.9899 5.10725 94.6594 6.79517 95.3352 8.46146C93.5402 9.56511 89.4221 11.6426 88.4296 12.0537C87.5004 12.4432 86.9935 12.7895 87.2047 11.3829C89.8234 10.474 94.0892 9.00246 94.0892 7.63914C94.0892 5.92957 92.6954 5.49677 91.1749 5.49677C87.6482 5.49677 85.1985 8.74278 84.5861 11.0366C83.9103 11.2747 82.8755 11.5127 82.0941 11.7724C82.6432 10.9934 83.3401 9.50019 83.6991 8.56966C84.0792 7.6175 84.0792 7.59586 83.5302 7.03322C82.9811 6.44893 82.96 6.47057 82.4109 6.57877C81.5451 6.75189 79.8345 7.57422 78.6941 8.35326C79.4544 7.57422 79.56 7.42274 79.8767 7.03322C80.1935 6.64369 79.9823 6.36237 79.4544 5.82137C78.842 5.19381 78.8208 4.97741 78.3351 5.30201C76.4978 6.34073 71.7463 9.28379 67.1425 11.9888C68.2618 10.7986 71.5351 7.5093 73.7525 5.30201C79.6867 4.4364 86.3811 4.15508 93.4346 4.71772C94.6383 4.80429 94.1948 4.3282 93.6035 3.5708C93.0122 2.79176 92.8433 2.53208 91.8296 2.46715C87.3103 2.14255 81.9252 2.33731 76.0755 3.00816C76.3289 2.66192 76.1388 2.42387 75.6954 1.64483C75.1252 0.627747 75.0618 0.324786 74.3016 0.930708ZM93.5824 13.417C94.5749 12.7678 96.5601 11.794 97.7215 11.1448C98.6296 12.1186 97.1725 13.0708 93.5824 13.417ZM91.9352 6.88173C93.2867 7.16306 91.4706 8.2667 87.7538 9.82479C88.8097 8.22342 90.7526 6.64369 91.9352 6.88173Z" fill="#3F5795"/>
<path d="M67.3946 1.86099C67.0145 0.822266 66.9722 0.822266 66.4443 0.822266C59.8343 0.822266 53.9001 1.53639 47.9237 2.64003C46.8467 2.83479 47.0156 3.02955 47.438 3.89516C47.8604 4.7824 48.1771 4.80404 48.6206 4.73912C49.3597 4.63092 50.1411 4.47944 50.9858 4.32796C50.1411 5.08536 49.233 5.97261 48.3038 6.90313C47.3324 7.05461 46.361 7.20609 45.4529 7.40085C44.5237 7.59561 44.6293 7.66053 44.9461 8.59106C45.1784 9.30518 45.3473 9.54322 45.7274 9.4783C45.7908 9.4783 45.833 9.45666 45.8964 9.45666C43.9535 11.5774 42.1162 13.8063 40.8069 15.6241C40.3423 16.2733 40.2578 16.6195 40.6802 17.8097C41.187 19.2163 41.3771 19.3029 41.9684 18.5022C43.679 16.2084 46.9312 12.3348 50.0989 8.9373C52.1473 8.78582 54.3225 8.67762 57.089 8.78582C57.9548 8.8291 57.9337 8.5045 57.5113 7.33593C57.1312 6.31885 57.0467 6.23229 56.4977 6.25393C55.4417 6.27557 54.048 6.31885 52.5063 6.44869C53.6678 5.30176 54.766 4.28468 55.6741 3.54892C57.3846 3.35416 59.8132 3.15939 61.6505 3.18104C62.0728 3.96008 62.3474 3.96008 63.0443 3.85188C63.7412 3.74368 65.5996 3.54892 66.6555 3.33252C67.7747 3.05119 67.817 2.94299 67.3946 1.86099Z" fill="#3F5795"/>
</svg>
