<svg width="77" height="44" viewBox="0 0 77 44" fill="none" xmlns="http://www.w3.org/2000/svg">
<g clip-path="url(#clip0)">
<path d="M25.3471 17.9464C23.7968 18.4186 22.607 17.8992 21.6516 16.6148C19.7408 16.6242 18.1454 15.897 17.0007 14.2726C15.1439 14.1121 13.4854 13.536 12.2145 12.091C11.863 11.6944 11.5746 11.2222 11.3312 10.7405C11.1599 10.3911 10.9436 10.2022 10.6011 10.07C8.77138 9.3617 7.2481 8.22841 6.20254 6.45292C5.98622 6.09404 5.86003 5.66906 5.65272 5.2913C5.52653 5.06464 5.36429 4.81909 5.15698 4.70576C3.43541 3.7708 1.96621 2.55251 1.01078 0.739247C0.911636 0.540921 0.830514 0.333151 0.695312 0.0120522C1.36231 0.115937 1.92114 0.200934 2.48899 0.285931C3.66074 0.465368 4.84151 0.644806 6.01326 0.8148C7.04079 0.965905 8.06833 1.12645 9.10487 1.26812C10.1685 1.40978 11.2321 1.53255 12.2956 1.66477C13.4313 1.80643 14.567 1.96698 15.7027 2.10864C16.586 2.22197 17.4784 2.30697 18.3617 2.41085C19.3622 2.52418 20.3717 2.66584 21.3722 2.76973C22.1834 2.85472 23.0036 2.90194 23.8239 2.9775C24.9505 3.09082 26.0772 3.16638 27.1859 3.3647C28.2495 3.55358 28.7452 3.93135 29.4753 4.78132C31.7557 1.46644 34.9735 -0.00683594 38.7502 -0.00683594C42.5178 0.00260815 45.7176 1.46644 47.998 4.79076C48.7731 3.70469 49.8818 3.33637 51.0716 3.18527C52.045 3.06249 53.0365 3.07194 54.0099 2.9775C55.0645 2.88305 56.1101 2.73195 57.1557 2.61862C58.1021 2.51474 59.0485 2.43918 59.9949 2.32585C61.1396 2.18419 62.2933 2.0142 63.438 1.87254C64.5287 1.73088 65.6283 1.62699 66.7189 1.47589C67.9988 1.30589 69.2697 1.10757 70.5497 0.928129C71.7214 0.758135 72.9022 0.60703 74.0739 0.437036C74.7319 0.342595 75.3899 0.210378 76.0479 0.106493C76.2462 0.0781609 76.4445 0.0781609 76.6518 0.0592727C76.6878 0.097049 76.7149 0.144269 76.7509 0.182046C76.4264 0.729803 76.129 1.29645 75.7594 1.81587C74.8491 3.10971 73.6142 3.97857 72.2712 4.70576C72.1 4.8002 71.8927 4.95131 71.8296 5.1213C71.0184 7.56732 69.2878 9.0406 67.0885 9.97556C66.5927 10.1833 66.2773 10.4383 66.0159 10.9577C65.0424 12.8466 63.411 13.7532 61.4641 14.1404C61.1576 14.2065 60.8422 14.2254 60.4456 14.2821C59.9498 14.9998 59.2738 15.6231 58.4356 16.0387C57.5973 16.4542 56.714 16.6242 55.7946 16.6053C54.8482 17.9275 53.6314 18.4091 52.0991 17.9558C50.9183 19.2213 49.3139 18.8625 48.1242 17.7197C47.7366 17.3514 47.4121 16.9075 47.0065 16.5675C46.4296 16.0859 46.1232 16.1142 45.5193 16.5487C43.978 17.6631 42.2744 18.3525 40.4086 18.598C37.308 19.0041 34.4507 18.3902 31.8729 16.5109C31.251 16.0576 30.593 16.2464 29.9981 16.9359C29.5654 17.427 29.1057 17.918 28.574 18.2864C27.5464 18.9852 26.2575 18.9569 25.3471 17.9464ZM15.9912 11.0616C16.7483 12.4688 17.9561 13.1016 19.2991 13.5643C19.3532 13.5832 19.4253 13.5738 19.4794 13.5643C20.8765 13.196 22.2645 12.8371 23.6526 12.4594C24.0312 12.3555 24.4007 12.1949 24.7703 12.0627C24.7883 12.1194 24.8063 12.1666 24.8244 12.2233C23.3461 12.8088 21.8679 13.4038 20.3627 13.9987C20.5069 14.1593 20.6691 14.3954 20.8765 14.5559C22.1203 15.5004 23.0848 16.0764 24.5449 15.1698C24.7883 15.0187 25.0497 14.8959 25.2931 14.7448C25.7618 14.4615 26.2214 14.1593 26.6811 13.8665C26.7082 13.9043 26.7262 13.9421 26.7532 13.9799C25.897 14.6032 25.0407 15.217 24.1844 15.8403C24.5089 16.3314 25.0587 16.5675 25.6266 16.7659C26.1854 16.9642 26.6361 16.8131 27.0417 16.3881C27.258 16.1614 27.5194 15.9726 27.7627 15.7648C27.7808 15.7931 27.8078 15.812 27.8258 15.8403C27.5284 16.1709 27.24 16.492 26.9425 16.8225C27.4473 17.5875 28.4207 17.833 28.9615 17.2475C29.5114 16.662 29.9801 15.982 30.4848 15.3398C30.3586 15.1415 30.2955 15.0187 30.2144 14.9148C28.1323 12.3366 27.5915 9.46558 28.7182 6.28293C29.0156 5.43296 28.9435 5.15908 28.2044 4.63966C28.0782 4.55466 27.952 4.46966 27.8168 4.40355C27.0236 3.99746 26.1674 3.90302 25.3111 3.83691C24.3466 3.76135 23.3732 3.71413 22.4087 3.62914C21.1649 3.52525 19.921 3.39304 18.6772 3.27026C17.6947 3.17582 16.7213 3.08138 15.7478 2.96805C14.7563 2.85472 13.7738 2.73195 12.7824 2.59973C11.9441 2.49585 11.1059 2.37307 10.2586 2.25975C9.35725 2.13697 8.4559 2.0142 7.53653 1.89143C7.68075 2.74139 8.36577 3.99746 9.13191 4.77187C9.44739 5.09297 9.78088 5.46129 10.1775 5.59351C12.6382 6.42459 15.198 6.68902 17.7578 6.91568C19.227 7.03845 20.7142 7.0479 22.1924 7.12345C22.4809 7.13289 22.7603 7.199 23.0487 7.23678C19.1819 7.55788 15.3422 7.44455 11.4303 6.7268C11.9712 7.97342 12.7283 8.86116 13.6747 9.57891C14.0443 9.86224 14.4499 10.2778 14.8464 10.2967C16.4689 10.3722 18.1003 10.4005 19.7227 10.2967C20.9846 10.2117 22.2375 9.9189 23.4904 9.71113C22.2826 10.0794 21.0567 10.4005 19.8219 10.5989C18.578 10.835 17.3071 10.92 15.9912 11.0616ZM52.6039 12.2044C52.6219 12.1571 52.6309 12.1194 52.6489 12.0722C52.73 12.091 52.8112 12.091 52.8923 12.1194C54.1812 12.5255 55.4611 12.9505 56.7591 13.3282C57.2368 13.4699 57.7866 13.6304 58.2373 13.5171C59.2107 13.2716 60.1031 12.771 60.8151 11.9966C61.0585 11.7322 61.2478 11.4016 61.5182 11.0239C60.5447 10.9577 59.6884 10.9294 58.8502 10.8255C58.0029 10.7216 57.1556 10.5422 56.3174 10.3722C55.5152 10.2117 54.722 10.0133 53.9288 9.8339C53.9378 9.79613 53.9469 9.75835 53.9559 9.72057C54.3434 9.79613 54.731 9.88112 55.1276 9.92834C56.3895 10.1078 57.6514 10.325 58.9223 10.4383C59.8777 10.5233 60.8422 10.4761 61.8066 10.4478C62.3113 10.4383 62.8071 10.3722 63.2307 10.0133C63.5913 9.70169 64.0059 9.47503 64.3484 9.14449C65.0334 8.49284 65.6283 7.7562 66.0339 6.75513C62.1401 7.48233 58.3004 7.58621 54.4336 7.27456C55.3349 7.18011 56.2363 7.12345 57.1376 7.05734C58.5077 6.9629 59.8777 6.93457 61.2387 6.75513C62.9513 6.53792 64.6639 6.21682 66.3674 5.90516C66.8271 5.82017 67.3499 5.71628 67.6924 5.43296C68.5847 4.68688 69.2607 3.72358 69.7384 2.61862C69.8286 2.40141 69.8917 2.1653 69.9728 1.91031C69.2337 2.00475 68.5667 2.08975 67.8907 2.18419C66.8181 2.32585 65.7455 2.4864 64.6729 2.61862C63.7535 2.73195 62.8431 2.81695 61.9238 2.91139C60.8151 3.03416 59.7155 3.16638 58.6068 3.27971C57.8677 3.35526 57.1196 3.41192 56.3805 3.47803C55.0285 3.60081 53.6855 3.71413 52.3334 3.8558C51.6574 3.9219 50.9724 3.98801 50.3144 4.15801C49.5303 4.36578 48.8272 4.77187 48.4757 5.58406C49.999 9.17282 49.4311 12.3649 46.9434 15.3398C47.5112 16.0198 48.0611 16.6903 48.6289 17.3514C48.701 17.4364 48.8272 17.5119 48.9264 17.5214C49.5753 17.5875 50.1432 17.4458 50.5217 16.832C50.2243 16.5014 49.9178 16.1614 49.6204 15.8309C50.3054 16.0764 50.6299 16.9831 51.4591 16.8414C52.1712 16.7186 52.8652 16.4731 53.2618 15.8403C52.4056 15.217 51.5673 14.5937 50.72 13.9799C51.7926 14.4898 52.8202 15.0376 53.8747 15.557C54.073 15.6515 54.3615 15.6892 54.5598 15.6137C55.1637 15.3681 55.7676 15.0943 56.3264 14.7637C56.6419 14.5748 56.8762 14.2348 57.1016 14.0082C55.5513 13.3943 54.073 12.7993 52.6039 12.2044ZM48.4667 9.35225C48.4757 7.07623 47.6014 5.18741 46.0601 3.6858C43.3741 1.07923 40.1202 0.285931 36.5689 0.956461C34.2524 1.39089 32.2424 2.52418 30.7101 4.46022C29.3942 6.12238 28.7723 8.05841 29.0156 10.2022C29.268 12.4499 30.3586 14.2537 32.0532 15.6326C34.4507 17.5875 37.2089 18.2864 40.1923 17.8897C42.2834 17.6158 44.1763 16.7942 45.7807 15.302C47.4752 13.7154 48.4486 11.7699 48.4667 9.35225ZM12.8725 9.92834C11.3853 9.13504 10.3397 7.94509 9.71779 6.38681C8.62716 6.03738 7.56357 5.69739 6.47294 5.34796C7.45541 7.91675 9.97918 9.47503 12.8725 9.92834ZM64.4746 9.97556C67.8096 9.41836 70.2522 7.54843 70.9282 5.35741C69.8556 5.69739 68.792 6.04682 67.7194 6.38681C67.1155 8.00175 66.0159 9.13504 64.4746 9.97556ZM5.69778 1.63644C4.45393 1.40978 3.2281 1.19256 1.99325 0.965905C3.00276 2.59973 5.88707 4.51688 8.04129 4.96075C6.95967 4.02579 6.10339 2.98694 5.69778 1.63644ZM71.7575 1.63644C71.3428 2.98694 70.5046 4.03523 69.4861 4.95131C71.8025 4.15801 73.9658 3.10027 75.471 0.965905C74.2271 1.18312 73.0103 1.40978 71.7575 1.63644ZM12.0433 10.5422C13.0978 12.686 15.4954 13.706 17.6947 13.5171C16.3337 13.0638 15.216 12.3366 14.6121 10.9577C14.1795 10.9011 13.7648 10.8728 13.3502 10.8066C12.9356 10.7405 12.521 10.6461 12.0433 10.5422ZM62.8251 10.9861C62.104 12.3555 61.6624 12.7332 59.7876 13.536C62.1581 13.6965 64.4656 12.5444 65.3759 10.58C64.5287 10.7216 63.6814 10.8539 62.8251 10.9861ZM17.875 14.2915C18.6141 15.387 20.7142 16.2937 22.4358 15.8781C21.1018 15.7553 20.3807 15.3965 19.3892 14.3482C19.2991 14.2537 19.1369 14.1593 19.0107 14.1593C18.6411 14.1782 18.2716 14.2348 17.875 14.2915ZM55.0104 15.8876C57.1196 16.067 58.8322 15.4531 59.5532 14.2726C59.1116 14.2348 58.6789 14.2065 58.2102 14.1687C57.417 15.2831 56.3084 15.7742 55.0104 15.8876ZM22.4087 16.4637C23.2921 17.5781 24.9235 17.918 25.7347 17.172C24.8063 17.1625 23.941 16.9925 23.3191 16.1898C23.0036 16.2842 22.7242 16.3692 22.4087 16.4637ZM54.1181 16.1898C53.4962 17.0397 52.6219 17.1531 51.6755 17.1814C52.7481 17.9086 54.4877 17.4458 55.0104 16.4448C54.722 16.3692 54.4426 16.2842 54.1181 16.1898ZM51.1076 17.3703C50.8552 17.5308 50.6479 17.7197 50.4136 17.8142C50.1792 17.9086 49.9178 17.918 49.6655 17.9653C50.4496 18.2486 51.0355 18.1541 51.5312 17.6631C51.378 17.5592 51.2248 17.4553 51.1076 17.3703ZM25.933 17.6536C26.4017 18.1636 27.1408 18.2675 27.6456 18.003C27.267 17.8425 26.8073 17.6536 26.3476 17.4647C26.3566 17.427 26.3657 17.3892 26.3657 17.3514C26.2305 17.4458 26.0862 17.5497 25.933 17.6536Z" fill="#3F5795"/>
<path d="M69.6837 32.4417C69.1609 32.4417 68.6832 32.4417 68.1514 32.4417C67.3312 30.7701 66.5019 29.0796 65.6727 27.3891C65.7268 29.4952 65.2491 31.639 66.0873 33.7261C65.2401 33.7261 64.3928 33.7261 63.4824 33.7261C63.9782 32.7156 63.9601 31.6862 63.9511 30.6568C63.9511 29.3063 63.9511 27.9463 63.9511 26.5958C63.9511 26.1425 64.0052 25.6703 63.9331 25.2264C63.87 24.8109 63.6807 24.4143 63.5365 23.9704C64.528 23.9704 65.5195 23.9704 66.556 23.9704C66.3307 24.5654 66.52 25.0848 66.7633 25.5853C67.4844 27.0586 68.2235 28.513 68.9987 30.0713C69.251 29.5896 69.4764 29.1741 69.6927 28.7585C70.2155 27.7386 70.7473 26.7281 71.252 25.6987C71.6757 24.8487 71.6757 24.8109 71.6306 23.9609C72.6041 23.9609 73.5775 23.9609 74.578 23.9609C74.4518 24.3293 74.3256 24.6787 74.2175 25.0376C74.1634 25.217 74.1454 25.4059 74.1454 25.5853C74.1363 27.5686 74.1093 29.5518 74.1544 31.5351C74.1724 32.2623 74.3707 32.9895 74.4879 33.7261C73.6496 33.7261 72.7483 33.7261 71.8289 33.7261C72.541 31.6673 72.0723 29.5613 72.1534 27.4741C71.3512 29.1363 70.5219 30.7796 69.6837 32.4417Z" fill="#3F5795"/>
<path d="M5.75105 23.9883C5.82315 24.451 5.79611 24.8855 5.95836 25.2255C6.70647 26.8121 7.49966 28.3703 8.27482 29.9381C8.28383 29.9569 8.31988 29.9664 8.39199 30.0042C8.96885 28.8803 9.57275 27.7754 10.1316 26.6421C10.4471 26.0093 10.7175 25.3482 10.9608 24.6871C11.0329 24.4983 10.9698 24.2433 10.9698 23.9883C11.9523 23.9883 12.9348 23.9883 13.9443 23.9883C13.9172 24.0922 13.8902 24.1772 13.8632 24.2622C13.737 24.6871 13.5207 25.1027 13.5116 25.5371C13.4756 27.5865 13.4666 29.6264 13.5116 31.6758C13.5297 32.3557 13.7189 33.0357 13.8451 33.744C13.0069 33.744 12.0965 33.744 11.1321 33.744C11.6098 32.7713 11.5918 31.7797 11.5918 30.7786C11.5918 29.6925 11.5918 28.6064 11.5106 27.4826C10.6814 29.1353 9.85217 30.788 9.02293 32.4407C8.50917 32.4407 8.03145 32.4407 7.49065 32.4407C6.67042 30.7786 5.84118 29.0975 5.01194 27.407C5.08405 29.5131 4.58831 31.6474 5.41755 33.7346C4.59732 33.7346 3.74104 33.7346 2.92082 33.7346C3.63288 30.9769 3.18221 28.172 3.27234 25.386C3.29037 24.9421 3.02898 24.4794 2.88477 23.9977C3.85822 23.9883 4.8497 23.9883 5.75105 23.9883Z" fill="#3F5795"/>
<path d="M41.3456 26.8883C41.3456 28.0499 41.3456 29.2115 41.3456 30.3637C41.3456 31.497 41.3456 32.6397 41.8324 33.7447C40.949 33.7447 40.1198 33.7447 39.3086 33.7447C39.9305 31.2137 39.6691 28.6543 39.6962 26.1139C39.7052 25.4055 39.4889 24.7067 39.3717 23.9795C40.228 23.9795 41.1654 23.9795 42.1388 23.9795C42.1659 24.7445 42.6256 25.2639 43.0762 25.7833C44.4463 27.3227 45.8253 28.8526 47.1954 30.392C47.2224 30.4204 47.2675 30.4487 47.3396 30.5054C47.3486 30.3448 47.3666 30.2126 47.3666 30.0804C47.3666 28.8243 47.3756 27.5588 47.3666 26.3027C47.3666 25.8966 47.3757 25.4811 47.3126 25.0845C47.2495 24.7161 47.0782 24.3667 46.943 23.9795C47.7993 23.9795 48.6465 23.9795 49.5479 23.9795C49.4938 24.1023 49.4397 24.1873 49.4127 24.2817C49.3045 24.6595 49.1152 25.0467 49.1062 25.4244C49.0702 27.2944 49.0972 29.1737 49.0882 31.0437C49.0882 31.9503 49.0882 32.8475 49.5569 33.7352C48.6285 33.7352 47.7542 33.7352 46.8529 33.7352C46.8348 32.7342 46.1228 32.1581 45.5639 31.5064C44.284 30.0237 42.9771 28.5788 41.6791 27.1149C41.598 27.0205 41.5259 26.9166 41.4538 26.8222C41.4177 26.8505 41.3817 26.8694 41.3456 26.8883Z" fill="#3F5795"/>
<path d="M36.5866 24.9429C36.3883 25.6796 36.19 26.369 35.9827 27.1245C35.6673 26.8412 35.3969 26.5768 35.0994 26.3596C33.6122 25.264 31.44 25.1224 29.9437 26.2934C29.0243 27.0112 28.7089 27.9934 28.79 29.2022C28.9072 31.091 30.5296 32.1299 32.0168 32.196C33.3328 32.2432 34.6127 31.941 35.2797 31.3555C35.2797 31.0533 35.2797 30.7416 35.2797 30.3072C34.162 30.4394 33.0804 30.5716 31.9717 30.7038C32.3413 30.0144 32.7199 29.3156 33.0984 28.6167C34.4865 28.6167 35.8656 28.6167 37.2176 28.6167C37.1545 29.24 37.0373 29.8539 37.0373 30.4583C37.0463 31.0533 37.1815 31.6482 37.2807 32.4038C36.848 32.6304 36.2982 32.9704 35.7123 33.2254C34.4414 33.7732 33.1074 34.0282 31.7374 33.8865C29.8446 33.7071 28.123 33.0554 27.3028 31.0816C26.1671 28.3617 27.1315 25.3207 30.1781 24.2724C32.2962 23.5452 34.3783 23.7247 36.3613 24.8107C36.4244 24.8296 36.4785 24.8768 36.5866 24.9429Z" fill="#3F5795"/>
<path d="M51.2246 23.9795C52.3152 23.9795 53.2526 23.9795 54.2802 23.9795C53.6042 24.8295 53.7033 25.7928 53.6943 26.7372C53.6943 27.6532 53.6853 28.5599 53.7033 29.476C53.7123 29.8159 53.7664 30.1559 53.8385 30.4865C54.0458 31.4592 54.7038 31.9597 55.5871 32.1297C56.2541 32.2525 56.9391 32.2525 57.6152 32.092C58.9401 31.7803 59.3187 30.817 59.3547 29.7687C59.3998 28.3521 59.3998 26.9355 59.3457 25.5283C59.3277 25.0278 59.0934 24.5367 58.9582 24.0078C59.8054 24.0078 60.7518 24.0078 61.6892 24.0078C61.6982 24.0362 61.7163 24.0834 61.7073 24.0928C61.1665 24.8767 61.2746 25.7833 61.2746 26.6711C61.2746 27.6816 61.2746 28.6826 61.2746 29.6932C61.2836 32.1203 59.9406 33.3858 57.9216 33.773C56.6958 34.0091 55.4609 33.9713 54.2621 33.5086C52.5766 32.8569 51.8646 31.5537 51.8105 29.8632C51.7744 28.7771 51.8195 27.691 51.8015 26.605C51.7744 25.7267 51.9727 24.8106 51.2246 23.9795Z" fill="#3F5795"/>
<path d="M26.3549 33.7447C25.3544 33.7447 24.4531 33.7447 23.5157 33.7447C23.8221 32.753 23.2453 32.0447 22.9388 31.2514C21.4967 31.2514 20.0725 31.2514 18.6123 31.2514C18.3149 32.0542 17.7561 32.7625 18.0084 33.7447C17.1522 33.7447 16.3229 33.7447 15.4847 33.7447C15.4847 33.6691 15.4576 33.5841 15.4847 33.5463C16.341 32.4886 16.7736 31.1948 17.3234 29.967C17.9003 28.6826 18.4411 27.3794 18.9729 26.0761C19.2433 25.415 19.6669 24.7728 19.1982 23.9795C20.2258 23.9795 21.1632 23.9795 22.0194 23.9795C22.1006 24.3856 22.1186 24.7822 22.2718 25.1128C23.4436 27.7099 24.6333 30.2976 25.8231 32.8758C25.9403 33.1497 26.1296 33.3952 26.3549 33.7447ZM22.1366 29.5987C21.6589 28.5032 21.1902 27.4455 20.6854 26.2933C20.1807 27.4738 19.73 28.5221 19.2703 29.5987C20.2618 29.5987 21.1722 29.5987 22.1366 29.5987Z" fill="#3F5795"/>
<path d="M27.8267 43.8492C27.2589 43.0843 26.682 42.3004 26.1052 41.5165C25.5373 40.7516 24.9695 39.9866 24.3205 39.1177C24.3205 40.7705 24.3205 42.291 24.3205 43.8587C23.9149 43.8587 23.5634 43.8587 23.1758 43.8587C23.1758 41.6015 23.1758 39.3444 23.1758 37.04C23.5093 37.04 23.8518 37.04 24.2664 37.04C25.33 38.4755 26.4387 39.9772 27.6284 41.5732C27.6284 39.9866 27.6284 38.5416 27.6284 37.04C28.034 37.04 28.4036 37.04 28.8092 37.04C28.8092 39.2877 28.8092 41.5449 28.8092 43.8492C28.5118 43.8492 28.2053 43.8492 27.8267 43.8492Z" fill="#3F5795"/>
<path d="M15.5948 43.8779C15.063 43.8779 14.6304 43.8779 14.1707 43.8779C13.6479 43.1035 13.1161 42.3291 12.5933 41.5452C12.1427 41.5452 11.719 41.5452 11.2413 41.5452C11.2413 42.3102 11.2413 43.0563 11.2413 43.8496C10.8357 43.8496 10.4662 43.8496 10.0605 43.8496C10.0605 41.5925 10.0605 39.3259 10.0605 36.9365C11.3224 37.0026 12.5753 36.9837 13.7921 37.1537C14.7475 37.286 15.2884 38.0604 15.3695 39.0048C15.4596 39.9964 14.9999 40.7803 14.0896 41.2052C14.0355 41.2336 13.9814 41.2525 13.8642 41.2997C14.4321 42.1497 14.9819 42.9713 15.5948 43.8779ZM11.2413 40.4308C11.9894 40.3836 12.7105 40.3931 13.4045 40.2797C13.9093 40.1947 14.1256 39.7886 14.1166 39.2409C14.1076 38.7403 13.8913 38.3626 13.4226 38.2965C12.7105 38.1926 11.9804 38.1926 11.2413 38.1454C11.2413 38.9292 11.2413 39.6186 11.2413 40.4308Z" fill="#3F5795"/>
<path d="M30.0625 43.8023C30.0625 41.5829 30.0625 39.3257 30.0625 36.9931C31.3785 37.0497 32.6854 36.8042 33.9383 37.3047C35.3173 37.8619 36.0835 39.2691 35.9303 40.8935C35.786 42.3479 34.6594 43.6228 33.2082 43.7834C32.1987 43.8873 31.1531 43.8023 30.0625 43.8023ZM31.2613 42.7917C31.8742 42.7445 32.424 42.7351 32.9648 42.6595C33.9022 42.5179 34.5782 41.7529 34.6594 40.8085C34.7585 39.5996 34.2808 38.6269 33.2983 38.353C32.6494 38.1736 31.9553 38.1925 31.2613 38.1169C31.2613 39.7224 31.2613 41.2051 31.2613 42.7917Z" fill="#3F5795"/>
<path d="M7.83253 42.31C7.83253 41.9322 7.83253 41.5733 7.83253 41.1578C7.30073 41.1578 6.77795 41.1578 6.22813 41.1578C6.22813 40.7611 6.22813 40.4306 6.22813 40.0528C7.12948 40.0528 8.03984 40.0528 8.97724 40.0528C8.97724 41.0067 8.97724 41.9511 8.97724 42.9144C7.66127 44.331 5.11046 44.3688 3.81252 42.9805C2.51458 41.5922 2.5957 39.184 3.98378 37.8146C5.24566 36.568 7.66127 36.5963 8.77894 37.8996C8.54459 38.1923 8.30123 38.4946 8.05786 38.7873C6.85006 37.7768 5.41692 37.8712 4.65979 38.8818C3.9297 39.864 3.99279 41.3656 4.79499 42.2061C5.57916 43.0088 6.90414 43.0655 7.83253 42.31Z" fill="#3F5795"/>
<path d="M71.0104 40.9502C71.0104 41.583 71.0104 42.1307 71.0104 42.7351C72.2272 42.7351 73.435 42.7351 74.6879 42.7351C74.6879 43.1318 74.6879 43.4812 74.6879 43.8684C73.0835 43.8684 71.4881 43.8684 69.8477 43.8684C69.8477 41.6113 69.8477 39.3542 69.8477 37.0498C71.434 37.0498 73.0294 37.0498 74.6608 37.0498C74.6608 37.3898 74.6608 37.7298 74.6608 38.1264C73.4621 38.1264 72.2542 38.1264 71.0284 38.1264C71.0284 38.712 71.0284 39.2408 71.0284 39.8264C72.083 39.8264 73.1376 39.8264 74.2192 39.8264C74.2192 40.223 74.2192 40.563 74.2192 40.9596C73.1646 40.9502 72.11 40.9502 71.0104 40.9502Z" fill="#3F5795"/>
<path d="M39.6777 37.0022C40.1014 37.0022 40.516 36.9928 40.9306 37.0022C41.5435 37.0211 42.1564 37.0211 42.7694 37.0872C43.9772 37.2195 44.7523 38.1166 44.7613 39.3349C44.7703 40.4682 43.9952 41.441 42.8775 41.611C42.2466 41.7054 41.5976 41.7054 40.8855 41.7526C40.8855 42.0926 40.8855 42.442 40.8855 42.8009C40.8855 43.1409 40.8855 43.4809 40.8855 43.8587C40.4709 43.8587 40.1014 43.8587 39.6777 43.8587C39.6777 41.6015 39.6777 39.3349 39.6777 37.0022ZM40.9036 40.6193C41.5255 40.5721 42.0933 40.5627 42.6522 40.4682C43.184 40.3738 43.4814 39.9488 43.4904 39.4105C43.4994 38.8061 43.2471 38.3622 42.6972 38.2678C42.1114 38.1639 41.5165 38.1828 40.8946 38.145C40.9036 38.9949 40.9036 39.7599 40.9036 40.6193Z" fill="#3F5795"/>
<path d="M61.9238 43.8499C61.7075 43.321 61.5002 42.811 61.2749 42.2633C60.2834 42.2633 59.3009 42.2633 58.2644 42.2633C58.048 42.7827 57.8227 43.321 57.5884 43.8688C57.1828 43.8688 56.8042 43.8688 56.3535 43.8688C57.318 41.555 58.2644 39.279 59.2108 37.0029C59.5894 37.0029 59.9499 37.0029 60.3375 37.0029C61.2749 39.2601 62.2213 41.5172 63.1857 43.8499C62.7531 43.8499 62.3655 43.8499 61.9238 43.8499ZM60.8422 41.13C60.4727 40.2423 60.1392 39.4301 59.7696 38.5423C59.4001 39.4584 59.0666 40.28 58.7241 41.13C59.4541 41.13 60.1121 41.13 60.8422 41.13Z" fill="#3F5795"/>
<path d="M22.5534 43.8782C22.0756 43.8782 21.6881 43.8782 21.2825 43.8782C21.0661 43.3399 20.8408 42.811 20.6155 42.2633C19.615 42.2633 18.6325 42.2633 17.605 42.2633C17.3886 42.7922 17.1633 43.3305 16.938 43.8782C16.5414 43.8782 16.1628 43.8782 15.7031 43.8782C16.6676 41.555 17.623 39.279 18.5694 37.0029C18.957 37.0029 19.2995 37.0029 19.6961 37.0029C20.6245 39.2601 21.5709 41.5267 22.5534 43.8782ZM18.0466 41.1111C18.7857 41.1111 19.4527 41.1111 20.1648 41.1111C19.8133 40.2517 19.4798 39.4395 19.1012 38.5329C18.7407 39.4301 18.4072 40.2423 18.0466 41.1111Z" fill="#3F5795"/>
<path d="M51.0338 43.8688C50.5741 43.8688 50.1866 43.8688 49.7629 43.8688C49.5466 43.3399 49.3213 42.8016 49.0959 42.2538C48.0954 42.2538 47.122 42.2538 46.1035 42.2538C45.8871 42.7733 45.6528 43.3116 45.4184 43.8688C45.0218 43.8688 44.6343 43.8688 44.1836 43.8688C45.148 41.555 46.0945 39.279 47.0409 37.0029C47.4194 37.0029 47.78 37.0029 48.1675 37.0029C49.123 39.2695 50.0694 41.5455 51.0338 43.8688ZM46.5361 41.1206C47.2662 41.1206 47.9332 41.1206 48.6543 41.1206C48.3027 40.2611 47.9602 39.4395 47.5907 38.5423C47.2211 39.4395 46.8966 40.2517 46.5361 41.1206Z" fill="#3F5795"/>
<path d="M68.4484 42.0746C68.6017 42.2446 68.836 42.4996 69.0704 42.764C68.16 44.1523 65.7714 44.4356 64.4194 43.2929C62.8781 41.9991 62.6798 39.5058 64.0048 38.0137C65.3298 36.5309 67.7364 36.5121 69.0524 38.0137C68.818 38.3064 68.5836 38.5992 68.3223 38.9203C67.6733 38.3631 67.0063 37.957 66.141 38.1081C65.6362 38.2025 65.2487 38.4575 64.9242 38.8447C64.2031 39.7042 64.2121 41.1963 64.9602 42.103C65.4109 42.6507 66.0238 42.9529 66.6818 42.8113C67.2767 42.6885 67.8265 42.3391 68.4484 42.0746Z" fill="#3F5795"/>
<path d="M52.8562 42.7537C54.019 42.7537 55.0916 42.7537 56.2092 42.7537C56.2092 43.1315 56.2092 43.4809 56.2092 43.8587C54.695 43.8587 53.1897 43.8587 51.6484 43.8587C51.6484 41.5826 51.6484 39.335 51.6484 37.04C52.045 37.04 52.4236 37.04 52.8562 37.04C52.8562 38.9383 52.8562 40.8177 52.8562 42.7537Z" fill="#3F5795"/>
<path d="M24.7705 7.74503C25.8251 7.97169 26.0414 8.6611 25.5276 9.92661C26.9968 9.98328 27.0779 11.0127 26.6002 12.0988C28.0063 12.6371 28.2407 13.0526 27.8441 14.3842C28.0243 14.3937 28.1956 14.4126 28.3849 14.422C28.8626 14.677 28.8536 15.1492 28.8265 15.6781C28.9527 15.5931 29.0429 15.527 29.151 15.4608C29.16 16.1408 28.5381 17.0191 28.0063 17.1986C28.1505 16.6319 28.3488 16.018 28.448 15.3853C28.5111 14.9414 28.2587 14.762 27.8621 14.9792C27.2852 15.2814 26.7354 15.6686 26.1766 16.018C26.0053 16.1219 25.8251 16.2258 25.6538 16.3203C25.6358 16.2919 25.6087 16.2541 25.5907 16.2258C25.9512 15.8764 26.3208 15.5458 26.6633 15.187C26.9157 14.9225 27.1681 14.6487 27.3844 14.3559C27.6818 13.9498 27.6999 13.4115 27.4565 13.0526C27.2402 12.7409 26.7895 12.6276 26.3118 12.8071C25.9693 12.9393 25.6268 13.1093 25.3023 13.2793C24.4009 13.7609 23.5086 14.252 22.6163 14.7337C22.5892 14.6959 22.5712 14.6581 22.5442 14.6203C22.6343 14.5448 22.7064 14.4503 22.8056 14.3937C23.6979 13.7987 24.5902 13.2037 25.5006 12.6276C25.9603 12.3349 26.2847 11.9571 26.447 11.4282C26.6092 10.8899 26.2938 10.3799 25.771 10.4649C24.9958 10.5877 24.2477 10.8238 23.4906 11.0316C22.3188 11.3527 21.1561 11.7021 19.9843 12.0232C19.8041 12.0704 19.5968 12.0326 19.3894 11.9665C19.8852 11.806 20.3809 11.6454 20.8767 11.4754C21.9042 11.1166 22.9317 10.786 23.9503 10.3894C24.6443 10.1155 25.2752 9.72829 25.5096 8.89721C25.2933 8.36834 24.8516 8.12279 24.2657 8.28334C21.9132 8.95387 19.5066 9.09553 17.091 9.00109C16.406 8.97276 15.721 8.82165 15.054 8.62333C15.6669 8.62333 16.2708 8.62333 16.8837 8.62333C19.1371 8.60444 21.3634 8.40611 23.5537 7.84891C23.9052 7.75447 24.3108 7.49004 24.5091 7.17838C25.0138 6.36619 24.4099 5.53511 23.3644 5.52567C21.8141 5.51622 20.2638 5.60122 18.7225 5.50678C16.2978 5.36512 13.8642 5.17624 11.5387 4.29794C11.4396 4.26016 11.3404 4.23183 11.2413 4.19405C11.2233 4.18461 11.2052 4.15627 11.1602 4.09961C11.71 4.17516 12.2418 4.24127 12.7646 4.30738C13.4586 4.39238 14.1436 4.52459 14.8376 4.56237C17.109 4.6757 19.3714 4.7607 21.6428 4.85514C22.2557 4.88347 22.8686 4.94013 23.4725 4.94013C24.1125 4.94013 24.6263 5.18568 24.9327 5.76177C25.2572 6.35675 25.2392 6.98006 24.8606 7.57503C24.8065 7.6317 24.7975 7.67892 24.7705 7.74503Z" fill="#3F5795"/>
<path d="M51.9811 8.91537C52.2335 9.78423 52.9005 10.1809 53.6486 10.4453C55.0187 10.9364 56.4067 11.3897 57.7768 11.8714C57.8849 11.9092 57.9841 11.9564 58.0922 12.0036C58.0832 12.0603 58.0652 12.1075 58.0562 12.1641C57.3171 11.9941 56.569 11.843 55.8299 11.6353C54.6761 11.3047 53.5314 10.9175 52.3777 10.5681C52.1524 10.502 51.909 10.4831 51.6747 10.4831C51.1519 10.4831 50.8725 10.8986 51.0257 11.4369C51.1789 11.9564 51.4674 12.3436 51.918 12.6269C52.8104 13.1935 53.6937 13.7791 54.577 14.3552C54.6761 14.4213 54.7573 14.5063 54.8474 14.5818C54.8294 14.6196 54.8114 14.6574 54.7933 14.6857C54.2615 14.4307 53.7387 14.1757 53.207 13.9019C52.5309 13.5524 51.8639 13.1558 51.1699 12.8441C50.6652 12.6175 50.1965 12.7686 49.9892 13.0897C49.7548 13.458 49.7818 14.0152 50.1153 14.4307C50.53 14.9218 50.9896 15.3751 51.4403 15.8284C51.5755 15.9701 51.7468 16.0834 51.891 16.2157C51.8549 16.2629 51.8189 16.3101 51.7828 16.3573C51.5124 16.1779 51.242 15.9984 50.9626 15.819C50.5029 15.5357 50.0522 15.224 49.5655 14.9974C49.1689 14.8085 48.9256 14.9785 48.9977 15.4318C49.0968 16.0551 49.2951 16.6595 49.4393 17.2073C48.9796 17.1034 48.3848 16.3101 48.2676 15.4885C48.3848 15.5546 48.4749 15.6018 48.6011 15.6679C48.6101 15.1862 48.5831 14.714 49.0518 14.4402C49.214 14.4307 49.3943 14.4213 49.4483 14.4213C49.5024 13.883 49.4123 13.2974 49.6376 12.9008C49.863 12.5041 50.3857 12.2964 50.8004 11.9941C50.3317 10.9647 50.5119 9.992 51.918 9.94478C51.3952 8.6415 51.5665 8.11263 52.6301 7.73486C52.1524 6.79046 52.1974 5.94049 52.8374 5.42106C53.1258 5.18496 53.5314 5.01497 53.892 5.00552C55.5234 4.92997 57.1549 4.9583 58.7863 4.88275C60.2375 4.8072 61.6976 4.66554 63.1488 4.51443C64.1493 4.41054 65.1498 4.26888 66.1503 4.13667C66.1863 4.12722 66.2314 4.15555 66.2765 4.165C66.2855 4.21222 66.2945 4.25944 66.3035 4.30666C65.2129 4.57109 64.1313 4.87331 63.0406 5.08108C60.1023 5.64772 57.1188 5.56272 54.1444 5.58161C53.7748 5.58161 53.3331 5.75161 53.0627 6.01604C52.549 6.51658 52.7743 7.45154 53.4774 7.72542C54.0542 7.95208 54.6671 8.07485 55.271 8.18818C57.6326 8.63205 60.0121 8.70761 62.4097 8.76427C61.7878 8.85871 61.1658 9.01926 60.5349 9.04759C59.4713 9.09481 58.3987 9.15148 57.3351 9.03815C55.9651 8.89649 54.6131 8.60372 53.261 8.34873C52.6391 8.20707 52.2696 8.33929 51.9811 8.91537Z" fill="#3F5795"/>
<path d="M47.9347 10.2003C47.8896 12.278 46.5106 14.4029 44.2121 15.9328C42.8691 16.8206 41.3999 17.2928 39.8136 17.4628C37.1636 17.7367 34.748 17.1039 32.6028 15.4606C30.8812 14.1479 29.7996 12.3724 29.5472 10.1436C29.3309 8.17925 29.8627 6.39432 31.0435 4.84549C32.6118 2.77723 34.7119 1.65339 37.1456 1.3134C40.4986 0.841194 43.5181 1.68172 45.9427 4.27884C47.2407 5.67657 47.9437 7.36706 47.9347 10.2003ZM44.3563 14.1762C43.8336 13.2791 43.9237 12.3913 43.8786 11.5508C43.8065 10.2947 43.8245 9.02922 43.8606 7.77315C43.8967 6.55487 43.6172 5.30825 44.2572 4.17496C43.2928 4.17496 42.3734 4.17496 41.5622 4.17496C41.4991 4.63772 41.5441 5.09103 41.3819 5.44046C40.8231 6.63042 40.2102 7.7826 39.5972 8.93478C39.3358 9.43531 39.0384 9.90752 38.7229 10.4553C37.9478 9.09533 37.1816 7.83926 36.4966 6.53598C36.118 5.81823 35.7755 5.03437 36.0549 4.16551C35.0905 4.16551 34.1621 4.16551 33.2788 4.16551C33.387 4.5905 33.5852 5.00604 33.5852 5.42158C33.6123 7.64094 33.6213 9.8603 33.5762 12.0797C33.5672 12.7596 33.387 13.4302 33.2698 14.1857C33.9999 14.724 34.8742 15.2623 35.9197 15.5645C35.1806 13.2791 35.6133 11.003 35.6674 8.71756C36.3975 10.0775 37.1366 11.4469 37.8666 12.7974C38.4345 12.7974 38.9753 12.7974 39.5612 12.7974C40.3003 11.4658 41.0484 10.1342 41.7875 8.79312C41.8326 11.0597 42.2742 13.3168 41.5441 15.6873C42.5356 15.149 43.428 14.6673 44.3563 14.1762Z" fill="#3F5795"/>
</g>
<defs>
<clipPath id="clip0">
<rect width="76.0556" height="44" fill="white" transform="translate(0.695312)"/>
</clipPath>
</defs>
</svg>
