<?xml version="1.0" encoding="utf-8"?>
<!-- Generator: Adobe Illustrator 23.0.1, SVG Export Plug-In . SVG Version: 6.00 Build 0)  -->
<svg version="1.1" id="Layer_1" xmlns="http://www.w3.org/2000/svg" xmlns:xlink="http://www.w3.org/1999/xlink" x="0px" y="0px"
	 width="31.7px" height="44.3px" viewBox="0 0 31.7 44.3" style="enable-background:new 0 0 31.7 44.3;" xml:space="preserve">
<style type="text/css">
	.st0{fill:#FA3535;}
</style>
<path class="st0" d="M30.1,11c-0.2-0.6-0.5-1.2-0.7-1.8C26.6,2.4,20.6,0,15.6,0C9.1,0,1.8,4.5,0.9,13.6v1.9c0,0.1,0,0.8,0.1,1.1
	c0.5,4.4,4,9,6.5,13.4c2.7,4.7,5.6,9.3,8.4,13.9c1.7-3,3.5-6.1,5.2-9c0.5-0.9,1-1.7,1.5-2.5c0.3-0.5,0.9-1.1,1.2-1.6
	c2.7-5.1,7.2-10.2,7.2-15.3v-2.1C30.9,13,30.2,11.1,30.1,11z M15.8,20.4c-1.9,0-4-1-5.1-3.7c-0.2-0.4-0.1-1.3-0.1-1.4v-1.2
	c0-3.4,2.9-5,5.4-5c3.1,0,5.5,2.5,5.5,5.6C21.4,17.9,18.9,20.4,15.8,20.4z"/>
</svg>
