<svg width="31" height="44" viewBox="0 0 31 44" fill="none" xmlns="http://www.w3.org/2000/svg">
<path d="M29.9201 10.9565C29.7681 10.3734 29.454 9.73913 29.2209 9.19693C26.4244 2.42455 20.3349 0 15.4107 0C8.82469 0 1.58012 4.46036 0.607422 13.6471V15.5294C0.607422 15.6113 0.637819 16.3069 0.668215 16.665C1.21536 21.0435 4.64006 25.6982 7.1934 30.0767C9.93924 34.7724 12.7965 39.3862 15.6234 44C17.3662 40.9923 19.1089 37.9335 20.8112 35.0077C21.2773 34.1483 21.8143 33.289 22.2803 32.4604C22.5944 31.9182 23.1821 31.3657 23.4557 30.8542C26.2015 25.7698 30.6293 20.6445 30.6293 15.601V13.5243C30.6293 12.9821 29.9606 11.0691 29.9201 10.9565ZM15.5323 20.3785C13.597 20.3785 11.4793 19.3964 10.4357 16.7059C10.2837 16.2762 10.2939 15.4169 10.2939 15.335V14.1176C10.2939 10.6803 13.1917 9.11509 15.7045 9.11509C18.805 9.11509 21.1962 11.6215 21.1962 14.7519C21.1962 17.8721 18.6327 20.3785 15.5323 20.3785Z" fill="#FA3535"/>
</svg>
