<svg width="10" height="9" viewBox="0 0 10 9" fill="none" xmlns="http://www.w3.org/2000/svg">
<g clip-path="url(#clip0)">
<path d="M1.31742 5.26039L1.3034 5.25672H7.0732L5.25918 7.15949C5.1698 7.25306 5.12247 7.37784 5.12247 7.50995C5.12247 7.64206 5.17155 7.76683 5.25918 7.86041L5.54136 8.15583C5.63075 8.2494 5.74818 8.30078 5.87437 8.30078C6.00056 8.30078 6.11974 8.2494 6.20738 8.15766L9.31837 4.90258C9.406 4.809 9.45508 4.68423 9.45508 4.55212C9.45508 4.42001 9.406 4.29524 9.31837 4.20166L6.20913 0.946582C6.11974 0.853004 6.00231 0.803462 5.87612 0.803462C5.74993 0.803462 5.6325 0.854838 5.54311 0.946582L5.26093 1.242C5.17155 1.33558 5.12423 1.45851 5.12423 1.59062C5.12423 1.72274 5.1733 1.84017 5.26093 1.93375L7.09423 3.84753H1.31041C1.05102 3.84753 0.831932 4.08239 0.831932 4.35395V4.77231C0.831932 5.04387 1.05627 5.26039 1.31742 5.26039Z" fill="#203260"/>
</g>
<defs>
<clipPath id="clip0">
<rect width="8.62315" height="7.49916" fill="white" transform="matrix(-1 0 0 1 9.45508 0.803711)"/>
</clipPath>
</defs>
</svg>
