<svg width="14" height="13" viewBox="0 0 14 13" fill="none" xmlns="http://www.w3.org/2000/svg">
<g clip-path="url(#clip0)">
<path d="M2.31742 7.26039L2.3034 7.25672H8.0732L6.25918 9.15949C6.1698 9.25306 6.12247 9.37784 6.12247 9.50995C6.12247 9.64206 6.17155 9.76683 6.25918 9.86041L6.54136 10.1558C6.63075 10.2494 6.74818 10.3008 6.87437 10.3008C7.00056 10.3008 7.11974 10.2494 7.20738 10.1577L10.3184 6.90258C10.406 6.809 10.4551 6.68423 10.4551 6.55212C10.4551 6.42001 10.406 6.29524 10.3184 6.20166L7.20913 2.94658C7.11974 2.853 7.00231 2.80346 6.87612 2.80346C6.74993 2.80346 6.6325 2.85484 6.54311 2.94658L6.26093 3.242C6.17155 3.33558 6.12423 3.45851 6.12423 3.59062C6.12423 3.72274 6.1733 3.84017 6.26093 3.93375L8.09423 5.84753H2.31041C2.05102 5.84753 1.83193 6.08239 1.83193 6.35395V6.77231C1.83193 7.04387 2.05627 7.26039 2.31742 7.26039Z" fill="white"/>
</g>
<defs>
<clipPath id="clip0">
<rect width="8.62315" height="7.49916" fill="white" transform="matrix(-1 0 0 1 10.4551 2.80371)"/>
</clipPath>
</defs>
</svg>
