<?xml version="1.0" encoding="utf-8"?>
<!-- Generator: Adobe Illustrator 23.0.1, SVG Export Plug-In . SVG Version: 6.00 Build 0)  -->
<svg version="1.1" id="Layer_1" xmlns="http://www.w3.org/2000/svg" xmlns:xlink="http://www.w3.org/1999/xlink" x="0px" y="0px"
	 width="21px" height="21px" viewBox="0 0 21 21" style="enable-background:new 0 0 21 21;" xml:space="preserve">
<style type="text/css">
	.st0{fill:#FFFFFF;}
</style>
<path class="st0" d="M8.4,3.8L8.4,3.8L6.1,1.4c-0.7-0.7-1.8-0.7-2.5,0C3.4,1.6,3.3,1.7,3.2,1.8C3,2,2.8,2.1,2.7,2.3v0l0,0
	c-2.4,2.4-2.4,6.3,0,8.7c0,0,0,0,0,0l7.4,7.4l0,0c2.4,2.4,6.3,2.4,8.7,0l0.9-0.9l0,0c0.7-0.7,0.7-1.8,0-2.5l-2.4-2.4
	c-0.7-0.7-1.8-0.7-2.5,0l-1.1,1.1c-0.5,0.5-1.2,0.5-1.6,0L7.3,9c-0.5-0.5-0.5-1.2,0-1.6l1.1-1.1C9.1,5.6,9.1,4.5,8.4,3.8z M4.5,2.3
	L4.5,2.3c0.2-0.2,0.5-0.2,0.6,0l0,0l2.4,2.4c0,0,0,0,0,0c0.2,0.2,0.2,0.5,0,0.6l0,0L7.2,5.7l-3-3L4.5,2.3z M14.4,14.8l3,3
	c-1.9,1.5-4.6,1.4-6.4-0.4L3.6,10l0,0C1.9,8.2,1.7,5.5,3.2,3.6l3,3C5.4,7.6,5.5,9,6.4,9.9c0,0,0,0,0,0l4.7,4.7l0,0
	C12,15.5,13.4,15.6,14.4,14.8z M16.3,13.5L16.3,13.5l2.4,2.4l0,0c0.2,0.2,0.2,0.5,0,0.6l-0.3,0.3l-3-3l0.3-0.3c0,0,0,0,0,0
	C15.8,13.3,16.1,13.3,16.3,13.5z"/>
<path class="st0" d="M14.4,20.2c-1.7,0-3.2-0.6-4.4-1.8L2.6,11c-2.4-2.4-2.4-6.4,0-8.8c0.2-0.1,0.3-0.3,0.5-0.5l0.4-0.4
	c0.7-0.7,1.9-0.7,2.6,0l2.4,2.4c0.7,0.7,0.7,1.9,0,2.6L7.4,7.4C7,7.8,7,8.5,7.4,8.9l4.7,4.7c0.4,0.4,1.1,0.4,1.5,0l1.1-1.1
	c0.7-0.7,1.9-0.7,2.6,0l2.4,2.4c0.7,0.7,0.7,1.9,0,2.6l-0.9,0.9C17.6,19.6,16.1,20.2,14.4,20.2z M4.8,1C4.4,1,3.9,1.2,3.6,1.5
	L3.2,1.9C3,2.1,2.9,2.2,2.8,2.3c-2.3,2.3-2.3,6.2,0,8.5l7.4,7.4c1.1,1.1,2.6,1.8,4.3,1.8s3.1-0.6,4.3-1.8l0.9-0.9
	c0.7-0.7,0.7-1.7,0-2.4l-2.4-2.4c-0.7-0.7-1.7-0.7-2.4,0l-1.1,1.1c-0.5,0.5-1.3,0.5-1.8,0L7.3,9.1c-0.5-0.5-0.5-1.3,0-1.8l1.1-1.1
	C9,5.6,9,4.5,8.3,3.8h0L6,1.5C5.7,1.2,5.2,1,4.8,1z M14.4,18.9c-1.3,0-2.5-0.5-3.5-1.4l-7.4-7.4C1.8,8.3,1.6,5.5,3.2,3.6l0.1-0.1
	l0.1,0.1l3.1,3.1L6.3,6.7C5.5,7.6,5.6,9,6.5,9.9l4.7,4.7c0.9,0.9,2.2,0.9,3.2,0.2l0.1-0.1l0.1,0.1l3.1,3.1l-0.1,0.1
	C16.5,18.5,15.5,18.9,14.4,18.9z M3.3,3.8C1.8,5.6,2,8.3,3.7,9.9l7.4,7.4c1.7,1.7,4.3,1.8,6.2,0.4l-2.9-2.9c-1,0.8-2.5,0.7-3.4-0.2
	L6.3,10c-0.9-0.9-1-2.4-0.2-3.4L3.3,3.8z M18.3,17L18.3,17l-3.2-3.2l0.4-0.4c0.1-0.1,0.2-0.1,0.4-0.1c0,0,0,0,0,0
	c0.1,0,0.3,0,0.4,0.1h0l2.4,2.4c0.1,0.1,0.1,0.2,0.1,0.4c0,0.1-0.1,0.3-0.2,0.4L18.3,17z M15.5,13.8l2.9,2.9l0.3-0.3
	c0.1-0.1,0.1-0.2,0.1-0.3c0-0.1,0-0.2-0.1-0.3l-2.4-2.4c-0.1-0.1-0.2-0.1-0.2-0.1c0,0,0,0,0,0c-0.1,0-0.2,0-0.2,0.1v0.1l-0.1,0
	L15.5,13.8z M7.2,5.8L4,2.7l0.4-0.4c0.2-0.2,0.6-0.2,0.8,0l2.4,2.4C7.7,4.7,7.7,4.9,7.7,5c0,0.1-0.1,0.3-0.2,0.4h0l0,0L7.2,5.8z
	 M4.3,2.7l2.9,2.9l0.3-0.3C7.5,5.2,7.5,5.1,7.5,5c0-0.1,0-0.2-0.1-0.3L5.1,2.4c-0.1-0.1-0.4-0.1-0.5,0h0L4.3,2.7z"/>
</svg>
