<svg width="8" height="8" viewBox="0 0 8 8" fill="none" xmlns="http://www.w3.org/2000/svg">
<path d="M1.62386 3.37636C1.19223 3.03181 0.56301 3.10241 0.218463 3.53404C-0.126085 3.96567 -0.0554897 4.59488 0.376141 4.93943L1.62386 3.37636ZM3.30769 6L2.68383 6.78154L3.49532 7.4293L4.11213 6.59404L3.30769 6ZM7.80443 1.59404C8.13251 1.14977 8.03832 0.523648 7.59404 0.195567C7.14977 -0.132514 6.52365 -0.0383193 6.19557 0.405957L7.80443 1.59404ZM0.376141 4.93943L2.68383 6.78154L3.93155 5.21846L1.62386 3.37636L0.376141 4.93943ZM4.11213 6.59404L7.80443 1.59404L6.19557 0.405957L2.50326 5.40596L4.11213 6.59404Z" fill="white"/>
</svg>
