<svg width="10" height="14" viewBox="0 0 10 14" fill="none" xmlns="http://www.w3.org/2000/svg">
<path d="M6.025 7.70947C7.79854 7.70947 9.2 6.09613 9.2 4.16098C9.2 2.22584 7.79854 0.6125 6.025 0.6125H6.02496H6.02492H6.02488H6.02484H6.0248H6.02475H6.02471H6.02467H6.02463H6.02459H6.02455H6.02451H6.02447H6.02443H6.02438H6.02434H6.0243H6.02426H6.02422H6.02418H6.02414H6.0241H6.02406H6.02402H6.02397H6.02393H6.02389H6.02385H6.02381H6.02377H6.02373H6.02369H6.02365H6.02361H6.02357H6.02352H6.02348H6.02344H6.0234H6.02336H6.02332H6.02328H6.02324H6.0232H6.02316H6.02312H6.02308H6.02303H6.02299H6.02295H6.02291H6.02287H6.02283H6.02279H6.02275H6.02271H6.02267H6.02263H6.02259H6.02254H6.0225H6.02246H6.02242H6.02238H6.02234H6.0223H6.02226H6.02222H6.02218H6.02214H6.0221H6.02206H6.02202H6.02198H6.02193H6.02189H6.02185H6.02181H6.02177H6.02173H6.02169H6.02165H6.02161H6.02157H6.02153H6.02149H6.02145H6.02141H6.02137H6.02133H6.02129H6.02125H6.02121H6.02117H6.02113H6.02109H6.02105H6.02101H6.02097H6.02092H6.02088H6.02084H6.0208H6.02076H6.02072H6.02068H6.02064H6.0206H6.02056H6.02052H6.02048H6.02044H6.0204H6.02036H6.02032H6.02028H6.02024H6.0202H6.02016H6.02012H6.02008H6.02004H6.02H6.01996H6.01992H6.01988H6.01984H6.0198H6.01976H6.01973H6.01969H6.01965H6.01961H6.01957H6.01953H6.01949H6.01945H6.01941H6.01937H6.01933H6.01929H6.01925H6.01921H6.01917H6.01913H6.01909H6.01905H6.01901H6.01898H6.01894H6.0189H6.01886H6.01882H6.01878H6.01874H6.0187H6.01866H6.01862H6.01858H6.01854H6.01851H6.01847H6.01843H6.01839H6.01835H6.01831H6.01827H6.01823H6.01819H6.01816H6.01812H6.01808H6.01804H6.018H6.01796H6.01792H6.01788H6.01785H6.01781H6.01777H6.01773H6.01769H6.01765H6.01762H6.01758H6.01754H6.0175H6.01746H6.01742H6.01739H6.01735H6.01731H6.01727H6.01723H6.0172H6.01716H6.01712H6.01708H6.01704H6.01701H6.01697H6.01693H6.01689H6.01685H6.01682H6.01678H6.01674H6.0167H6.01667H6.01663H6.01659H6.01655H6.01652H6.01648H6.01644H6.0164H6.01637H6.01633H6.01629H6.01625H6.01622H6.01618H6.01614H6.01611H6.01607H6.01603H6.01599H6.01596H6.01592H6.01588H6.01585H6.01581H6.01577H6.01574H6.0157H6.01566H6.01563H6.01559H6.01555H6.01552H6.01548H6.01544H6.01541H6.01537H6.01533H6.0153H6.01526H6.01523H6.01519H6.01515H6.01512H6.01508H6.01505H6.01501H6.01497H6.01494H6.0149H6.01487H6.01483H6.01479H6.01476H6.01472H6.01469H6.01465H6.01462H6.01458H6.01455H6.01451H6.01447H6.01444H6.0144H6.01437H6.01433H6.0143H6.01426H6.01423H6.01419H6.01416H6.01412H6.01409H6.01405H6.01402H6.01398H6.01395H6.01391H6.01388H6.01384H6.01381H6.01378H6.01374H6.01371H6.01367H6.01364H6.0136H6.01357H6.01354H6.0135H6.01347H6.01343H6.0134H6.01337H6.01333H6.0133H6.01326H6.01323H6.0132H6.01316H6.01313H6.0131H6.01306H6.01303H6.013H6.01296H6.01293H6.0129H6.01286H6.01283H6.0128H6.01276H6.01273H6.0127H6.01266H6.01263H6.0126H6.01257H6.01253H6.0125H6.01247H6.01243H6.0124H6.01237H6.01234H6.0123H6.01227H6.01224H6.01221H6.01218H6.01214H6.01211H6.01208H6.01205H6.01202H6.01198H6.01195H6.01192H6.01189H6.01186H6.01183H6.01179H6.01176H6.01173H6.0117H6.01167H6.01164H6.01161H6.01158H6.01154H6.01151H6.01148H6.01145H6.01142H6.01139H6.01136H6.01133H6.0113H6.01127H6.01124H6.01121H6.01118H6.01115H6.01112H6.01108H6.01105H6.01102H6.01099H6.01096H6.01093H6.0109H6.01087H6.01085H6.01082H6.01079H6.01076H6.01073H6.0107H6.01067H6.01064H6.01061H6.01058H6.01055H6.01052H6.01049H6.01046H6.01044H6.01041H6.01038H6.01035H6.01032H6.01029H6.01026H6.01023H6.01021H6.01018H6.01015H6.01012H6.01009H6.01007H6.01004H6.01001H6.00998H6.00995H6.00993H6.0099H6.00987H6.00984H6.00982H6.00979H6.00976H6.00973H6.00971H6.00968H6.00965H6.00962H6.0096H6.00957H6.00954H6.00952H6.00949H6.00946H6.00944H6.00941H6.00938H6.00936H6.00933H6.00931H6.00928H6.00925H6.00923H6.0092H6.00917H6.00915H6.00912H6.0091H6.00907H6.00905H6.00902H6.009H6.00897H6.00894H6.00892H6.00889H6.00887H6.00884H6.00882H6.00879H6.00877H6.00874H6.00872H6.0087H6.00867H6.00865H6.00862H6.0086H6.00857H6.00855H6.00853H6.0085H6.00848H6.00845H6.00843H6.00841H6.00838H6.00836H6.00834H6.00831H6.00829H6.00827H6.00824H6.00822H6.0082H6.00817H6.00815H6.00813H6.00811H6.00808H6.00806H6.00804H6.00802H6.00799H6.00797H6.00795H6.00793H6.0079H6.00788H6.00786H6.00784H6.00782H6.00779H6.00777H6.00775H6.00773H6.00771H6.00769H6.00767H6.00765H6.00762H6.0076H6.00758H6.00756H6.00754H6.00752H6.0075H3.575C3.15246 0.6125 2.85 0.988874 2.85 1.40341V6.91856V9.49129H1.525C1.10246 9.49129 0.8 9.86766 0.8 10.2822C0.8 10.6967 1.10246 11.0731 1.525 11.0731H2.85V12.4091C2.85 12.8236 3.15246 13.2 3.575 13.2C3.99754 13.2 4.3 12.8236 4.3 12.4091V11.0731H7.025C7.44754 11.0731 7.75 10.6967 7.75 10.2822C7.75 9.86766 7.44754 9.49129 7.025 9.49129H4.3V7.70947H6.025ZM6.025 2.19432H6.02504H6.02508H6.02512H6.02516H6.0252H6.02524H6.02529H6.02533H6.02537H6.02541H6.02545H6.02549H6.02553H6.02557H6.02561H6.02565H6.02569H6.02573H6.02577H6.0258H6.02584H6.02588H6.02592H6.02596H6.026H6.02604H6.02608H6.02612H6.02616H6.0262H6.02623H6.02627H6.02631H6.02635H6.02639H6.02643H6.02647H6.0265H6.02654H6.02658H6.02662H6.02666H6.02669H6.02673H6.02677H6.02681H6.02684H6.02688H6.02692H6.02696H6.02699H6.02703H6.02707H6.02711H6.02714H6.02718H6.02722H6.02725H6.02729H6.02733H6.02736H6.0274H6.02744H6.02747H6.02751H6.02755H6.02758H6.02762H6.02766H6.02769H6.02773H6.02776H6.0278H6.02784H6.02787H6.02791H6.02794H6.02798H6.02802H6.02805H6.02809H6.02812H6.02816H6.02819H6.02823H6.02826H6.0283H6.02833H6.02837H6.02841H6.02844H6.02848H6.02851H6.02854H6.02858H6.02861H6.02865H6.02868H6.02872H6.02875H6.02879H6.02882H6.02886H6.02889H6.02893H6.02896H6.02899H6.02903H6.02906H6.0291H6.02913H6.02916H6.0292H6.02923H6.02927H6.0293H6.02933H6.02937H6.0294H6.02944H6.02947H6.0295H6.02954H6.02957H6.0296H6.02964H6.02967H6.0297H6.02974H6.02977H6.0298H6.02984H6.02987H6.0299H6.02994H6.02997H6.03H6.03003H6.03007H6.0301H6.03013H6.03017H6.0302H6.03023H6.03026H6.0303H6.03033H6.03036H6.03039H6.03043H6.03046H6.03049H6.03052H6.03056H6.03059H6.03062H6.03065H6.03069H6.03072H6.03075H6.03078H6.03082H6.03085H6.03088H6.03091H6.03094H6.03098H6.03101H6.03104H6.03107H6.0311H6.03114H6.03117H6.0312H6.03123H6.03126H6.03129H6.03133H6.03136H6.03139H6.03142H6.03145H6.03148H6.03152H6.03155H6.03158H6.03161H6.03164H6.03167H6.0317H6.03174H6.03177H6.0318H6.03183H6.03186H6.03189H6.03192H6.03196H6.03199H6.03202H6.03205H6.03208H6.03211H6.03214H6.03217H6.03221H6.03224H6.03227H6.0323H6.03233H6.03236H6.03239H6.03242H6.03245H6.03249H6.03252H6.03255H6.03258H6.03261H6.03264H6.03267H6.0327H6.03273H6.03276H6.03279H6.03283H6.03286H6.03289H6.03292H6.03295H6.03298H6.03301H6.03304H6.03307H6.0331H6.03313H6.03317H6.0332H6.03323H6.03326H6.03329H6.03332H6.03335H6.03338H6.03341H6.03344H6.03347H6.0335H6.03353H6.03357H6.0336H6.03363H6.03366H6.03369H6.03372H6.03375H6.03378H6.03381H6.03384H6.03387H6.0339H6.03393H6.03397H6.034H6.03403H6.03406H6.03409H6.03412H6.03415H6.03418H6.03421H6.03424H6.03427H6.0343H6.03433H6.03437H6.0344H6.03443H6.03446H6.03449H6.03452H6.03455H6.03458H6.03461H6.03464H6.03467H6.03471H6.03474H6.03477H6.0348H6.03483H6.03486H6.03489H6.03492H6.03495H6.03498H6.03502H6.03505H6.03508H6.03511H6.03514H6.03517H6.0352H6.03523H6.03526H6.03529H6.03533H6.03536H6.03539H6.03542H6.03545H6.03548H6.03551H6.03554H6.03558H6.03561H6.03564H6.03567H6.0357H6.03573H6.03576H6.0358H6.03583H6.03586H6.03589H6.03592H6.03595H6.03598H6.03602H6.03605H6.03608H6.03611H6.03614H6.03617H6.03621H6.03624H6.03627H6.0363H6.03633H6.03637H6.0364H6.03643H6.03646H6.03649H6.03652H6.03656H6.03659H6.03662H6.03665H6.03668H6.03672H6.03675H6.03678H6.03681H6.03685H6.03688H6.03691H6.03694H6.03698H6.03701H6.03704H6.03707H6.03711H6.03714H6.03717H6.0372H6.03724H6.03727H6.0373H6.03733H6.03737H6.0374H6.03743H6.03747H6.0375H6.03753H6.03756H6.0376H6.03763H6.03766H6.0377H6.03773H6.03776H6.0378H6.03783H6.03786H6.0379H6.03793H6.03796H6.038H6.03803H6.03806H6.0381H6.03813H6.03817H6.0382H6.03823H6.03827H6.0383H6.03834H6.03837H6.0384H6.03844H6.03847H6.03851H6.03854H6.03857H6.03861H6.03864H6.03868H6.03871H6.03875H6.03878H6.03882H6.03885H6.03889H6.03892H6.03896H6.03899H6.03902H6.03906H6.03909H6.03913H6.03917H6.0392H6.03924H6.03927H6.03931H6.03934H6.03938H6.03941H6.03945H6.03948H6.03952H6.03956H6.03959H6.03963H6.03966H6.0397H6.03974H6.03977H6.03981H6.03984H6.03988H6.03992H6.03995H6.03999H6.04003H6.04006H6.0401H6.04014H6.04017H6.04021H6.04025H6.04028H6.04032H6.04036H6.04039H6.04043H6.04047H6.04051H6.04054H6.04058H6.04062H6.04066H6.04069H6.04073H6.04077H6.04081H6.04084H6.04088H6.04092H6.04096H6.041H6.04103H6.04107H6.04111H6.04115H6.04119H6.04123H6.04127H6.0413H6.04134H6.04135C6.964 2.20533 7.75 3.05927 7.75 4.16098C7.75 5.26706 6.95346 6.12765 6.025 6.12765H4.3V2.19432H6.025Z" fill="#203260" stroke="#203260" stroke-width="0.4"/>
</svg>
