<?xml version="1.0" encoding="utf-8"?>
<!-- Generator: Adobe Illustrator 23.0.1, SVG Export Plug-In . SVG Version: 6.00 Build 0)  -->
<svg version="1.1" id="Layer_1" xmlns="http://www.w3.org/2000/svg" xmlns:xlink="http://www.w3.org/1999/xlink" x="0px" y="0px"
	 width="35px" height="33px" viewBox="0 0 35 33" style="enable-background:new 0 0 35 33;" xml:space="preserve">

	<path d="M29.8,12.7h-0.2v0.2h0.2c0.1,0,0.1,0,0.1-0.1C29.9,12.7,29.9,12.7,29.8,12.7z"/>
	<path d="M29.8,12.4c-0.1,0-0.3,0-0.4,0.2c-0.1,0.1-0.2,0.2-0.2,0.4c0,0.1,0,0.2,0.2,0.4
		c0.1,0.1,0.2,0.2,0.4,0.2c0.1,0,0.3,0,0.4-0.2c0-0.1,0.1-0.2,0.1-0.4c0-0.1,0-0.2-0.2-0.4C30.1,12.4,29.9,12.4,29.8,12.4z M30,12.9
		l0.1,0.3h-0.2L29.8,13h-0.2v0.3h-0.1v-0.7h0.3c0.1,0,0.2,0,0.2,0c0,0,0.1,0.1,0.1,0.1C30.1,12.8,30.1,12.9,30,12.9z"/>
	<path d="M17.6,13.8h-1.8v1.9h1.7c1.2,0,1.5,0,1.5-1C19,13.8,18.8,13.8,17.6,13.8z"/>
	<path d="M0.5,0v33h34V0H0.5z M13.4,13.8h-2.8v6.3H8.7v-6.3H6v-1.5h7.3V13.8z M20.8,18.4v1.7h-1.8v-1.7
		c0-0.7-0.4-1.1-1.1-1.1h-2v2.8h-1.8v-7.8h4.3c1.8,0,2.6,0.4,2.6,2.2c0,1.2-0.2,1.9-1,2l-0.3,0C20.4,16.6,20.8,17.2,20.8,18.4z
		 M27.1,20.1l-1.8-2.8l-1.8,2.8h-2.1l2.8-4l-2.6-3.8h2.1l1.7,2.6l1.6-2.6H29l-2.6,3.8l2.8,4H27.1z M30.2,13.3
		c-0.1,0.1-0.3,0.2-0.4,0.2c-0.2,0-0.3,0-0.4-0.2c-0.1-0.1-0.2-0.2-0.2-0.4c0-0.2,0-0.3,0.2-0.4c0.1-0.1,0.3-0.2,0.4-0.2
		c0.2,0,0.3,0,0.4,0.2c0.1,0.1,0.2,0.2,0.2,0.4C30.4,13,30.4,13.2,30.2,13.3z"/>

</svg>
