<svg width="35" height="33" viewBox="0 0 35 33" fill="none" xmlns="http://www.w3.org/2000/svg">
<g clip-path="url(#clip0)">
<path d="M34.3803 0H0.355469V33H34.3803V0Z" fill="#3F5795"/>
<path d="M10.4541 20.0764H8.61039V13.8178H5.88672V12.2734H13.2197V13.8178H10.4541V20.0764Z" fill="#203260"/>
<path d="M15.6504 17.2316V20.0764H13.8066V12.2734H18.1226C19.9663 12.3141 20.6787 12.6392 20.6787 14.468C20.6787 15.6466 20.511 16.3375 19.6311 16.5L19.3797 16.5407C20.2596 16.622 20.6368 17.2316 20.6368 18.3695V20.0764H18.793V18.3695C18.793 17.6786 18.4159 17.2316 17.6617 17.2316H15.6504ZM17.3684 15.6872C18.5835 15.6872 18.8769 15.6872 18.8769 14.7119C18.8769 13.8178 18.6673 13.8178 17.4941 13.8178H15.6923V15.6872H17.3684Z" fill="#203260"/>
<path d="M29.0583 20.0764L26.2927 16.053L28.8906 12.2734H26.7536L25.1194 14.8744L23.4433 12.2734H21.3063L23.9042 16.053L21.1387 20.0764H23.2757L25.1194 17.2722L26.9212 20.0764H29.0583Z" fill="#203260"/>
<path d="M30.2748 12.8834C30.2748 13.046 30.2329 13.2085 30.1072 13.2898C29.9815 13.4117 29.8558 13.4524 29.6882 13.4524C29.5206 13.4524 29.353 13.4117 29.2692 13.2898C29.1435 13.1679 29.1016 13.046 29.1016 12.8834C29.1016 12.7209 29.1435 12.5583 29.2692 12.477C29.3949 12.3551 29.5206 12.3145 29.6882 12.3145C29.8558 12.3145 29.9815 12.3551 30.1072 12.477C30.2329 12.5989 30.2748 12.7209 30.2748 12.8834ZM30.191 12.8834C30.191 12.7615 30.1491 12.6396 30.0234 12.5177C29.9396 12.4364 29.8139 12.3551 29.6882 12.3551C29.5625 12.3551 29.4368 12.3957 29.3111 12.5177C29.2273 12.5989 29.1435 12.7209 29.1435 12.8834C29.1435 13.0053 29.1854 13.1273 29.3111 13.2492C29.3949 13.3305 29.5206 13.4117 29.6882 13.4117C29.8139 13.4117 29.9396 13.3711 30.0653 13.2492C30.1072 13.1273 30.191 13.046 30.191 12.8834ZM29.9396 13.2085H29.772L29.6882 12.9647H29.5206V13.2492H29.3949V12.5989H29.6882C29.772 12.5989 29.8558 12.5989 29.8977 12.6396C29.9396 12.6802 29.9815 12.7209 29.9815 12.7615C29.9815 12.8428 29.9396 12.8834 29.8558 12.9241L29.9396 13.2085ZM29.5206 12.8428H29.6882C29.772 12.8428 29.8139 12.8021 29.8139 12.7615C29.8139 12.7209 29.772 12.6802 29.6882 12.6802H29.5206V12.8428Z" fill="#203260"/>
</g>
<defs>
<clipPath id="clip0">
<rect width="34.0249" height="33" fill="white" transform="translate(0.355469)"/>
</clipPath>
</defs>
</svg>
